SplineFontDB: 3.0
FontName: CMUConcrete-Bold
FullName: CMU Concrete Bold Extended Roman
FamilyName: CMU Concrete
Weight: Bold
Copyright: Converted by Andrey V. Panov from TeX fonts
UComments: "2009-6-18: Created." 
Version: 0.7.0
ItalicAngle: 0
UnderlinePosition: -100
UnderlineWidth: 50
Ascent: 800
Descent: 200
LayerCount: 2
Layer: 0 0 "+BBcEMAQ0BD0EOAQ5 +BD8EOwQwBD0A"  1
Layer: 1 0 "+BB8ENQRABDUENAQ9BDgEOQAA +BD8EOwQwBD0A"  0
NeedsXUIDChange: 1
XUID: [1067 14130399]
FSType: 0
OS2Version: 0
OS2_WeightWidthSlopeOnly: 0
OS2_UseTypoMetrics: 1
CreationTime: 1245316795
ModificationTime: 1245317276
PfmFamily: 17
TTFWeight: 700
TTFWidth: 5
LineGap: 200
VLineGap: 90
OS2TypoAscent: 0
OS2TypoAOffset: 1
OS2TypoDescent: 0
OS2TypoDOffset: 1
OS2TypoLinegap: 200
OS2WinAscent: 1000
OS2WinAOffset: 0
OS2WinDescent: 341
OS2WinDOffset: 0
HheadAscent: 1000
HheadAOffset: 0
HheadDescent: -341
HheadDOffset: 0
Lookup: 1 0 0 "Case substitutions"  {"Case substitutions subtable"  } ['case' ('cyrl' <'dflt' > 'grek' <'dflt' > 'latn' <'dflt' > ) ]
Lookup: 3 0 0 "Greek alternatives"  {"Greek alternatives subtable"  } ['salt' ('grek' <'dflt' > ) ]
Lookup: 1 0 0 "Greek substitutions"  {"Greek substitutions subtable"  } ['locl' ('grek' <'dflt' > ) ]
Lookup: 4 0 1 "Latin Dutch ligatures"  {"Latin Dutch ligatures subtable"  } ['liga' ('latn' <'NLD ' > ) ]
Lookup: 4 0 1 "Latin ligatures excepting Turkic"  {"Latin ligatures excepting Turkic subtable"  } ['liga' ('latn' <'dflt' 'NLD ' 'VIT ' > ) ]
Lookup: 4 0 1 "Latin ligatures"  {"Latin ligatures subtable"  } ['liga' ('latn' <'dflt' 'NLD ' 'VIT ' 'TRK ' 'AZE ' > ) ]
Lookup: 4 0 1 "Cyrillic ligatures"  {"Cyrillic ligatures subtable"  } ['liga' ('cyrl' <'dflt' 'MKD ' 'SRB ' > ) ]
Lookup: 3 0 0 "Latin alternatives"  {"Latin alternatives subtable"  } ['salt' ('latn' <'dflt' > ) ]
Lookup: 3 0 0 "Stilistic set 01"  {"Stilistic set 01 subtable"  } ['ss01' ('latn' <'dflt' > 'grek' <'dflt' > 'cyrl' <'dflt' > ) ]

StartChar: .notdef
Encoding: 0 0 0
Width: 760
Flags: HW
HStem: 10 60<105 655> 705 60<105 655>
VStem: 10 60<112 663> 690 60<112 663>
DStem2: 105 705 70 663 0.702289 -0.711892<5.31938 389.612 448.699 832.991> 70 112 105 70 0.702289 0.711892<0 384.292 443.379 827.672>
LayerCount: 2
Fore
SplineSet
10 10 m 1
 10 765 l 1
 750 765 l 1
 750 10 l 1
 10 10 l 1
70 112 m 1
 346 388 l 1
 70 663 l 1
 70 112 l 1
105 70 m 1
 655 70 l 1
 380 346 l 1
 105 70 l 1
105 705 m 1
 380 429 l 1
 655 705 l 1
 105 705 l 1
414 388 m 1
 690 112 l 1
 690 663 l 1
 414 388 l 1
EndSplineSet
EndChar

StartChar: uni262D
Encoding: 9773 9773 1
Width: 700
Flags: HW
TeX: 117 0
HStem: -1 21G<56 93 593.5 601> 39 76<321.786 462.78> 102 51<140.549 177.987>
VStem: 129 54<101.776 137.734> 556 82<197.341 366.709>
DStem2: 123 357 178 301 0.707107 0.707107<0 86.9741 130.108 182.434>
LayerCount: 2
Fore
SplineSet
40 18 m 0
 40 64 129 102 129 128 c 0
 129 148 134 153 148 153 c 0xb8
 162 153 164 157 182 180 c 1
 229 156 307 115 390 115 c 0
 438 115 463 128 463 129 c 0
 463 135 406 186 240 363 c 1
 178 301 l 1
 123 357 l 1
 252 486 l 1
 347 470 l 1
 271 393 l 1
 484 190 l 1
 513 165 l 1
 519 165 556 218 556 295 c 0
 556 473 346 588 346 593 c 1
 394 593 638 478 638 267 c 0
 638 167 592 118 580 100 c 1
 636 44 637 42 637 38 c 0xd8
 637 17 605 -1 597 -1 c 2
 596 -1 l 2
 591 -1 590 1 529 62 c 1
 500 51 474 39 428 39 c 0xd8
 297 39 201 138 188 138 c 0
 183 138 182 134 182 130 c 0
 182 126 183 123 183 118 c 0
 183 108 178 102 168 102 c 0
 131 102 122 0 64 -0 c 0
 48 0 40 7 40 18 c 0
EndSplineSet
EndChar

StartChar: longs
Encoding: 383 383 2
Width: 351
Flags: HW
TeX: 108 0
HStem: 0 76<45 120 210 303> 396 76<37 120> 577 123<319.219 391.965>
VStem: 120 90<76 396 472 598.022>
AnchorPoint: "above" 339 695 basechar 0
AnchorPoint: "below" 165 0 basechar 0
LayerCount: 2
Fore
SplineSet
37 396 m 1
 37 472 l 1
 120 472 l 1
 120 524 l 2
 120 561 122 585 143 617 c 0
 184 678 268 700 339 700 c 0
 397 700 410 653 410 629 c 0
 410 597 386 577 360 577 c 0
 349 577 318 582 309 624 c 1
 259 621 210 607 210 539 c 2
 210 76 l 1
 303 76 l 1
 303 0 l 1
 45 0 l 1
 45 76 l 1
 120 76 l 1
 120 396 l 1
 37 396 l 1
EndSplineSet
EndChar

StartChar: florin
Encoding: 402 402 3
Width: 600
Flags: HW
TeX: 102 0
HStem: -200 75<128.256 177.572> 397 75<174.9 285 386 515.667> 625 75<412.909 473.49>
VStem: 28 100<-124 -82.6125> 472 99<582.966 623.719>
LayerCount: 2
Fore
SplineSet
28 -130 m 0
 28 -79 75 -68 88 -68 c 0
 114 -68 128 -83 128 -107 c 0
 128 -112 127 -118 126 -124 c 1
 132 -124 138 -125 143 -125 c 0
 193 -125 202 -73 285 397 c 1
 195 397 l 2
 180 397 167 401 167 418 c 1
 168 429 171 439 174 448 c 1
 178 467 186 472 204 472 c 2
 299 472 l 1
 320 590 325 639 382 677 c 0
 406 693 431 700 457 700 c 0
 484 700 571 694 571 631 c 0
 571 598 545 568 512 568 c 0
 486 568 472 583 472 607 c 0
 472 612 472 618 474 624 c 1
 419 625 l 1
 408 596 396 534 386 472 c 1
 496 472 l 2
 510 472 523 468 523 451 c 0
 523 443 520 434 518 427 c 0
 513 405 509 397 485 397 c 2
 372 397 l 1
 314 61 296 -59 252 -125 c 0
 223 -168 186 -200 137 -200 c 0
 74 -200 28 -173 28 -130 c 0
EndSplineSet
EndChar

StartChar: uni03F5
Encoding: 1013 1013 4
Width: 495
Flags: HW
HStem: -5 75<277.766 430> 210 80<148 366> 402 76<262.532 430>
LayerCount: 2
Fore
SplineSet
47 240 m 0
 47 383 194 478 430 478 c 1
 430 402 l 1
 217 402 166 329 148 290 c 1
 366 290 l 1
 366 210 l 1
 142 210 l 1
 171 107 303 70 430 70 c 1
 430 -5 l 1
 211 -5 47 93 47 240 c 0
EndSplineSet
EndChar

StartChar: circumflex.cap
Encoding: 65536 -1 5
Width: 575
Flags: HW
HStem: 757 243
AnchorPoint: "above" 288 705 mark 0
LayerCount: 2
Fore
SplineSet
115 805 m 1
 287 1000 l 1
 288 1000 l 1
 460 805 l 1
 402 757 l 1
 288 913 l 1
 287 913 l 1
 174 757 l 1
 115 805 l 1
EndSplineSet
EndChar

StartChar: dieresis.cap
Encoding: 65537 -1 6
Width: 575
Flags: HW
HStem: 744 133<126.937 224.338 351.662 447.996>
VStem: 110 132<761.35 859.346> 334 132<762.107 859.697>
AnchorPoint: "above" 288 705 mark 0
LayerCount: 2
Fore
SplineSet
110 811 m 0
 110 845 136 877 176 877 c 0
 214 877 242 846 242 811 c 0
 242 773 212 744 176 744 c 0
 136 744 110 777 110 811 c 0
334 811 m 0
 334 847 362 877 400 877 c 0
 434 877 466 850 466 811 c 0
 466 772 434 744 400 744 c 0
 362 744 334 776 334 811 c 0
EndSplineSet
EndChar

StartChar: dotaccent.cap
Encoding: 65538 -1 7
Width: 575
Flags: HW
HStem: 756 133<240.004 335.996>
VStem: 222 132<773.662 871.224>
AnchorPoint: "above" 288 705 mark 0
LayerCount: 2
Fore
SplineSet
222 822 m 0
 222 859 252 889 288 889 c 0
 322 889 354 861 354 822 c 0
 354 784 322 756 288 756 c 0
 254 756 222 783 222 822 c 0
EndSplineSet
EndChar

StartChar: caron.cap
Encoding: 65539 -1 8
Width: 575
Flags: HW
HStem: 773 171
VStem: 130 316
AnchorPoint: "above" 288 705 mark 0
LayerCount: 2
Fore
SplineSet
130 905 m 1
 130 906 l 1
 158 944 l 1
 206 915 276 864 288 864 c 0
 300 864 372 917 418 944 c 1
 446 906 l 1
 446 905 l 1
 288 773 l 1
 130 905 l 1
EndSplineSet
EndChar

StartChar: ring.cap
Encoding: 65540 -1 9
Width: 575
Flags: HW
HStem: 706 75<234.832 341.211> 919 75<234.089 340.852>
VStem: 160 64<792.582 908.046> 351 64<791.355 909.176>
AnchorPoint: "above" 288 705 mark 0
LayerCount: 2
Fore
SplineSet
160 849 m 0
 160 942 215 994 288 994 c 0
 365 994 415 937 415 850 c 0
 415 758 360 706 288 706 c 0
 211 706 160 763 160 849 c 0
224 850 m 0
 224 807 237 781 286 781 c 0
 338 781 351 804 351 849 c 0
 351 885 346 919 289 919 c 0
 233 919 224 890 224 850 c 0
EndSplineSet
EndChar

StartChar: breve.cap
Encoding: 65541 -1 10
Width: 575
Flags: HW
HStem: 781 81<221.618 354.562>
VStem: 90 75<923.341 995> 410 75<923.341 995>
AnchorPoint: "above" 288 705 mark 0
LayerCount: 2
Fore
SplineSet
90 995 m 1
 165 995 l 1
 168 915 224 862 288 862 c 0
 338 862 406 900 410 995 c 1
 485 995 l 1
 483 869 394 781 288 781 c 0
 182 781 92 869 90 995 c 1
EndSplineSet
EndChar

StartChar: grave
Encoding: 96 96 11
Width: 575
Flags: HW
TeX: 694 0
HStem: 526 170
VStem: 120 218
LayerCount: 2
Fore
SplineSet
120 648 m 0
 120 672 140 696 165 696 c 0
 183 696 188 690 338 591 c 1
 300 526 l 1
 286 533 272 542 158 602 c 0
 144 609 120 620 120 648 c 0
EndSplineSet
EndChar

StartChar: acute
Encoding: 180 180 12
Width: 575
Flags: HW
TeX: 694 0
HStem: 526 170
VStem: 236 219
LayerCount: 2
Fore
SplineSet
236 591 m 1
 393 695 389 696 409 696 c 0
 434 696 455 672 455 648 c 0
 455 620 430 609 416 602 c 0
 302 542 288 533 274 526 c 1
 236 591 l 1
EndSplineSet
EndChar

StartChar: circumflex
Encoding: 710 710 13
Width: 575
Flags: HW
TeX: 772 0
HStem: 594 184
DStem2: 286 778 286 691 0.801157 0.598454<-206.254 -52.0655> 287 778 287 691 0.801157 -0.598454<52.0655 207.056>
LayerCount: 2
Fore
SplineSet
120 654 m 1
 286 778 l 1
 287 778 l 1
 453 654 l 1
 408 594 l 1
 287 691 l 1
 286 691 l 1
 166 594 l 1
 120 654 l 1
EndSplineSet
EndChar

StartChar: tilde
Encoding: 732 732 14
Width: 575
Flags: HW
TeX: 772 0
HStem: 514 111<293.745 371.326> 582 112<201.805 277.932>
LayerCount: 2
Fore
SplineSet
95 564 m 1
 165 640 211 694 247 694 c 0x40
 287 694 286 625 325 625 c 0
 360 625 402 675 423 695 c 1
 478 643 l 1
 409 569 362 514 326 514 c 0x80
 286 514 286 580 248 582 c 1
 213 582 171 533 150 513 c 1
 95 564 l 1
EndSplineSet
EndChar

StartChar: dieresis
Encoding: 168 168 15
Width: 575
Flags: HW
TeX: 694 0
HStem: 561 133<127 223 349.654 446.135>
VStem: 109 132<579.139 677.08> 332 133<579.875 676.338>
LayerCount: 2
Fore
SplineSet
109 628 m 0
 109 663 136 694 175 694 c 0
 215 694 241 662 241 628 c 0
 241 590 210 561 175 561 c 0
 135 561 109 595 109 628 c 0
332 628 m 0
 332 666 362 694 398 694 c 0
 433 694 465 666 465 628 c 0
 465 592 434 561 398 561 c 0
 363 561 332 589 332 628 c 0
EndSplineSet
EndChar

StartChar: ring
Encoding: 730 730 17
Width: 847
Flags: HW
TeX: 772 0
HStem: 522 50<372.551 473.723> 722 50<372.483 473.72>
VStem: 295 64<584.956 709.691> 487 64<584.531 709.478>
LayerCount: 2
Fore
SplineSet
295 647 m 0
 295 723 346 772 423 772 c 0
 500 772 551 722 551 647 c 0
 551 572 501 522 423 522 c 0
 346 522 295 572 295 647 c 0
359 649 m 0
 359 620 362 572 423 572 c 0
 475 572 487 604 487 645 c 0
 487 678 483 722 423 722 c 0
 371 722 359 690 359 649 c 0
EndSplineSet
EndChar

StartChar: caron
Encoding: 711 711 18
Width: 575
Flags: HW
TeX: 772 0
HStem: 554 233
VStem: 125 325
DStem2: 162 787 125 756 0.625637 -0.780115<1.035 188.981> 288 645 288 554 0.625637 0.780115<0 187.946>
LayerCount: 2
Fore
SplineSet
125 756 m 1
 125 757 l 1
 161 787 l 1
 162 787 l 1
 287 645 l 1
 288 645 l 1
 413 787 l 1
 414 787 l 1
 450 757 l 1
 450 756 l 1
 288 554 l 1
 287 554 l 1
 125 756 l 1
EndSplineSet
EndChar

StartChar: breve
Encoding: 728 728 19
Width: 575
Flags: HW
TeX: 772 0
HStem: 543 81<223.706 350.725>
VStem: 90 75<691.449 772> 409 76<688.44 772>
LayerCount: 2
Fore
SplineSet
90 772 m 1
 165 772 l 1
 168 679 225 624 287 624 c 0
 340 624 406 668 409 772 c 1
 485 772 l 1
 482 630 388 543 286 543 c 0
 177 543 92 641 90 772 c 1
EndSplineSet
EndChar

StartChar: macron
Encoding: 175 175 20
Width: 575
Flags: HW
TeX: 694 0
HStem: 627 78<80 495>
LayerCount: 2
Fore
SplineSet
80 627 m 1
 80 705 l 1
 495 705 l 1
 495 627 l 1
 80 627 l 1
EndSplineSet
EndChar

StartChar: dotaccent
Encoding: 729 729 21
Width: 319
Flags: HW
TeX: 694 0
HStem: 562 133<127.004 223.346>
VStem: 109 132<579.299 677.224>
LayerCount: 2
Fore
SplineSet
109 628 m 0
 109 667 141 695 175 695 c 0
 210 695 241 667 241 628 c 0
 241 589 209 562 175 562 c 0
 140 562 109 589 109 628 c 0
EndSplineSet
EndChar

StartChar: cedilla
Encoding: 184 184 22
Width: 511
Flags: HW
TeX: 0 170
HStem: -219 76<113 289.727> -60 76<209 296.247>
VStem: 304 93<-126.974 -70.8234>
LayerCount: 2
Fore
SplineSet
113 -143 m 1
 231 -143 304 -138 304 -100 c 1
 301 -61 244 -60 209 -60 c 1
 209 16 l 1
 326 14 397 -31 397 -102 c 0
 397 -218 234 -219 113 -219 c 1
 113 -143 l 1
EndSplineSet
EndChar

StartChar: ogonek
Encoding: 731 731 23
Width: 319
Flags: HW
TeX: 0 194
HStem: -226 88<94.5299 176.951>
VStem: -4 97<-135.621 -71.2878>
LayerCount: 2
Fore
SplineSet
-4 -130 m 0
 -4 -41 120 -4 189 59 c 1
 223 1 l 1
 223 -0 l 1
 173 -43 130 -45 102 -86 c 0
 95 -96 93 -104 93 -111 c 0
 93 -128 108 -138 127 -138 c 0
 170 -138 199 -93 207 -81 c 1
 208 -81 l 1
 269 -124 l 1
 246 -165 195 -226 117 -226 c 0
 50 -226 -4 -182 -4 -130 c 0
EndSplineSet
EndChar

StartChar: guilsinglleft
Encoding: 8249 8249 25
Width: 511
Flags: HW
TeX: 500 0
HStem: -0 21G<320 365.5>
VStem: 298 82<0.640625 66.5577 431.832 499.141>
LayerCount: 2
Fore
SplineSet
129 250 m 0
 129 268 227 320 298 472 c 0
 310 497 306 500 337 500 c 2
 359 500 l 2
 370 500 380 498 380 487 c 0
 380 480 347 372 225 250 c 1
 338 143 380 23 380 14 c 0
 380 3 372 0 359 -0 c 2
 330 -0 l 2
 310 0 309 4 298 28 c 0
 258 114 207 175 143 231 c 0
 136 237 129 242 129 250 c 0
EndSplineSet
EndChar

StartChar: guilsinglright
Encoding: 8250 8250 26
Width: 511
Flags: HW
TeX: 500 0
HStem: -0 21G<143.5 181.5>
VStem: 129 82<433.442 499.365>
LayerCount: 2
Fore
SplineSet
129 14 m 0
 129 21 162 128 284 250 c 1
 172 356 129 478 129 487 c 0
 129 498 138 500 150 500 c 2
 179 500 l 2
 199 500 200 496 211 472 c 0
 251 386 302 325 366 269 c 0
 371 264 380 258 380 250 c 0
 380 236 361 234 312 180 c 0
 226 85 211 17 198 5 c 0
 193 0 185 0 178 -0 c 2
 150 -0 l 2
 137 0 129 3 129 14 c 0
EndSplineSet
EndChar

StartChar: quotedblright
Encoding: 8221 8221 28
Width: 389
Flags: HW
TeX: 694 0
HStem: 561 133<19.6031 75.9175 268.823 323.924>
LayerCount: 2
Fore
SplineSet
3 628 m 0
 3 664 31 694 69 694 c 0
 119 694 152 644 152 569 c 0
 152 453 74 369 57 369 c 0
 46 369 10 405 10 415 c 0
 10 434 66 454 77 561 c 1
 73 561 l 2
 18 561 3 602 3 628 c 0
252 628 m 0
 252 663 278 694 317 694 c 0
 367 694 401 644 401 569 c 0
 401 453 322 369 305 369 c 0
 294 369 259 406 259 416 c 0
 259 434 315 453 326 561 c 1
 322 561 l 2
 267 561 252 603 252 628 c 0
EndSplineSet
EndChar

StartChar: endash
Encoding: 8211 8211 32
Width: 575
Flags: HW
TeX: 472 0
ItalicCorrection: 31
HStem: 254 76<0 575>
LayerCount: 2
Fore
SplineSet
0 254 m 1
 0 330 l 1
 575 330 l 1
 575 254 l 1
 0 254 l 1
EndSplineSet
EndChar

StartChar: emdash
Encoding: 8212 8212 33
Width: 1150
Flags: HW
TeX: 472 0
ItalicCorrection: 31
HStem: 254 76<0 1150>
LayerCount: 2
Fore
SplineSet
0 254 m 1
 0 330 l 1
 1150 330 l 1
 1150 254 l 1
 0 254 l 1
EndSplineSet
Substitution2: "Cyrillic substitutions subtable" emdash.cyr
AlternateSubs2: "Cyrillic alternatives subtable" emdash.cyr
EndChar

StartChar: dotlessi
Encoding: 305 305 35
Width: 325
Flags: HW
TeX: 472 0
HStem: 0 75<47 122 212 279> 391 76<51 120.668> 458 20G<51 212>
VStem: 122 90<75 388.32>
AnchorPoint: "below" 167 0 basechar 0
AnchorPoint: "above" 167 480 basechar 0
LayerCount: 2
Fore
SplineSet
47 0 m 1xb0
 47 75 l 1
 122 75 l 1
 122 352 l 2
 122 385 116 391 59 391 c 2
 51 391 l 1
 51 467 l 1xd0
 212 478 l 1
 212 75 l 1
 279 75 l 1
 279 0 l 1
 47 0 l 1xb0
EndSplineSet
EndChar

StartChar: dotlessj
Encoding: 567 567 36
Width: 357
Flags: HW
TeX: 472 194
HStem: -200 75<62 139.162> 391 76<79 159.484> 458 20G<79 250>
VStem: -41 103<-124 -78.2989> 161 89<-100.316 387.24>
AnchorPoint: "below" 96 -195 basechar 0
AnchorPoint: "above" 206 480 basechar 0
LayerCount: 2
Fore
SplineSet
-41 -120 m 0
 -41 -89 -17 -69 11 -69 c 0
 29 -69 62 -79 62 -124 c 1
 69 -124 76 -125 83 -125 c 0
 156 -125 161 -62 161 -37 c 2
 161 356 l 1
 160 385 150 391 91 391 c 2
 79 391 l 1
 79 467 l 1xd8
 250 478 l 1
 250 -15 l 2
 250 -22 251 -29 251 -37 c 0xb8
 251 -167 122 -200 58 -200 c 0
 -1 -200 -41 -163 -41 -120 c 0
EndSplineSet
EndChar

StartChar: ff
Encoding: 64256 64256 37
Width: 671
Flags: HW
TeX: 694 0
ItalicCorrection: 86
HStem: 0 75<40 115 204 279 359 434 523 617> 397 75<31 115 204 434 523 649> 625 75<255.961 413 547.659 628.489>
VStem: 115 89<75 397 472 586.528> 434 89<75 397 472 572>
LayerCount: 2
Fore
SplineSet
31 397 m 1
 31 472 l 1
 115 472 l 1
 115 537 l 2
 115 668 294 699 421 700 c 1
 424 700 l 2
 449 700 475 698 501 661 c 1
 514 669 564 700 658 700 c 0
 711 700 723 653 723 628 c 0
 723 595 699 577 672 577 c 0
 660 577 628 582 622 625 c 1
 547 624 520 589 520 536 c 0
 520 531 521 526 521 521 c 2
 521 472 l 1
 649 472 l 1
 649 397 l 1
 523 397 l 1
 523 75 l 1
 617 75 l 1
 617 0 l 1
 359 0 l 1
 359 75 l 1
 434 75 l 1
 434 397 l 1
 204 397 l 1
 204 75 l 1
 279 75 l 1
 279 0 l 1
 40 0 l 1
 40 75 l 1
 115 75 l 1
 115 397 l 1
 31 397 l 1
201 472 m 1
 434 472 l 1
 434 552 l 1
 436 572 l 1
 424 582 412 593 413 623 c 1
 411 625 382 625 365 625 c 0
 253 625 217 588 207 566 c 0
 202 556 201 545 201 534 c 2
 201 472 l 1
EndSplineSet
Ligature2: "Latin ligatures subtable" f f
EndChar

StartChar: fi
Encoding: 64257 64257 38
Width: 642
Flags: HW
TeX: 694 0
HStem: 0 75<40 115 204 279 359 434 523 598> 397 82<359 433.461> 397 75<31 115 204 359> 625 75<255.039 433.851>
VStem: 115 89<75 397 472 588.199> 408 108<556.088 621.673> 434 89<75 396.93>
LayerCount: 2
Fore
SplineSet
31 397 m 1
 31 472 l 1
 115 472 l 1
 115 527 l 2
 115 560 113 600 172 641 c 0
 252 697 388 700 427 700 c 0xbc
 500 700 516 635 516 603 c 0
 516 558 481 546 462 546 c 0
 432 546 408 568 408 600 c 0
 408 609 409 615 411 622 c 1
 396 624 382 625 367 625 c 0
 254 625 218 588 207 566 c 0
 202 556 201 544 201 533 c 2
 201 472 l 1
 359 472 l 1xbc
 359 479 l 1
 523 485 l 1
 523 75 l 1
 598 75 l 1
 598 0 l 1
 359 0 l 1
 359 75 l 1
 434 75 l 1
 434 368 l 1xda
 433 396 422 397 408 397 c 2xdc
 204 397 l 1
 204 75 l 1
 279 75 l 1
 279 0 l 1
 40 0 l 1
 40 75 l 1
 115 75 l 1
 115 397 l 1
 31 397 l 1
EndSplineSet
Ligature2: "Latin ligatures excepting Turkic subtable" f i
EndChar

StartChar: fl
Encoding: 64258 64258 39
Width: 642
Flags: HW
TeX: 694 0
HStem: 0 75<40 115 204 279 359 434 523 598> 397 75<31 115 204 434> 625 75<254.003 418.868>
VStem: 115 89<75 397 472 586.567> 434 89<75 397 472 623.072>
LayerCount: 2
Fore
SplineSet
31 397 m 1
 31 472 l 1
 115 472 l 1
 115 536 l 2
 115 670 302 700 425 700 c 0
 468 700 461 690 483 690 c 0
 491 690 495 692 523 695 c 1
 523 75 l 1
 598 75 l 1
 598 0 l 1
 359 0 l 1
 359 75 l 1
 434 75 l 1
 434 397 l 1
 204 397 l 1
 204 75 l 1
 279 75 l 1
 279 0 l 1
 40 0 l 1
 40 75 l 1
 115 75 l 1
 115 397 l 1
 31 397 l 1
201 472 m 1
 434 472 l 1
 434 585 l 1
 421 597 416 604 413 624 c 1
 398 625 382 625 367 625 c 2
 366 625 l 2
 250 625 217 588 207 566 c 0
 202 556 201 545 201 534 c 2
 201 472 l 1
EndSplineSet
Ligature2: "Latin ligatures subtable" f l
EndChar

StartChar: ffi
Encoding: 64259 64259 40
Width: 961
Flags: HW
TeX: 694 0
HStem: 0 75<40 115 204 279 359 434 523 598 678 753 842 917> 397 82<678 752.461> 397 75<31 115 204 434 523 678> 625 75<256.231 409 575.435 756.352>
VStem: 115 89<75 397 472 588.987> 434 89<75 397 472 572.54> 727 108<556.687 621.396> 753 89<75 396.93>
LayerCount: 2
Fore
SplineSet
31 397 m 1
 31 472 l 1
 115 472 l 1
 115 534 l 2
 115 569 121 588 140 611 c 0
 203 687 346 700 421 700 c 2
 423 700 l 2
 449 700 480 698 504 649 c 1
 529 663 600 700 745 700 c 0
 826 700 835 625 835 602 c 0
 835 567 810 546 781 546 c 0
 751 546 727 567 727 600 c 0
 727 604 727 609 731 622 c 1
 716 624 701 625 686 625 c 0
 573 625 537 588 526 566 c 0
 521 556 521 544 521 533 c 2
 521 472 l 1
 678 472 l 1xbe
 678 479 l 1
 842 485 l 1
 842 75 l 1
 917 75 l 1
 917 0 l 1
 678 0 l 1
 678 75 l 1
 753 75 l 1
 753 368 l 1xdd
 752 396 741 397 727 397 c 2xde
 523 397 l 1
 523 75 l 1
 598 75 l 1
 598 0 l 1
 359 0 l 1
 359 75 l 1
 434 75 l 1
 434 397 l 1
 204 397 l 1
 204 75 l 1
 279 75 l 1
 279 0 l 1
 40 0 l 1
 40 75 l 1
 115 75 l 1
 115 397 l 1
 31 397 l 1
201 472 m 1
 434 472 l 1
 434 551 l 1
 426 557 405 571 405 600 c 0xbc
 405 608 407 615 409 622 c 1
 394 624 380 625 365 625 c 0
 254 625 218 589 207 567 c 0
 202 556 201 544 201 533 c 2
 201 472 l 1
EndSplineSet
Ligature2: "Latin ligatures excepting Turkic subtable" ff i
Ligature2: "Latin ligatures excepting Turkic subtable" f f i
EndChar

StartChar: ffl
Encoding: 64260 64260 41
Width: 961
Flags: HW
TeX: 694 0
HStem: 0 75<40 115 204 279 359 434 523 598 678 753 842 917> 397 75<31 115 204 434 523 753> 625 75<253.499 413 573.7 737.868>
VStem: 115 89<75 397 472 588.801> 434 89<75 397 472 571.248> 753 89<75 397 472 623.072>
CounterMasks: 1 1c
LayerCount: 2
Fore
SplineSet
31 397 m 1
 31 472 l 1
 115 472 l 1
 115 534 l 2
 115 568 119 587 138 610 c 0
 169 649 249 700 422 700 c 0
 450 700 481 698 506 651 c 1
 537 667 603 700 747 700 c 0
 781 700 780 691 803 691 c 0
 811 691 815 692 842 695 c 1
 842 75 l 1
 917 75 l 1
 917 0 l 1
 678 0 l 1
 678 75 l 1
 753 75 l 1
 753 397 l 1
 523 397 l 1
 523 75 l 1
 598 75 l 1
 598 0 l 1
 359 0 l 1
 359 75 l 1
 434 75 l 1
 434 397 l 1
 204 397 l 1
 204 75 l 1
 279 75 l 1
 279 0 l 1
 40 0 l 1
 40 75 l 1
 115 75 l 1
 115 397 l 1
 31 397 l 1
201 472 m 1
 434 472 l 1
 434 518 l 2
 434 537 434 556 437 572 c 1
 421 585 413 596 413 618 c 2
 413 623 l 1
 396 625 379 625 362 625 c 0
 254 624 218 589 207 567 c 0
 202 556 201 544 201 533 c 2
 201 472 l 1
521 472 m 1
 753 472 l 1
 753 585 l 1
 740 597 735 604 732 624 c 1
 717 625 701 625 686 625 c 0
 573 625 536 588 526 566 c 0
 521 556 521 545 521 534 c 2
 521 472 l 1
EndSplineSet
Ligature2: "Latin ligatures subtable" ff l
Ligature2: "Latin ligatures subtable" f f l
EndChar

StartChar: uni2423
Encoding: 9251 9251 42
Width: 575
Flags: HW
TeX: 472 97
HStem: -97 82<140.519 431.82>
LayerCount: 2
Fore
SplineSet
47 63 m 1
 122 63 l 1
 146 -13 137 -15 212 -15 c 2
 367 -15 l 2
 434 -15 426 -14 451 63 c 1
 526 63 l 1
 476 -97 l 1
 97 -97 l 1
 47 63 l 1
EndSplineSet
EndChar

StartChar: exclam
Encoding: 33 33 43
Width: 361
Flags: HW
TeX: 694 0
HStem: 0 133<130.776 227.996> 685 20G<167.5 194>
VStem: 113 133<17.7761 114.996 343.656 687.564> 141 78<214.144 337.48>
LayerCount: 2
Fore
SplineSet
113 67 m 0
 113 101 141 133 180 133 c 0
 215 133 246 106 246 67 c 0
 246 28 214 0 180 0 c 0xe0
 140 0 113 33 113 67 c 0
113 638 m 0
 113 688 155 705 180 705 c 0
 208 705 246 686 246 639 c 0xe0
 246 628 245 617 244 606 c 2
 219 244 l 2xd0
 217 219 216 214 193 214 c 2
 170 214 l 2
 149 214 143 216 141 235 c 2xd0
 116 601 l 2
 115 613 113 626 113 638 c 0
EndSplineSet
EndChar

StartChar: quotedbl
Encoding: 34 34 44
Width: 575
Flags: HW
TeX: 694 0
HStem: 399 304<153 229.416 345.188 421>
VStem: 140 102<404.841 693.483> 332 103<402.99 693.586>
LayerCount: 2
Fore
SplineSet
140 649 m 0
 140 692 171 703 190 703 c 0
 208 703 242 692 242 648 c 0
 242 636 229 399 229 399 c 1
 153 399 l 1
 147 524 140 624 140 649 c 0
332 648 m 0
 332 691 365 703 384 703 c 0
 403 703 435 692 435 649 c 0
 435 640 425 483 421 399 c 1
 346 399 l 1
 346 399 332 636 332 648 c 0
EndSplineSet
EndChar

StartChar: numbersign
Encoding: 35 35 45
Width: 958
Flags: HW
TeX: 694 194
HStem: 94 75<67.4277 265 368 515 618 889.047> 330 76<67.9532 338 441 588 691 889.202> 674 20G<461.5 488.5 711.5 738.5>
VStem: 191 77<-189.447 -90.4883> 442 76<-189.206 -89.5312 602.731 688.594> 687 78<587.521 688.787>
DStem2: 265 94 344 94 0.293252 0.956035<-240.721 0 101.908 247.032 349.895 588.969> 515 94 594 94 0.293728 0.955889<-241.139 0 101.946 247.032 349.934 589.006>
LayerCount: 2
Fore
SplineSet
64 131 m 0
 64 142 68 169 109 169 c 2
 289 169 l 1
 338 330 l 1
 116 330 l 2
 107 330 97 330 88 333 c 0
 73 338 64 353 64 368 c 0
 64 404 100 406 112 406 c 2
 362 406 l 1
 369 431 377 456 437 654 c 0
 439 660 445 694 478 694 c 0
 499 694 515 676 515 657 c 0
 515 640 441 406 441 406 c 1
 612 406 l 1
 619 431 627 456 687 654 c 0
 689 660 695 694 728 694 c 0
 749 694 765 676 765 657 c 0
 765 640 691 406 691 406 c 1
 838 406 l 2
 846 406 854 407 862 405 c 0
 877 402 893 388 893 368 c 0
 893 358 889 330 848 330 c 2
 667 330 l 1
 618 169 l 1
 841 169 l 2
 850 169 859 170 868 167 c 0
 883 162 893 146 893 131 c 0
 893 95 857 94 845 94 c 2
 594 94 l 1
 587 69 579 44 518 -157 c 0
 512 -174 502 -194 479 -194 c 0
 455 -194 442 -173 442 -160 c 0
 442 -131 478 -36 515 94 c 1
 344 94 l 1
 337 69 330 43 268 -158 c 0
 263 -172 254 -194 229 -194 c 0
 204 -194 191 -173 191 -158 c 0
 191 -137 234 -16 265 94 c 1
 119 94 l 2
 111 94 103 93 95 95 c 0
 80 98 64 111 64 131 c 0
368 169 m 1
 539 169 l 1
 588 330 l 1
 417 330 l 1
 368 169 l 1
EndSplineSet
EndChar

StartChar: dollar
Encoding: 36 36 46
Width: 575
Flags: HW
TeX: 750 55
HStem: -3 76<193.635 249 324 373.914> 622 76<190.911 249 324 385.408> 730 20G<249 324>
VStem: 63 103<154.469 238.701> 63 83<465.208 579.422> 249 75<-55 -0.90802 73 303 420 622 695.71 750> 407 103<470.299 553.851> 427 83<121.182 251.458>
LayerCount: 2
Fore
SplineSet
63 192 m 0
 63 236 96 248 115 248 c 0
 142 248 166 228 166 197 c 0xf5
 166 174 155 164 145 154 c 1
 157 122 180 85 249 73 c 1
 249 320 l 1
 140 341 63 410 63 510 c 0
 63 601 126 685 249 698 c 1
 249 750 l 1
 324 750 l 1
 324 698 l 1
 489 676 510 567 510 516 c 0xee
 510 472 478 461 459 461 c 0
 431 461 407 481 407 512 c 0xee
 407 537 425 551 428 554 c 1
 413 583 391 611 324 622 c 1
 324 403 l 1
 451 379 510 285 510 199 c 0
 510 151 492 21 324 -3 c 1
 324 -55 l 1
 249 -55 l 1
 249 -3 l 1
 84 16 63 143 63 192 c 0
146 521 m 0xec
 146 481 178 436 249 420 c 1
 249 622 l 1
 155 604 146 544 146 521 c 0xec
324 73 m 1
 422 95 427 167 427 187 c 0xe5
 427 233 397 284 325 303 c 1
 324 268 l 1
 324 73 l 1
EndSplineSet
EndChar

StartChar: percent
Encoding: 37 37 47
Width: 958
Flags: HW
TeX: 750 55
HStem: -55 75<685.481 786.109> 271 76<684.622 786.05> 347 76<173.694 274.955> 575 71<421.61 621.436> 674 76<173.815 275.906>
VStem: 63 85<450.816 646.726> 311 72<460.337 606.94> 574 85<47.5993 243.693> 822 71<57.3821 233.586>
DStem2: 188 22 220 -35 0.611899 0.790936<-53.9019 707.697 805.489 807.051>
LayerCount: 2
Fore
SplineSet
63 549 m 0
 63 681 137 750 225 750 c 0
 269 750 292 735 323 715 c 0
 374 682 455 646 543 646 c 0
 628 646 688 678 728 720 c 0
 735 727 747 749 767 749 c 0
 782 749 799 739 797 711 c 1
 800 707 803 704 803 699 c 0
 803 679 739 631 731 623 c 0
 723 614 717 605 657 528 c 2
 220 -35 l 2
 214 -43 204 -55 189 -55 c 0
 173 -55 160 -41 160 -25 c 0
 160 -14 163 -10 188 22 c 2
 622 581 l 1
 598 577 573 575 548 575 c 0
 480 575 427 591 378 608 c 1
 381 589 383 569 383 548 c 0
 383 425 318 347 225 347 c 0
 138 347 63 415 63 549 c 0
148 544 m 0
 148 481 163 423 225 423 c 0
 259 423 311 449 311 549 c 0
 311 647 259 674 225 674 c 0
 154 674 148 602 148 544 c 0
574 147 m 0
 574 277 647 347 736 347 c 0
 820 347 893 280 893 146 c 0
 893 10 819 -55 737 -55 c 0
 661 -55 574 -1 574 147 c 0
659 141 m 0
 659 78 674 20 736 20 c 0
 770 20 822 46 822 146 c 0
 822 244 770 271 736 271 c 0
 665 271 659 199 659 141 c 0
EndSplineSet
EndChar

StartChar: ampersand
Encoding: 38 38 48
Width: 897
Flags: HW
TeX: 694 0
HStem: -11 76<199.12 371.167 574.252 737.043> 397 75<577 650 715.386 836> 630 75<291.861 391.281>
VStem: 47 98<113.503 225.664> 182 81<419.805 601.153> 414 72<499.877 608.03> 758 72<86.3765 125>
LayerCount: 2
Fore
SplineSet
47 160 m 0
 47 251 125 295 148 311 c 0
 170 326 192 342 215 357 c 1
 195 412 182 456 182 518 c 0
 182 625 258 705 348 705 c 0
 439 705 486 617 486 548 c 0
 486 506 465 435 321 340 c 1
 361 268 425 199 475 153 c 1
 554 237 576 278 650 397 c 1
 577 397 l 1
 577 472 l 1
 836 472 l 1
 836 397 l 1
 728 397 l 1
 637 241 574 163 525 114 c 1
 565 90 608 65 668 65 c 0
 687 65 751 69 758 125 c 1
 830 125 l 1
 826 36 749 -11 665 -11 c 0
 550 -11 479 54 460 54 c 0
 443 54 377 -11 257 -11 c 0
 132 -11 47 69 47 160 c 0
145 169 m 0
 145 106 210 65 284 65 c 0
 333 65 368 79 407 100 c 1
 361 139 298 205 249 288 c 1
 247 288 l 1
 189 247 145 224 145 169 c 0
263 540 m 0
 263 488 277 444 288 409 c 1
 305 420 414 493 414 549 c 0
 414 582 392 630 346 630 c 0
 313 630 263 604 263 540 c 0
EndSplineSet
EndChar

StartChar: quoteright
Encoding: 8217 8217 49
Width: 319
Flags: HW
TeX: 694 0
HStem: 561 133<108.603 164.918>
LayerCount: 2
Fore
SplineSet
92 628 m 0
 92 664 120 694 158 694 c 0
 208 694 241 644 241 569 c 0
 241 456 165 369 146 369 c 0
 135 369 99 405 99 415 c 0
 99 432 158 460 166 561 c 1
 162 561 l 2
 107 561 92 602 92 628 c 0
EndSplineSet
EndChar

StartChar: parenleft
Encoding: 40 40 50
Width: 447
Flags: HW
TeX: 750 250
HStem: 730 20G<323 365>
VStem: 90 88<69.4047 426.283>
LayerCount: 2
Fore
SplineSet
90 250 m 0
 90 460 170 633 297 736 c 0
 309 745 315 750 331 750 c 2
 359 750 l 2
 371 750 381 748 381 739 c 0
 381 717 178 608 178 250 c 0
 178 -46 323 -182 359 -214 c 0
 361 -215 381 -231 381 -240 c 0
 381 -250 368 -250 359 -250 c 2
 332 -250 l 2
 318 -250 314 -250 298 -237 c 0
 152 -120 90 67 90 250 c 0
EndSplineSet
EndChar

StartChar: parenright
Encoding: 41 41 51
Width: 447
Flags: HW
TeX: 750 250
HStem: 730 20G<76 120.5>
VStem: 268 88<69.127 429.4>
LayerCount: 2
Fore
SplineSet
65 -239 m 0
 65 -220 131 -195 194 -76 c 0
 246 24 268 138 268 250 c 0
 268 587 84 713 70 729 c 0
 66 734 65 738 65 739 c 0
 65 743 69 750 83 750 c 2
 114 750 l 2
 127 750 132 750 148 737 c 0
 294 620 356 433 356 250 c 0
 356 67 294 -120 148 -237 c 0
 136 -247 130 -251 114 -251 c 0
 110 -251 105 -250 101 -250 c 2
 86 -250 l 2
 77 -250 65 -249 65 -239 c 0
EndSplineSet
EndChar

StartChar: asterisk
Encoding: 42 42 52
Width: 575
Flags: HW
TeX: 750 0
HStem: 376 80<422.295 493.961> 572 80<79.8066 150.783> 729 20G<275.5 293>
VStem: 247 79<282.712 460.857 566.143 744.781>
LayerCount: 2
Fore
SplineSet
75 416 m 0
 75 446 89 447 231 514 c 1
 218 519 206 526 107 572 c 0
 94 578 75 587 75 611 c 0
 75 634 93 652 113 652 c 0
 128 652 126 652 259 561 c 1
 250 672 247 700 247 711 c 0
 247 732 265 749 286 749 c 0
 300 749 326 741 326 709 c 0
 326 692 321 659 314 561 c 1
 441 648 444 652 460 652 c 2
 461 652 l 1
 479 651 499 635 499 611 c 0
 499 581 486 581 343 514 c 1
 356 509 367 502 466 456 c 0
 479 450 499 441 499 417 c 0
 499 394 480 376 460 376 c 0
 445 376 439 381 314 466 c 1
 320 383 326 344 326 322 c 0
 326 283 298 278 287 278 c 0
 264 278 247 298 247 316 c 0
 247 327 250 355 259 466 c 1
 126 375 129 376 113 376 c 0
 95 376 75 392 75 416 c 0
EndSplineSet
EndChar

StartChar: plus
Encoding: 43 43 53
Width: 894
Flags: HW
TeX: 633 133
HStem: 212 76<67.3223 409 484 825.29>
VStem: 409 75<-129.862 212 288 629.77>
LayerCount: 2
Fore
SplineSet
64 250 m 0
 64 285 99 288 112 288 c 2
 409 288 l 1
 409 580 l 2
 409 606 415 633 447 633 c 0
 482 633 484 599 484 585 c 2
 484 288 l 1
 776 288 l 2
 805 288 829 281 829 250 c 0
 829 239 824 222 804 215 c 0
 795 212 786 212 777 212 c 2
 484 212 l 1
 484 -80 l 2
 484 -106 479 -133 447 -133 c 0
 412 -133 409 -100 409 -86 c 2
 409 212 l 1
 113 212 l 2
 99 212 64 214 64 250 c 0
EndSplineSet
EndChar

StartChar: comma
Encoding: 44 44 54
Width: 319
Flags: HW
TeX: 133 194
HStem: 0 133<109.299 160.238>
LayerCount: 2
Fore
SplineSet
92 67 m 0
 92 102 119 133 158 133 c 0
 206 133 238 86 238 9 c 0
 238 -102 164 -192 146 -192 c 0
 134 -192 99 -154 99 -145 c 0
 99 -130 157 -95 162 0 c 1
 105 1 92 44 92 67 c 0
EndSplineSet
EndChar

StartChar: hyphen
Encoding: 45 45 55
Width: 383
Flags: HW
TeX: 472 0
HStem: 192 88<12 318>
VStem: 12 306<192 280>
LayerCount: 2
Fore
SplineSet
12 192 m 1
 12 280 l 1
 318 280 l 1
 318 192 l 1
 12 192 l 1
EndSplineSet
EndChar

StartChar: period
Encoding: 46 46 56
Width: 319
Flags: HW
TeX: 133 0
HStem: 0 133<110.457 206.646>
VStem: 92 133<18.457 115.701>
LayerCount: 2
Fore
SplineSet
92 67 m 0
 92 106 125 133 159 133 c 0
 193 133 225 106 225 67 c 0
 225 28 192 0 159 0 c 0
 119 0 92 33 92 67 c 0
EndSplineSet
EndChar

StartChar: slash
Encoding: 47 47 57
Width: 575
Flags: HW
TeX: 750 250
HStem: 729 20G<458.5 482.5>
DStem2: 73 -179 146 -200 0.373561 0.927606<-33.403 989.307>
LayerCount: 2
Fore
SplineSet
64 -212 m 0
 64 -199 72 -182 73 -179 c 2
 428 703 l 2
 434 719 444 749 473 749 c 0
 492 749 510 732 510 712 c 0
 510 702 506 693 502 684 c 2
 146 -200 l 2
 139 -217 131 -249 101 -249 c 0
 82 -249 64 -232 64 -212 c 0
EndSplineSet
EndChar

StartChar: zero
Encoding: 48 48 58
Width: 575
Flags: HW
TeX: 694 0
HStem: -11 76<216.112 361.221> 630 75<210.217 364.388>
VStem: 44 98<155.696 536.797> 432 97<157.26 533.53>
LayerCount: 2
Fore
SplineSet
44 342 m 0
 44 466 54 641 203 692 c 0
 229 701 257 705 286 705 c 0
 521 705 529 465 529 343 c 0
 529 220 519 52 373 3 c 0
 346 -6 317 -11 287 -11 c 0
 59 -11 44 205 44 342 c 0
142 326 m 1
 143 259 145 154 189 106 c 0
 214 79 251 65 287 65 c 0
 324 65 363 80 388 111 c 0
 428 161 432 265 432 330 c 2
 432 390 l 2
 432 482 427 630 287 630 c 0
 244 630 202 612 178 578 c 0
 145 530 143 451 142 380 c 1
 142 326 l 1
EndSplineSet
Substitution2: "LGC old numerals subtable" zerooldstyle
EndChar

StartChar: one
Encoding: 49 49 59
Width: 575
Flags: HW
TeX: 694 0
HStem: 0 75<111 255 347 490> 560 76<105 227.349> 685 20G<297 334>
VStem: 255 92<75 594>
LayerCount: 2
Fore
SplineSet
105 560 m 1
 105 636 l 1
 271 639 277 705 317 705 c 2
 321 705 l 2
 347 705 347 688 347 672 c 2
 347 75 l 1
 490 75 l 1
 490 0 l 1
 111 0 l 1
 111 75 l 1
 255 75 l 1
 255 594 l 1
 235 584 195 561 105 560 c 1
EndSplineSet
Substitution2: "LGC old numerals subtable" oneoldstyle
EndChar

StartChar: two
Encoding: 50 50 60
Width: 575
Flags: HW
TeX: 694 0
HStem: 0 95<172 432.429> 630 75<173.189 332.594>
VStem: 57 106<473.073 560.116> 418 99<401.798 555.297> 442 75<123.84 172>
LayerCount: 2
Fore
SplineSet
57 0 m 1xe8
 57 19 57 38 57 57 c 0
 57 73 65 78 239 234 c 0
 318 305 418 377 418 483 c 0
 418 584 318 630 232 630 c 0
 177 630 153 593 140 561 c 1
 147 555 163 543 163 516 c 0
 163 484 139 463 110 463 c 0
 91 463 57 475 57 520 c 0
 57 614 144 705 272 705 c 0
 406 705 517 618 517 486 c 0xf0
 517 375 434 313 342 240 c 0
 307 212 290 198 172 95 c 1
 375 95 l 1
 427 96 l 1
 435 121 438 146 442 172 c 1
 517 172 l 1
 492 0 l 1
 57 0 l 1xe8
EndSplineSet
Substitution2: "LGC old numerals subtable" twooldstyle
EndChar

StartChar: three
Encoding: 51 51 61
Width: 575
Flags: HW
TeX: 694 0
HStem: -11 70<177.502 368.072> 337 78<191.127 328.714> 641 64<188.475 366.095>
VStem: 47 90<92.2829 152.836> 79 92<572.699 622.071> 397 97<480.529 610.672> 426 100<114.651 279.837>
LayerCount: 2
Fore
SplineSet
47 151 m 0
 47 196 82 208 101 208 c 0
 131 208 155 186 155 154 c 0
 155 129 140 115 137 112 c 1
 137 110 l 1
 143 104 179 59 284 59 c 0
 398 59 426 135 426 197 c 0
 426 267 395 337 274 337 c 2xf2
 227 337 l 2
 193 337 191 339 191 363 c 2
 191 375 l 2
 191 377 190 380 190 385 c 0
 190 412 203 415 224 415 c 2
 244 415 l 2
 262 415 285 417 310 427 c 0
 354 444 397 489 397 551 c 0
 397 587 381 641 284 641 c 2
 283 641 l 1
 216 640 189 623 171 610 c 1
 171 609 l 1
 180 597 185 587 185 572 c 0
 185 540 159 520 132 520 c 0
 103 520 79 541 79 575 c 0
 79 653 165 704 285 705 c 1
 286 705 l 2
 450 705 494 612 494 550 c 0xec
 494 445 409 392 383 375 c 1
 482 347 526 273 526 197 c 0
 526 99 458 -11 286 -11 c 0
 154 -11 47 54 47 151 c 0
EndSplineSet
Substitution2: "LGC old numerals subtable" threeoldstyle
EndChar

StartChar: four
Encoding: 52 52 62
Width: 575
Flags: HW
TeX: 694 0
HStem: 0 75<226 337 427 539> 185 76<121 337 427 542> 675 20G<346.5 404.5>
VStem: 343 84<75 185 261 623>
LayerCount: 2
Fore
SplineSet
31 185 m 1
 31 205 31 225 31 245 c 0
 31 263 37 269 43 278 c 2
 315 665 l 2
 333 690 335 695 358 695 c 0
 370 695 382 695 394 695 c 0
 415 695 427 692 427 665 c 2
 427 261 l 1
 542 261 l 1
 542 185 l 1
 427 185 l 1
 427 75 l 1
 539 75 l 1
 539 0 l 1
 226 0 l 1
 226 75 l 1
 337 75 l 1
 337 185 l 1
 31 185 l 1
121 261 m 1
 343 261 l 1
 343 623 l 1
 330 556 231 419 121 261 c 1
EndSplineSet
Substitution2: "LGC old numerals subtable" fouroldstyle
EndChar

StartChar: five
Encoding: 53 53 63
Width: 575
Flags: HW
TeX: 694 0
HStem: -11 70<181.225 357.474> 364 76<209.607 370.236> 584 87<173.967 397.039> 684 20G<101.5 116.5 452 465.5>
VStem: 57 105<115.148 197.34> 96 76<400 590> 419 98<122.238 312.614>
LayerCount: 2
Fore
SplineSet
57 152 m 0
 57 188 82 207 109 207 c 0
 138 207 162 186 162 155 c 0xfa
 162 131 147 118 144 115 c 1
 161 92 193 59 267 59 c 0
 342 59 419 90 419 215 c 0
 419 294 395 364 298 364 c 0
 195 364 178 305 160 296 c 0
 152 292 141 293 132 293 c 2
 128 293 l 2
 106 293 96 293 96 326 c 2
 96 674 l 2
 96 686 95 704 108 704 c 0
 125 704 180 671 284 671 c 0xf6
 388 671 445 704 459 704 c 0
 472 704 472 689 472 676 c 2
 472 653 l 2
 472 635 469 632 447 623 c 0
 402 604 329 584 250 584 c 0
 224 584 198 585 172 590 c 1
 172 400 l 1xf6
 207 423 246 440 301 440 c 0
 430 440 517 348 517 215 c 0
 517 76 415 -11 269 -11 c 0
 141 -11 57 68 57 152 c 0
EndSplineSet
Substitution2: "LGC old numerals subtable" fiveoldstyle
EndChar

StartChar: six
Encoding: 54 54 64
Width: 575
Flags: HW
TeX: 694 0
HStem: -11 70<216.947 371.036> 396 75<236.002 378.012> 641 64<262.057 406.965>
VStem: 47 103<163.316 491.488> 408 89<584.699 633.281> 428 98<118.799 342.554>
LayerCount: 2
Fore
SplineSet
47 345 m 0
 47 624 225 705 349 705 c 0
 447 705 497 652 497 588 c 0
 497 547 466 533 446 533 c 0
 418 533 394 554 394 584 c 0
 394 599 399 609 408 621 c 1
 408 622 l 1xf8
 398 629 384 641 349 641 c 0
 228 641 147 542 147 381 c 1
 163 401 224 471 339 471 c 0
 405 471 444 445 475 405 c 0
 516 352 526 301 526 231 c 0xf4
 526 138 499 91 455 50 c 0
 432 28 389 -11 290 -11 c 0
 184 -11 131 48 113 72 c 0
 51 155 47 271 47 345 c 0
150 250 m 0
 150 167 178 59 290 59 c 0
 338 59 371 72 396 104 c 0
 424 139 427 174 427 221 c 0
 427 227 428 235 428 245 c 0xf4
 428 359 375 396 295 396 c 0
 210 396 150 330 150 250 c 0
EndSplineSet
Substitution2: "LGC old numerals subtable" sixoldstyle
EndChar

StartChar: seven
Encoding: 55 55 65
Width: 575
Flags: HW
TeX: 694 0
HStem: -11 21G<248.5 262.5> 600 95<167.591 448> 700 20G<89.0707 169>
VStem: 63 75<522 569.793> 92 75<696.1 720> 203 101<-0.875 216.268>
DStem2: 335 457 400 430 0.605078 0.796166<-95.1103 182.226>
LayerCount: 2
Fore
SplineSet
63 522 m 1xf4
 92 720 l 1
 167 720 l 1
 171 696 179 695 216 695 c 2
 238 695 l 2
 259 695 249 694 345 694 c 2
 558 695 l 1xec
 558 648 l 2
 558 628 550 622 539 607 c 0
 427 466 413 448 400 430 c 0
 289 271 312 54 304 25 c 0
 296 -3 270 -11 255 -11 c 0
 242 -11 203 -4 203 49 c 0
 205 177 238 326 335 457 c 0
 346 472 358 486 448 600 c 1
 210 600 l 1
 153 599 l 1
 145 574 142 548 138 522 c 1
 63 522 l 1xf4
EndSplineSet
Substitution2: "LGC old numerals subtable" sevenoldstyle
EndChar

StartChar: eight
Encoding: 56 56 66
Width: 575
Flags: HW
TeX: 694 0
HStem: -11 70<193.431 384.613> 641 65<198.979 370.141>
VStem: 47 87<111.85 251.232> 79 81<502.892 605.507> 413 81<479.459 600.59> 439 87<109.094 229.012>
LayerCount: 2
Fore
SplineSet
47 179 m 0xe4
 47 298 138 349 189 377 c 1
 154 397 79 439 79 534 c 0xd0
 79 637 161 706 286 706 c 0
 394 706 494 657 494 541 c 0xd8
 494 442 414 396 379 376 c 1
 428 347 526 300 526 185 c 0
 526 68 434 -11 286 -11 c 0
 159 -11 47 47 47 179 c 0xe4
134 180 m 0xe4
 134 94 208 59 286 59 c 0
 404 59 439 121 439 169 c 0
 439 237 388 257 267 330 c 1
 135 284 134 199 134 180 c 0xe4
160 553 m 0
 160 500 201 484 305 421 c 1
 350 439 413 471 413 541 c 0
 413 612 351 641 286 641 c 0xd8
 190 641 160 592 160 553 c 0
EndSplineSet
Substitution2: "LGC old numerals subtable" eightoldstyle
EndChar

StartChar: nine
Encoding: 57 57 67
Width: 575
Flags: HW
TeX: 694 0
HStem: -11 70<167.778 324.683> 223 76<197.142 338.199> 641 64<205.726 358.2>
VStem: 47 98<353.235 576.14> 76 103<75.5603 151.794> 423 103<202.72 534.545>
LayerCount: 2
Fore
SplineSet
47 465 m 0xf4
 47 557 76 605 118 644 c 0
 163 686 214 705 289 705 c 0
 376 705 467 665 506 530 c 0
 511 513 526 459 526 354 c 0
 526 64 353 -11 237 -11 c 0
 114 -11 76 54 76 107 c 0
 76 142 100 161 127 161 c 0
 156 161 179 140 179 110 c 0xec
 179 96 175 87 167 75 c 1
 179 68 195 59 237 59 c 0
 313 59 418 96 427 314 c 1
 387 267 328 223 234 223 c 0
 168 223 129 250 98 290 c 0
 56 344 47 395 47 465 c 0xf4
145 440 m 0xf4
 145 381 167 299 276 299 c 0
 368 299 423 369 423 447 c 0
 423 530 396 641 289 641 c 0
 240 641 207 628 180 596 c 0
 148 558 146 517 146 473 c 2
 146 455 l 2
 146 452 145 447 145 440 c 0xf4
EndSplineSet
Substitution2: "LGC old numerals subtable" nineoldstyle
EndChar

StartChar: less
Encoding: 60 60 70
Width: 894
Flags: HW
TeX: 604 104
DStem2: 134 293 215 250 0.887822 0.460188<52.1255 702.2> 215 250 135 206 0.887804 -0.460222<0 649.912>
LayerCount: 2
Fore
SplineSet
96 250 m 0
 96 276 121 286 134 293 c 2
 734 604 l 2
 742 608 751 612 760 612 c 0
 780 612 797 594 797 574 c 0
 797 548 772 539 759 532 c 2
 215 250 l 1
 228 244 239 236 252 230 c 2
 759 -32 l 2
 768 -37 797 -48 797 -75 c 0
 797 -95 780 -112 760 -112 c 0
 747 -112 738 -106 612 -41 c 2
 135 206 l 2
 121 213 96 224 96 250 c 0
EndSplineSet
EndChar

StartChar: equal
Encoding: 61 61 71
Width: 894
Flags: HW
TeX: 398 -101
HStem: 94 75<67.4277 825.572> 330 76<67.4805 825.203>
LayerCount: 2
Fore
SplineSet
64 131 m 0
 64 141 68 169 109 169 c 2
 784 169 l 2
 825 169 829 141 829 132 c 0
 829 117 822 94 780 94 c 2
 114 94 l 2
 71 94 64 116 64 131 c 0
EndSplineSet
Refer: 296 8722 S 1 0 0 1 0 118 2
EndChar

StartChar: greater
Encoding: 62 62 72
Width: 894
Flags: HW
TeX: 604 104
DStem2: 758 293 640 269 0.888113 -0.459625<-701.315 -51.2852> 678 250 159 -104 0.887822 0.460188<-650.075 0>
LayerCount: 2
Fore
SplineSet
96 -75 m 0
 96 -49 120 -39 133 -32 c 2
 678 250 l 1
 665 256 652 263 640 269 c 2
 133 532 l 2
 120 539 96 548 96 574 c 0
 96 594 113 612 133 612 c 0
 142 612 151 607 159 603 c 2
 758 293 l 2
 771 286 797 276 797 250 c 0
 797 224 774 215 759 207 c 2
 159 -104 l 2
 151 -108 142 -112 133 -112 c 0
 113 -112 96 -95 96 -75 c 0
EndSplineSet
EndChar

StartChar: question
Encoding: 63 63 73
Width: 543
Flags: HW
TeX: 694 0
HStem: 0 133<205.776 302.996> 625 75<173.288 354.798>
VStem: 63 103<511.433 588.854> 188 133<17.7761 114.996> 217 76<214.18 340.906> 380 98<506.299 604.398>
LayerCount: 2
Fore
SplineSet
63 555 m 0
 63 632 139 700 259 700 c 0
 446 700 478 612 478 553 c 0
 478 522 468 489 446 464 c 0
 408 421 293 383 293 258 c 2
 293 244 l 2xec
 293 218 292 214 263 214 c 2
 241 214 l 2
 219 214 217 224 217 238 c 2
 217 260 l 2
 217 302 223 412 336 490 c 0
 353 502 380 516 380 555 c 0
 380 618 320 625 267 625 c 2
 264 625 l 2
 197 625 172 607 152 589 c 1
 154 586 166 575 166 553 c 0
 166 522 142 502 115 502 c 0
 87 502 63 522 63 555 c 0
188 67 m 0
 188 101 216 133 255 133 c 0
 290 133 321 106 321 67 c 0
 321 28 289 0 255 0 c 0xf4
 215 0 188 33 188 67 c 0
EndSplineSet
EndChar

StartChar: at
Encoding: 64 64 74
Width: 894
Flags: HW
TeX: 694 0
HStem: -5 75<314.741 635.513> 78 28<777.763 826.659> 120 76<367.616 528.753 657.694 737.33> 499 75<367.483 529.344> 625 75<314.719 578.925>
VStem: 63 72<236.706 457.14> 217 87<263.286 434.014> 588 88<249.076 445.665> 758 72<227.047 456.161>
LayerCount: 2
Fore
SplineSet
63 347 m 0
 63 556 212 700 445 700 c 2
 446 700 l 2
 684 700 830 554 830 347 c 0
 830 219 769 121 679 121 c 0
 638 121 615 145 599 174 c 1
 587 165 537 120 445 120 c 0
 309 120 217 210 217 348 c 0
 217 482 307 574 446 574 c 0
 535 574 603 534 638 472 c 1
 651 472 l 2
 667 472 676 469 676 447 c 2
 676 232 l 2
 676 219 678 197 703 197 c 0
 747 197 758 262 758 340 c 0
 758 525 627 625 448 625 c 0
 248 625 135 505 135 347 c 0
 135 232 202 70 452 70 c 0
 631 70 726 106 768 106 c 2
 807 106 l 2
 818 106 828 103 828 96 c 0
 828 91 822 85 808 78 c 0
 679 15 549 -5 450 -5 c 0
 212 -5 63 135 63 347 c 0
304 347 m 0
 304 255 362 196 447 196 c 0
 533 196 588 254 588 309 c 2
 588 381 l 2
 588 454 519 499 447 499 c 0
 362 499 304 441 304 347 c 0
EndSplineSet
EndChar

StartChar: A
Encoding: 65 65 75
Width: 847
Flags: HW
TeX: 694 0
HStem: 0 75<40 125 206 259 565 618 720 805> 206 76<292 532> 675 20G<398 447.5>
DStem2: 125 75 206 75 0.38295 0.923769<31.0189 172.712 255.173 581.953> 479 656 429 537 0.383147 -0.923687<38.9872 365.766 448.227 589.92>
AnchorPoint: "ogonek" 685 0 basechar 0
AnchorPoint: "below" 422 0 basechar 0
AnchorPoint: "above" 421 705 basechar 0
LayerCount: 2
Fore
SplineSet
40 0 m 1
 40 75 l 1
 125 75 l 1
 370 666 l 2
 378 685 385 695 411 695 c 0
 418 695 425 695 432 695 c 0
 463 695 466 686 479 656 c 2
 720 75 l 1
 805 75 l 1
 805 0 l 1
 565 0 l 1
 565 75 l 1
 618 75 l 1
 564 206 l 1
 260 206 l 1
 206 75 l 1
 259 75 l 1
 259 0 l 1
 40 0 l 1
292 282 m 1
 532 282 l 1
 429 537 l 1
 412 586 l 1
 385 505 316 345 292 282 c 1
EndSplineSet
EndChar

StartChar: B
Encoding: 66 66 76
Width: 807
Flags: HW
TeX: 694 0
HStem: 0 75<75 153 245 571.487> 324 75<245 538.956> 619 76<75 153 245 556.568>
VStem: 153 92<75 324 399 619> 614 95<458.143 571.324> 644 98<135.502 261.5>
AnchorPoint: "below" 384 0 basechar 0
AnchorPoint: "above" 384 705 basechar 0
LayerCount: 2
Fore
SplineSet
75 0 m 1
 75 75 l 1
 153 75 l 1
 153 619 l 1
 75 619 l 1
 75 695 l 1
 446 695 l 2
 659 695 709 588 709 517 c 0xf8
 709 476 692 402 557 364 c 1
 647 351 742 297 742 191 c 0
 742 153 728 78 642 33 c 0
 582 2 520 0 468 0 c 2
 75 0 l 1
245 75 m 1
 441 75 l 2
 517 75 595 88 630 145 c 0
 643 166 644 184 644 194 c 0xf4
 644 237 621 324 454 324 c 2
 245 324 l 1
 245 75 l 1
245 399 m 1xf8
 421 399 l 2
 574 399 614 469 614 516 c 0
 614 576 557 607 502 616 c 0
 482 619 462 619 442 619 c 2
 245 619 l 1
 245 399 l 1xf8
EndSplineSet
EndChar

StartChar: C
Encoding: 67 67 77
Width: 831
Flags: HW
TeX: 694 0
HStem: -11 76<346.021 579.422> 630 75<345.094 570.587>
VStem: 63 100<232.065 461.735> 672 94<439.882 541.825> 689 76<160.006 247.875>
AnchorPoint: "below" 448 0 basechar 0
AnchorPoint: "above" 448 705 basechar 0
LayerCount: 2
Fore
SplineSet
63 348 m 0
 63 563 218 705 449 705 c 0
 552 705 622 667 677 620 c 1
 729 706 732 705 747 705 c 0xe8
 765 705 766 694 766 682 c 2
 766 458 l 2
 766 438 760 434 743 434 c 0
 742 434 739 435 738 435 c 2
 736 435 l 2
 668 435 705 435 672 507 c 0xf0
 652 550 595 630 478 630 c 0
 309 630 163 548 163 348 c 0
 163 121 342 65 480 65 c 0
 586 65 679 125 689 221 c 0
 692 244 693 248 717 248 c 2
 740 248 l 2
 758 248 765 246 765 226 c 0
 765 121 654 -11 448 -11 c 0
 247 -11 63 106 63 348 c 0
EndSplineSet
EndChar

StartChar: D
Encoding: 68 68 78
Width: 871
Flags: HW
TeX: 694 0
HStem: 0 75<74 152 247 554.093> 619 76<74 152 247 554.718>
VStem: 152 95<75 619> 708 98<223.343 471.94>
AnchorPoint: "below" 415 0 basechar 0
AnchorPoint: "above" 415 705 basechar 0
LayerCount: 2
Fore
SplineSet
74 0 m 1
 74 75 l 1
 152 75 l 1
 152 619 l 1
 74 619 l 1
 74 695 l 1
 434 695 l 2
 529 695 628 679 709 599 c 0
 776 532 806 436 806 342 c 0
 806 147 685 18 494 2 c 0
 474 0 454 0 434 0 c 2
 74 0 l 1
247 75 m 1
 418 75 l 1
 462 77 708 65 708 341 c 0
 708 564 568 619 417 619 c 2
 247 619 l 1
 247 75 l 1
EndSplineSet
EndChar

StartChar: E
Encoding: 69 69 79
Width: 733
Flags: HW
TeX: 694 0
HStem: 0 75<73 151 248 592.301> 322 75<248 410.831> 616 76<73 151 248 570.15>
VStem: 151 97<75 321 397 616> 414 75<228 318.697 399.826 490> 593 76<461 525.68> 625 76<209.658 257>
AnchorPoint: "ogonek" 387 0 basechar 0
AnchorPoint: "below" 387 0 basechar 0
AnchorPoint: "above" 387 705 basechar 0
LayerCount: 2
Fore
SplineSet
73 0 m 1xfa
 73 75 l 1
 151 75 l 1
 151 616 l 1
 73 616 l 1
 73 692 l 1
 644 692 l 1
 669 461 l 1
 593 461 l 1xfc
 577 604 574 608 538 612 c 0
 503 616 433 616 379 616 c 2
 248 616 l 1
 248 397 l 1
 305 397 l 2
 409 397 410 396 413 431 c 0
 414 448 414 465 414 482 c 2
 414 490 l 1
 489 490 l 1
 489 228 l 1
 414 228 l 1
 414 237 l 2
 414 306 412 316 391 319 c 0
 374 322 322 322 305 322 c 0
 286 322 267 321 248 321 c 1
 248 75 l 1
 402 75 l 2
 587 75 587 80 597 108 c 0
 607 136 614 182 625 257 c 1
 701 257 l 1
 663 0 l 1
 73 0 l 1xfa
EndSplineSet
EndChar

StartChar: F
Encoding: 70 70 80
Width: 701
Flags: HW
TeX: 694 0
HStem: 0 75<73 151 248 346> 308 75<248 404.396> 457 20G<408 483> 616 76<73 151 248 554.977>
VStem: 151 97<75 308 384 616> 408 75<215 305.117 386.686 477> 578 75<461 525.68>
AnchorPoint: "below" 363 0 basechar 0
AnchorPoint: "above" 363 705 basechar 0
LayerCount: 2
Fore
SplineSet
73 0 m 1
 73 75 l 1
 151 75 l 1
 151 616 l 1
 73 616 l 1
 73 692 l 1
 628 692 l 1
 653 461 l 1
 578 461 l 1
 572 514 564 589 550 603 c 0
 537 616 476 616 386 616 c 2
 248 616 l 1
 248 384 l 1
 266 384 285 383 303 383 c 0
 404 383 403 384 406 419 c 0
 407 438 408 458 408 477 c 1
 483 477 l 1
 483 215 l 1
 408 215 l 1
 408 308 408 305 360 307 c 0
 341 308 322 308 303 308 c 2
 248 308 l 1
 248 75 l 1
 346 75 l 1
 346 0 l 1
 73 0 l 1
EndSplineSet
EndChar

StartChar: G
Encoding: 71 71 81
Width: 899
Flags: HW
TeX: 694 0
HStem: -11 76<339.62 645.058> 215 75<524 668 766 846> 630 75<344.959 571.907>
VStem: 63 100<230.89 461.252> 668 98<86.8701 215 449.443 547.452>
AnchorPoint: "below" 458 0 basechar 0
AnchorPoint: "above" 448 705 basechar 0
LayerCount: 2
Fore
SplineSet
63 347 m 0
 63 564 220 705 449 705 c 0
 559 705 628 662 677 620 c 1
 729 706 732 705 747 705 c 0
 764 705 766 694 766 682 c 2
 766 458 l 2
 766 438 760 434 743 434 c 0
 742 434 739 435 738 435 c 2
 735 435 l 2
 670 435 704 435 674 504 c 0
 655 548 596 630 479 630 c 0
 306 630 163 546 163 348 c 0
 163 180 263 89 414 69 c 0
 443 65 473 65 503 65 c 0
 649 66 668 89 668 137 c 2
 668 215 l 1
 524 215 l 1
 524 290 l 1
 846 290 l 1
 846 215 l 1
 766 215 l 1
 766 32 l 2
 766 10 763 2 754 2 c 0
 742 2 724 20 705 40 c 1
 670 12 615 -11 458 -11 c 0
 177 -11 63 168 63 347 c 0
EndSplineSet
EndChar

StartChar: H
Encoding: 72 72 82
Width: 889
Flags: HW
TeX: 694 0
HStem: 0 75<73 151 248 326 562 640 738 815> 324 75<248 640> 619 76<73 151 248 326 562 640 738 815>
VStem: 151 97<75 324 399 619> 640 98<75 324 399 619>
AnchorPoint: "below" 444 0 basechar 0
AnchorPoint: "above" 444 705 basechar 0
LayerCount: 2
Fore
SplineSet
73 0 m 1
 73 75 l 1
 151 75 l 1
 151 619 l 1
 73 619 l 1
 73 695 l 1
 326 695 l 1
 326 619 l 1
 248 619 l 1
 248 399 l 1
 640 399 l 1
 640 619 l 1
 562 619 l 1
 562 695 l 1
 815 695 l 1
 815 619 l 1
 738 619 l 1
 738 75 l 1
 815 75 l 1
 815 0 l 1
 562 0 l 1
 562 75 l 1
 640 75 l 1
 640 324 l 1
 248 324 l 1
 248 75 l 1
 326 75 l 1
 326 0 l 1
 73 0 l 1
EndSplineSet
EndChar

StartChar: I
Encoding: 73 73 83
Width: 400
Flags: HW
TeX: 694 0
HStem: 0 75<69 151 249 330> 619 76<69 151 249 330>
VStem: 151 98<75 619>
AnchorPoint: "ogonek" 200 0 basechar 0
AnchorPoint: "below" 200 0 basechar 0
AnchorPoint: "above" 200 705 basechar 0
LayerCount: 2
Fore
SplineSet
69 0 m 1
 69 75 l 1
 151 75 l 1
 151 619 l 1
 69 619 l 1
 69 695 l 1
 330 695 l 1
 330 619 l 1
 249 619 l 1
 249 75 l 1
 330 75 l 1
 330 0 l 1
 69 0 l 1
EndSplineSet
EndChar

StartChar: J
Encoding: 74 74 84
Width: 583
Flags: HW
TeX: 694 0
HStem: -11 76<165.051 323.396> 619 76<250 351 446 504>
VStem: 66 108<81.5603 158.929> 351 95<94.0147 619>
AnchorPoint: "below" 285 0 basechar 0
AnchorPoint: "above" 398 705 basechar 0
LayerCount: 2
Fore
SplineSet
66 113 m 0
 66 148 91 170 120 170 c 0
 149 170 174 148 174 116 c 0
 174 102 170 93 163 81 c 1
 187 70 215 65 249 65 c 0
 324 65 351 102 351 159 c 2
 351 619 l 1
 250 619 l 1
 250 695 l 1
 504 695 l 1
 504 619 l 1
 446 619 l 1
 446 156 l 2
 446 42 361 -11 251 -11 c 0
 147 -11 66 38 66 113 c 0
EndSplineSet
EndChar

StartChar: K
Encoding: 75 75 85
Width: 879
Flags: HW
TeX: 694 0
HStem: 0 75<75 153 245 323 607 633 741 830> 619 76<75 153 245 323 583 599 684.245 814>
VStem: 75 248<0 75 619 695> 153 92<75 240.859 318 619>
DStem2: 245 318 263 239 0.761939 0.647648<0 147.054 231.439 464.669> 468 412 404 358 0.629463 -0.77703<1.67396 365.721>
AnchorPoint: "below" 452 0 basechar 0
AnchorPoint: "above" 452 705 basechar 0
LayerCount: 2
Fore
SplineSet
75 0 m 1xe0
 75 75 l 1xe0
 153 75 l 1
 153 619 l 1xd0
 75 619 l 1
 75 695 l 1
 323 695 l 1
 323 619 l 1xe0
 245 619 l 1
 245 318 l 1
 599 619 l 1
 583 619 l 1
 583 695 l 1
 814 695 l 1
 814 619 l 1
 726 619 l 2
 709 619 710 618 683 596 c 2
 468 413 l 1
 468 412 l 1
 741 75 l 1
 830 75 l 1
 830 0 l 1
 607 0 l 1
 607 75 l 1
 633 75 l 1
 404 358 l 1
 263 239 l 2
 245 223 245 221 245 204 c 2
 245 75 l 1xd0
 323 75 l 1
 323 0 l 1
 75 0 l 1xe0
EndSplineSet
EndChar

StartChar: L
Encoding: 76 76 86
Width: 669
Flags: HW
TeX: 694 0
HStem: 0 75<73 151 248 519.281> 619 76<73 151 248 346>
VStem: 151 97<75 619> 546 75<185.04 257>
AnchorPoint: "below" 347 0 basechar 0
AnchorPoint: "above" 347 705 basechar 0
LayerCount: 2
Fore
SplineSet
73 0 m 1
 73 75 l 1
 151 75 l 1
 151 619 l 1
 73 619 l 1
 73 695 l 1
 346 695 l 1
 346 619 l 1
 248 619 l 1
 248 75 l 1
 368 75 l 2
 505 75 517 81 525 111 c 0
 534 141 541 208 546 257 c 1
 621 257 l 1
 596 0 l 1
 73 0 l 1
EndSplineSet
EndChar

StartChar: M
Encoding: 77 77 87
Width: 1081
Flags: HW
TeX: 694 0
HStem: 0 75<80 158 232 310 760 838 922 1000> 619 76<80 158 922 1000>
VStem: 158 74<75 609> 838 84<75 615>
DStem2: 289 666 232 609 0.401826 -0.915716<29.2917 624.648> 540 94 580 28 0.401064 0.91605<0 596.378>
AnchorPoint: "below" 540 0 basechar 0
AnchorPoint: "above" 540 705 basechar 0
LayerCount: 2
Fore
SplineSet
80 0 m 1
 80 75 l 1
 158 75 l 1
 158 619 l 1
 80 619 l 1
 80 695 l 1
 246 695 l 2
 270 695 278 690 289 666 c 2
 516 149 l 2
 524 131 533 112 540 94 c 1
 547 112 556 130 564 148 c 2
 790 665 l 2
 801 689 810 695 834 695 c 2
 1000 695 l 1
 1000 619 l 1
 922 619 l 1
 922 75 l 1
 1000 75 l 1
 1000 0 l 1
 760 0 l 1
 760 75 l 1
 838 75 l 1
 838 546 l 1
 837 615 l 1
 829 594 819 574 810 553 c 2
 580 28 l 2
 569 4 560 0 536 0 c 0
 534 0 532 0 530 0 c 0
 501 0 496 7 482 39 c 2
 232 609 l 1
 232 75 l 1
 310 75 l 1
 310 0 l 1
 80 0 l 1
EndSplineSet
EndChar

StartChar: N
Encoding: 78 78 88
Width: 889
Flags: HW
TeX: 694 0
HStem: 0 75<75 153 227 305> 619 76<75 153 582 660 734 812>
VStem: 153 74<75 573> 660 74<159 619>
DStem2: 263 675 227 573 0.610264 -0.792198<58.8347 651.049>
AnchorPoint: "below" 444 0 basechar 0
AnchorPoint: "above" 444 705 basechar 0
LayerCount: 2
Fore
SplineSet
75 0 m 1
 75 75 l 1
 153 75 l 1
 153 619 l 1
 75 619 l 1
 75 695 l 1
 227 695 l 2
 247 695 251 691 263 675 c 2
 660 159 l 1
 660 619 l 1
 582 619 l 1
 582 695 l 1
 812 695 l 1
 812 619 l 1
 734 619 l 1
 734 34 l 2
 734 17 734 0 707 -0 c 2
 689 -0 l 2
 671 0 667 2 653 20 c 2
 227 573 l 1
 227 75 l 1
 305 75 l 1
 305 0 l 1
 75 0 l 1
EndSplineSet
EndChar

StartChar: O
Encoding: 79 79 89
Width: 853
Flags: HW
TeX: 694 0
HStem: -11 84<310.138 538.263> 625 80<310.658 541.55>
VStem: 63 100<231.089 476.008> 688 100<232.291 475.587>
AnchorPoint: "ogonek" 424 0 basechar 0
AnchorPoint: "below" 424 0 basechar 0
AnchorPoint: "above" 427 705 basechar 0
LayerCount: 2
Fore
SplineSet
63 342 m 0
 63 560 205 705 427 705 c 0
 646 705 788 560 788 342 c 0
 788 131 647 -11 424 -11 c 0
 207 -11 63 128 63 342 c 0
163 360 m 0
 163 179 264 73 425 73 c 0
 591 73 688 182 688 360 c 0
 688 540 575 625 426 625 c 0
 277 625 163 542 163 360 c 0
EndSplineSet
EndChar

StartChar: P
Encoding: 80 80 90
Width: 775
Flags: HW
TeX: 694 0
HStem: 0 75<74 152 249 327> 272 75<249 539.267> 619 76<74 152 247 541.425>
VStem: 152 95<75 272 347 619> 610 100<409.114 557.028>
AnchorPoint: "below" 367 0 basechar 0
AnchorPoint: "above" 367 705 basechar 0
LayerCount: 2
Fore
SplineSet
74 0 m 1
 74 75 l 1
 152 75 l 1
 152 619 l 1
 74 619 l 1
 74 695 l 1
 424 695 l 2
 482 695 552 691 615 652 c 0
 702 599 710 517 710 483 c 0
 710 399 659 272 427 272 c 2
 249 272 l 1
 249 75 l 1
 327 75 l 1
 327 0 l 1
 74 0 l 1
247 347 m 1
 401 347 l 2
 472 347 548 352 587 406 c 0
 603 428 610 456 610 483 c 0
 610 616 473 619 410 619 c 2
 247 619 l 1
 247 347 l 1
EndSplineSet
EndChar

StartChar: Q
Encoding: 81 81 91
Width: 853
Flags: HW
TeX: 694 194
HStem: -194 100<613.493 723.267> -11 81<394.456 482.153> 101 76<386.452 478.736> 624 81<310.432 538.469>
VStem: 63 98<222.165 467.765> 690 98<221.027 469.42> 758 36<-53.2377 16.9884>
AnchorPoint: "below" 425 -195 basechar 0
AnchorPoint: "above" 426 705 basechar 0
LayerCount: 2
Fore
SplineSet
63 343 m 0
 63 558 202 705 426 705 c 0
 635 705 788 570 788 342 c 0xfc
 788 168 693 54 568 12 c 1
 596 -72 626 -94 665 -94 c 0
 707 -94 750 -65 758 -10 c 0
 759 1 761 17 776 17 c 0
 785 17 794 8 794 -8 c 0xfa
 794 -64 767 -194 659 -194 c 0
 560 -194 541 -91 517 -2 c 1
 481 -8 452 -11 425 -11 c 0
 204 -11 63 131 63 343 c 0
161 343 m 0
 161 216 216 126 308 91 c 1
 317 151 375 177 425 177 c 0
 493 177 523 123 539 90 c 1
 633 124 690 213 690 342 c 0xfc
 690 525 585 624 425 624 c 0
 268 624 161 526 161 343 c 0
386 85 m 0
 386 71 412 70 423 70 c 2
 427 70 l 2
 446 70 465 72 483 75 c 1
 475 84 459 101 425 101 c 0xf8
 405 101 386 96 386 85 c 0
EndSplineSet
EndChar

StartChar: R
Encoding: 82 82 92
Width: 839
Flags: HW
TeX: 694 0
HStem: -11 76<668.714 754.371> 0 75<74 152 247 324> 310 75<247 497.078> 619 76<74 152 247 527.081>
VStem: 152 95<75 310 385 619> 551 99<82.7726 264.375> 594 100<440.432 563.302> 764 70<71.3132 117.748>
AnchorPoint: "below" 367 0 basechar 0
AnchorPoint: "above" 367 705 basechar 0
LayerCount: 2
Fore
SplineSet
74 0 m 1
 74 75 l 1
 152 75 l 1
 152 619 l 1
 74 619 l 1
 74 695 l 1
 377 695 l 2
 456 695 583 686 653 607 c 0
 673 584 694 549 694 502 c 0x7b
 694 438 654 376 572 341 c 1
 572 340 l 1
 644 294 651 236 651 185 c 0
 651 174 650 163 650 153 c 0
 650 129 652 108 663 92 c 0
 676 73 702 65 721 65 c 0xbd
 760 65 757 101 764 110 c 0
 770 118 780 118 789 118 c 2
 806 118 l 2
 825 118 834 113 834 94 c 0
 834 59 804 -11 721 -11 c 0
 634 -11 564 29 553 107 c 0
 552 118 551 129 551 140 c 2
 551 201 l 2xbd
 551 222 550 237 539 254 c 0
 508 301 436 310 375 310 c 2
 247 310 l 1
 247 75 l 1
 324 75 l 1
 324 0 l 1
 74 0 l 1
247 385 m 1x3b
 375 385 l 2
 477 385 551 399 582 455 c 0
 590 470 594 486 594 502 c 0
 594 543 570 575 536 593 c 0
 489 618 433 619 381 619 c 2
 247 619 l 1
 247 385 l 1x3b
EndSplineSet
EndChar

StartChar: S
Encoding: 83 83 93
Width: 639
Flags: HW
TeX: 694 0
HStem: -11 76<229.511 433.431> 635 70<199.264 381.404>
VStem: 63 87<472.75 589.296> 63 72<146.809 230.911> 487 87<115.659 244.899>
DStem2: 238 430 194 341 0.965751 -0.259469<-70.8274 267.179>
AnchorPoint: "below" 347 0 basechar 0
AnchorPoint: "above" 287 705 basechar 0
LayerCount: 2
Fore
SplineSet
63 13 m 2
 63 210 l 1
 64 230 73 231 87 231 c 2xd8
 108 231 l 2
 119 231 131 230 135 224 c 0xd8
 143 213 133 166 175 122 c 0
 220 76 294 65 347 65 c 0
 454 65 487 131 487 181 c 0
 487 234 449 270 416 286 c 0
 375 305 245 321 194 341 c 0
 132 365 63 425 63 517 c 0
 63 617 139 705 287 705 c 0
 397 705 451 655 471 637 c 1
 507 708 511 705 523 705 c 0
 540 705 542 695 542 681 c 2
 542 485 l 1
 541 464 537 463 500 463 c 2
 493 463 l 2
 483 463 475 464 470 470 c 0
 461 481 458 635 286 635 c 0
 202 635 150 591 150 530 c 0xe8
 150 474 201 441 238 430 c 0
 275 419 389 399 426 387 c 0
 494 365 574 299 574 193 c 0
 574 86 502 -11 347 -11 c 0
 219 -11 157 36 133 55 c 1
 102 -4 98 -11 82 -11 c 0
 66 -11 63 -2 63 13 c 2
EndSplineSet
EndChar

StartChar: T
Encoding: 84 84 94
Width: 789
Flags: HW
TeX: 694 0
HStem: 0 75<235 345 443 553> 614 75<132.699 345 443 654.692>
VStem: 41 75<458 553.118> 345 98<75 614> 671 76<458 553.118>
AnchorPoint: "below" 394 0 basechar 0
AnchorPoint: "above" 394 705 basechar 0
LayerCount: 2
Fore
SplineSet
41 458 m 1
 58 689 l 1
 730 689 l 1
 747 458 l 1
 671 458 l 1
 660 603 657 605 632 609 c 0
 611 613 577 614 522 614 c 2
 443 614 l 1
 443 75 l 1
 553 75 l 1
 553 0 l 1
 235 0 l 1
 235 75 l 1
 345 75 l 1
 345 614 l 1
 241 614 l 2
 195 614 148 613 137 601 c 0
 126 589 121 524 116 458 c 1
 41 458 l 1
EndSplineSet
EndChar

StartChar: U
Encoding: 85 85 95
Width: 868
Flags: HW
TeX: 694 0
HStem: -11 76<329.742 553.335> 619 76<73 151 248 326 563 641 717 794>
VStem: 151 97<144.178 619> 641 76<151.854 619>
AnchorPoint: "ogonek" 439 0 basechar 0
AnchorPoint: "below" 439 0 basechar 0
AnchorPoint: "above" 434 705 basechar 0
LayerCount: 2
Fore
SplineSet
73 619 m 1
 73 695 l 1
 326 695 l 1
 326 619 l 1
 248 619 l 1
 248 243 l 2
 248 136 298 65 441 65 c 0
 540 65 641 100 641 243 c 2
 641 619 l 1
 563 619 l 1
 563 695 l 1
 794 695 l 1
 794 619 l 1
 717 619 l 1
 717 244 l 2
 717 40 555 -11 439 -11 c 0
 318 -11 151 40 151 243 c 2
 151 619 l 1
 73 619 l 1
EndSplineSet
EndChar

StartChar: V
Encoding: 86 86 96
Width: 847
Flags: HW
TeX: 694 0
ItalicCorrection: 15
HStem: -0 21G<402.5 444.5> 619 76<25 107 211 262 605 656 739 821>
DStem2: 211 619 107 619 0.405114 -0.914266<0 556.616> 434 109 477 28 0.405277 0.914194<0 556.21>
AnchorPoint: "below" 426 0 basechar 0
AnchorPoint: "above" 422 705 basechar 0
LayerCount: 2
Fore
SplineSet
25 619 m 1
 25 695 l 1
 262 695 l 1
 262 619 l 1
 211 619 l 1
 405 178 l 1
 434 109 l 1
 464 182 l 1
 656 619 l 1
 605 619 l 1
 605 695 l 1
 821 695 l 1
 821 619 l 1
 739 619 l 1
 477 28 l 2
 466 4 455 0 434 -0 c 2
 419 -0 l 2
 386 0 380 3 364 39 c 2
 107 619 l 1
 25 619 l 1
EndSplineSet
EndChar

StartChar: W
Encoding: 87 87 97
Width: 1167
Flags: HW
TeX: 694 0
ItalicCorrection: 15
HStem: 0 21G<330.5 375.5 788 828> 619 76<23 97 193 248 476 539 645 701 928 992 1068 1142>
DStem2: 193 619 97 619 0.336233 -0.941779<0 536.763> 645 619 576 545 0.336688 -0.941616<46.4481 536.944> 878 295 857 28 0.336235 0.941778<-155.859 343.467>
AnchorPoint: "below" 582 0 basechar 0
AnchorPoint: "above" 582 705 basechar 0
LayerCount: 2
Fore
SplineSet
23 619 m 1
 23 695 l 1
 248 695 l 1
 248 619 l 1
 193 619 l 1
 311 283 l 1
 340 196 359 145 366 109 c 1
 376 161 467 416 539 619 c 1
 476 619 l 1
 476 695 l 1
 701 695 l 1
 701 619 l 1
 645 619 l 1
 758 298 l 1
 796 185 810 148 819 109 c 1
 829 147 l 1
 878 295 l 1
 992 619 l 1
 928 619 l 1
 928 695 l 1
 1142 695 l 1
 1142 619 l 1
 1068 619 l 1
 857 28 l 2
 849 5 839 0 817 -0 c 2
 801 -0 l 2
 775 0 768 7 758 36 c 2
 576 545 l 1
 551 439 477 233 404 27 c 0
 396 5 386 0 365 0 c 0
 359 0 353 0 347 0 c 0
 314 0 312 17 303 42 c 2
 97 619 l 1
 23 619 l 1
EndSplineSet
EndChar

StartChar: X
Encoding: 88 88 98
Width: 847
Flags: HW
TeX: 694 0
HStem: 0 75<35 138 234 265 567 592 711 811> 619 76<52 152 270 296 533 565 644.306 764>
DStem2: 138 75 234 75 0.617438 0.786619<59.2741 344.933 457.301 691.567> 270 619 152 619 0.629732 -0.776812<0 237.393 335.966 625.36>
AnchorPoint: "below" 423 0 basechar 0
AnchorPoint: "above" 423 705 basechar 0
LayerCount: 2
Fore
SplineSet
35 0 m 1
 35 75 l 1
 138 75 l 1
 361 360 l 1
 361 361 l 1
 152 619 l 1
 52 619 l 1
 52 695 l 1
 296 695 l 1
 296 619 l 1
 270 619 l 1
 420 435 l 1
 565 619 l 1
 533 619 l 1
 533 695 l 1
 764 695 l 1
 764 619 l 1
 677 619 l 2
 660 619 659 617 642 595 c 2
 469 374 l 1
 711 75 l 1
 811 75 l 1
 811 0 l 1
 567 0 l 1
 567 75 l 1
 592 75 l 1
 410 300 l 1
 234 75 l 1
 265 75 l 1
 265 0 l 1
 35 0 l 1
EndSplineSet
EndChar

StartChar: Y
Encoding: 89 89 99
Width: 847
Flags: HW
TeX: 694 0
ItalicCorrection: 28
HStem: 0 75<298 376 471 548> 619 76<21 118 237 267 604 633 728 825>
VStem: 376 95<75 303.188>
DStem2: 237 619 118 619 0.602348 -0.798234<0 329.803> 436 356 483 294 0.601964 0.798523<0 328.599>
AnchorPoint: "below" 422 0 basechar 0
AnchorPoint: "above" 422 705 basechar 0
LayerCount: 2
Fore
SplineSet
21 619 m 1
 21 695 l 1
 267 695 l 1
 267 619 l 1
 237 619 l 1
 436 356 l 1
 633 619 l 1
 604 619 l 1
 604 695 l 1
 825 695 l 1
 825 619 l 1
 728 619 l 1
 483 294 l 2
 471 278 471 278 471 253 c 2
 471 75 l 1
 548 75 l 1
 548 0 l 1
 298 0 l 1
 298 75 l 1
 376 75 l 1
 376 252 l 2
 376 277 376 277 364 293 c 2
 118 619 l 1
 21 619 l 1
EndSplineSet
EndChar

StartChar: Z
Encoding: 90 90 100
Width: 703
Flags: HW
TeX: 694 0
HStem: -0 81<201 544.521> 619 76<178.049 502>
VStem: 79 76<464 594.335> 569 75<142.933 268>
DStem2: 78 80 201 81 0.618272 0.785964<76.8335 685.782>
AnchorPoint: "below" 354 0 basechar 0
AnchorPoint: "above" 354 705 basechar 0
LayerCount: 2
Fore
SplineSet
63 29 m 2
 63 42 l 2
 63 63 68 67 78 80 c 2
 502 619 l 1
 379 619 l 2
 295 619 244 618 211 613 c 0
 175 607 161 597 155 464 c 1
 79 464 l 1
 89 695 l 1
 607 695 l 2
 634 695 638 689 638 657 c 0
 638 641 637 637 622 618 c 2
 201 81 l 1
 338 81 l 2
 425 81 479 82 513 87 c 0
 552 93 560 104 569 268 c 1
 644 268 l 1
 629 -0 l 1
 94 -0 l 2
 74 0 63 3 63 29 c 2
EndSplineSet
EndChar

StartChar: bracketleft
Encoding: 91 91 101
Width: 319
Flags: HW
TeX: 750 250
HStem: -250 75<204 293> 675 75<204 293>
VStem: 114 179<-250 -175 675 750> 114 90<-175 675>
LayerCount: 2
Fore
SplineSet
114 -250 m 1xe0
 114 750 l 1
 293 750 l 1
 293 675 l 1xe0
 204 675 l 1
 204 -175 l 1xd0
 293 -175 l 1
 293 -250 l 1
 114 -250 l 1xe0
EndSplineSet
EndChar

StartChar: backslash
Encoding: 92 92 102
Width: 575
Flags: HW
TeX: 750 250
HStem: 729 20G<92 114>
DStem2: 142 711 72 681 0.373373 -0.927681<-29.5293 993.169>
LayerCount: 2
Fore
SplineSet
64 712 m 0
 64 734 83 749 101 749 c 0
 127 749 136 726 142 711 c 2
 498 -175 l 2
 503 -187 510 -201 510 -212 c 0
 510 -230 494 -249 472 -249 c 0
 445 -249 437 -225 429 -206 c 2
 72 681 l 2
 68 690 64 700 64 712 c 0
EndSplineSet
EndChar

StartChar: bracketright
Encoding: 93 93 103
Width: 319
Flags: HW
TeX: 750 250
HStem: -250 75<25 115> 675 75<25 115>
VStem: 25 179<-250 -175 675 750> 115 89<-175 675>
LayerCount: 2
Fore
SplineSet
25 -175 m 1xe0
 115 -175 l 1
 115 675 l 1xd0
 25 675 l 1
 25 750 l 1
 204 750 l 1
 204 -250 l 1
 25 -250 l 1
 25 -175 l 1xe0
EndSplineSet
EndChar

StartChar: asciicircum
Encoding: 94 94 104
Width: 703
Flags: HW
TeX: 694 0
HStem: 469 170
LayerCount: 2
Fore
SplineSet
128 538 m 1
 351 639 l 1
 574 538 l 1
 543 469 l 1
 365 546 358 550 351 550 c 0
 343 550 348 551 159 469 c 1
 128 538 l 1
EndSplineSet
EndChar

StartChar: underscore
Encoding: 95 95 105
Width: 894
Flags: HW
TeX: 0 340
HStem: -341 61<97.3793 794.728>
LayerCount: 2
Fore
SplineSet
96 -311 m 0
 96 -303 99 -280 135 -280 c 2
 756 -280 l 2
 790 -280 796 -299 796 -311 c 0
 796 -323 790 -341 756 -341 c 2
 135 -341 l 2
 100 -341 96 -321 96 -311 c 0
EndSplineSet
EndChar

StartChar: a
Encoding: 97 97 107
Width: 562
Flags: HW
TeX: 472 0
HStem: -6 76<167.151 302.233 463.531 556.463> 233 56<212.486 368> 405 75<184.345 333.402>
VStem: 46 93<97.3751 182.158> 82 103<356.66 402.602> 368 92<105.124 233 289 373.488>
AnchorPoint: "ogonek" 415 0 basechar 0
AnchorPoint: "affricate-below" 562 -195 basechar 0
AnchorPoint: "affricate-above" 562 695 basechar 0
AnchorPoint: "below" 247 0 basechar 0
AnchorPoint: "above" 247 480 basechar 0
LayerCount: 2
Fore
SplineSet
46 140 m 0xf4
 46 259 229 289 368 289 c 1
 368 312 l 2
 368 335 366 366 328 388 c 0
 301 404 269 405 239 405 c 0
 217 405 199 404 185 403 c 1
 184 358 151 347 133 347 c 0
 105 347 82 368 82 399 c 0xec
 82 477 189 480 247 480 c 0
 348 480 460 447 460 313 c 2
 460 104 l 1
 461 81 472 76 529 75 c 0
 547 75 558 71 558 47 c 2
 558 30 l 2
 558 6 550 0 529 0 c 2
 501 0 l 2
 401 0 384 26 376 59 c 1
 319 9 242 -6 181 -6 c 0
 80 -6 46 88 46 140 c 0xf4
139 142 m 0
 139 113 167 70 241 70 c 0xf4
 283 70 368 84 368 159 c 2
 368 233 l 1
 179 229 139 178 139 142 c 0
EndSplineSet
EndChar

StartChar: b
Encoding: 98 98 108
Width: 644
Flags: HW
TeX: 694 0
HStem: -5 75<278.245 437.075> 402 76<279.61 445.142> 608 76<42 115.683> 675 20G<42 207>
VStem: 117 90<128.665 358.27 425 604.828> 117 75<0 55.125> 507 98<141.066 337.319>
AnchorPoint: "affricate-below" 644 -195 basechar 0
AnchorPoint: "affricate-above" 644 695 basechar 0
AnchorPoint: "below" 360 0 basechar 0
AnchorPoint: "above" 360 695 basechar 0
LayerCount: 2
Fore
SplineSet
42 608 m 1
 42 684 l 1xea
 207 695 l 1
 207 425 l 1xda
 281 467 358 478 420 478 c 0
 531 478 605 386 605 238 c 0
 605 89 520 -5 388 -5 c 0
 347 -5 273 3 200 63 c 1
 192 0 l 1
 117 0 l 1xd6
 117 570 l 2
 117 601 109 608 54 608 c 2
 42 608 l 1
209 177 m 1
 210 134 266 70 346 70 c 0xc2
 427 70 507 104 507 237 c 0
 507 323 477 402 357 402 c 0
 293 402 209 369 209 318 c 2
 209 177 l 1
EndSplineSet
EndChar

StartChar: c
Encoding: 99 99 109
Width: 511
Flags: HW
TeX: 472 0
HStem: -5 80<216.001 371.074> 400 81<202.992 365.449>
VStem: 38 98<151.483 332.385>
AnchorPoint: "affricate-below" 511 -195 basechar 0
AnchorPoint: "affricate-above" 511 695 basechar 0
AnchorPoint: "below" 285 0 basechar 0
AnchorPoint: "above" 295 480 basechar 0
LayerCount: 2
Fore
SplineSet
38 237 m 0
 38 335 91 481 295 481 c 0
 357 481 465 478 465 400 c 0
 465 369 442 347 414 347 c 0
 400 347 368 354 363 398 c 1
 362 398 l 1
 342 399 322 400 302 400 c 0
 234 400 136 384 136 238 c 0
 136 108 239 75 313 75 c 0
 391 75 395 144 409 153 c 0
 414 156 416 156 442 156 c 2
 455 156 l 2
 468 156 477 154 477 143 c 0
 477 131 438 -5 285 -5 c 0
 141 -5 38 87 38 237 c 0
EndSplineSet
EndChar

StartChar: d
Encoding: 100 100 110
Width: 644
Flags: HW
TeX: 694 0
HStem: -5 75<199.483 357.082 528.95 601> 402 76<203.57 374.211> 608 76<362 435.342> 675 20G<362 526>
VStem: 38 98<136.665 333.132> 434 92<129.512 361.656 427 605.336>
AnchorPoint: "affricate-below" 644 -195 basechar 0
AnchorPoint: "affricate-above" 644 695 basechar 0
AnchorPoint: "below" 320 0 basechar 0
AnchorPoint: "above" 282 695 basechar 0
LayerCount: 2
Fore
SplineSet
38 236 m 0
 38 366 102 478 241 478 c 0
 308 478 380 462 437 427 c 1
 437 572 l 1
 436 604 424 608 368 608 c 2
 362 608 l 1
 362 684 l 1xec
 526 695 l 1xdc
 526 114 l 2
 526 82 533 75 589 75 c 2
 601 75 l 1
 601 -0 l 1
 434 -5 l 1
 434 59 l 1
 384 23 322 -5 238 -5 c 0
 151 -5 39 51 38 236 c 0
136 235 m 0
 136 103 210 70 284 70 c 0
 369 70 434 134 434 180 c 2
 434 318 l 2
 434 337 430 343 420 354 c 0
 410 365 371 402 298 402 c 0xcc
 169 402 136 321 136 235 c 0
EndSplineSet
EndChar

StartChar: e
Encoding: 101 101 111
Width: 512
Flags: HW
TeX: 472 0
HStem: -5 81<207.751 375.5> 232 64<134 395> 405 75<190.028 346.738>
AnchorPoint: "ogonek" 285 0 basechar 0
AnchorPoint: "affricate-below" 512 -195 basechar 0
AnchorPoint: "affricate-above" 512 695 basechar 0
AnchorPoint: "below" 285 0 basechar 0
AnchorPoint: "above" 271 480 basechar 0
LayerCount: 2
Fore
SplineSet
31 239 m 0
 31 383 127 480 271 480 c 0
 437 480 479 358 479 261 c 0
 479 236 469 233 451 232 c 1
 129 232 l 1
 132 196 140 76 312 76 c 0
 389 76 398 136 411 146 c 0
 417 151 425 151 432 151 c 2
 441 151 l 2
 460 151 477 150 477 132 c 0
 477 103 418 -5 285 -5 c 0
 143 -5 31 84 31 239 c 0
134 296 m 1
 395 296 l 1
 389 333 370 405 271 405 c 0
 245 405 156 401 134 296 c 1
EndSplineSet
EndChar

StartChar: f
Encoding: 102 102 112
Width: 351
Flags: HW
TeX: 694 0
ItalicCorrection: 86
HStem: 0 75<44 119 209 302> 397 75<36 119 209 334> 625 75<235.249 314.003>
VStem: 119 90<75 397 472 600.779>
AnchorPoint: "affricate-below" 351 -195 basechar 0
AnchorPoint: "affricate-above" 351 695 basechar 0
AnchorPoint: "above" 344 695 basechar 0
AnchorPoint: "below" 164 0 basechar 0
LayerCount: 2
Fore
SplineSet
36 397 m 1
 36 472 l 1
 119 472 l 1
 119 533 l 2
 119 568 124 592 143 620 c 0
 185 680 271 700 344 700 c 0
 400 700 408 648 408 629 c 0
 408 596 385 577 358 577 c 0
 345 577 313 583 308 625 c 1
 233 624 206 589 206 536 c 2
 206 472 l 1
 334 472 l 1
 334 397 l 1
 209 397 l 1
 209 75 l 1
 302 75 l 1
 302 0 l 1
 44 0 l 1
 44 75 l 1
 119 75 l 1
 119 397 l 1
 36 397 l 1
EndSplineSet
EndChar

StartChar: g
Encoding: 103 103 113
Width: 575
Flags: HW
TeX: 472 194
ItalicCorrection: 15
HStem: -200 67<160.516 412.484> -5 85<148.336 432.147> 135 68<184.923 323.714> 378 105<475.81 540.448> 410 68<184.723 323.672>
VStem: 31 84<-99.8293 -21.1226> 66 90<232.043 380.16> 78 59<91.8758 163.429> 353 90<232.393 381.132> 458 84<-99.2981 -29.115>
AnchorPoint: "affricate-below" 575 -195 basechar 0
AnchorPoint: "affricate-above" 575 695 basechar 0
AnchorPoint: "below" 286 -195 basechar 0
AnchorPoint: "above" 254 480 basechar 0
LayerCount: 2
Fore
SplineSet
31 -64 m 0xf4c0
 31 -35 43 11 101 40 c 1
 85 66 78 85 78 115 c 0xf1c0
 78 147 86 169 105 196 c 1
 82 224 66 258 66 307 c 0
 66 406 137 478 255 478 c 0xeac0
 296 478 333 470 373 445 c 1
 401 466 440 483 484 483 c 0
 526 483 557 457 557 422 c 0
 557 395 536 378 513 378 c 0
 487 378 476 397 471 408 c 1
 414 405 l 1
 432 375 443 347 443 307 c 0
 443 204 368 135 255 135 c 0
 209 135 178 145 142 164 c 1
 138 153 137 144 137 135 c 0xf1c0
 137 100 164 80 200 80 c 2
 308 80 l 2
 382 80 511 76 538 -30 c 0
 541 -41 542 -52 542 -63 c 0
 542 -118 491 -200 286 -200 c 0
 83 -200 31 -119 31 -64 c 0xf4c0
115 -62 m 0xe4c0
 115 -104 179 -132 281 -133 c 1
 283 -133 l 2
 427 -133 458 -89 458 -64 c 0
 458 -17 385 -5 296 -5 c 2
 201 -5 l 2
 181 -5 155 -6 136 -21 c 0
 124 -31 115 -46 115 -62 c 0xe4c0
156 308 m 0
 156 250 176 203 254 203 c 0
 334 203 353 251 353 305 c 0
 353 363 333 410 255 410 c 0xeac0
 175 410 156 362 156 308 c 0
EndSplineSet
EndChar

StartChar: h
Encoding: 104 104 114
Width: 644
Flags: HW
TeX: 694 0
HStem: 0 75<46 121 213 288 365 440 532 607> 402 76<279.078 415.555> 608 76<46 119.588> 675 20G<46 211>
VStem: 121 90<75 346.847 403 604.886> 440 92<75 379.689>
AnchorPoint: "affricate-below" 644 -195 basechar 0
AnchorPoint: "affricate-above" 644 695 basechar 0
AnchorPoint: "below" 326 0 basechar 0
AnchorPoint: "above" 326 695 basechar 0
LayerCount: 2
Fore
SplineSet
46 0 m 1
 46 75 l 1
 121 75 l 1
 121 573 l 1
 120 602 111 608 57 608 c 2
 46 608 l 1
 46 684 l 1xec
 211 695 l 1
 211 403 l 1
 228 422 277 478 377 478 c 0xdc
 521 478 532 391 532 316 c 2
 532 75 l 1
 607 75 l 1
 607 0 l 1
 365 0 l 1
 365 75 l 1
 440 75 l 1
 440 313 l 2
 440 356 435 402 332 402 c 0
 286 402 213 378 213 265 c 2
 213 75 l 1
 288 75 l 1
 288 0 l 1
 46 0 l 1
EndSplineSet
EndChar

StartChar: i
Encoding: 105 105 115
Width: 325
Flags: HW
TeX: 694 0
HStem: 0 75<47 122 212 279> 391 76<51 120.668> 458 20<51 212> 562 133<104 200.346>
VStem: 86 132<579.299 677.224> 122 90<75 388.32>
AnchorPoint: "above" 167 675 basechar 0
AnchorPoint: "ogonek" 163 0 basechar 0
AnchorPoint: "affricate-below" 325 -195 basechar 0
AnchorPoint: "affricate-above" 325 695 basechar 0
AnchorPoint: "below" 167 0 basechar 0
LayerCount: 2
Fore
SplineSet
86 628 m 0
 86 662 113 695 152 695 c 0
 187 695 218 667 218 628 c 0
 218 589 186 562 152 562 c 0x98
 112 562 86 594 86 628 c 0
EndSplineSet
Refer: 35 305 S 1 0 0 1 0 0 3
EndChar

StartChar: j
Encoding: 106 106 116
Width: 357
Flags: HW
TeX: 694 194
HStem: -200 75<62 139.162> 391 76<79 159.484> 458 20<79 250> 562 133<135.5 231.893>
VStem: -41 103<-124 -78.2989> 117 133<580.004 677.224> 161 89<-100.316 387.24>
AnchorPoint: "affricate-below" 357 -195 basechar 0
AnchorPoint: "affricate-above" 357 695 basechar 0
AnchorPoint: "below" 96 -195 basechar 0
LayerCount: 2
Fore
SplineSet
117 628 m 0
 117 661 144 695 183 695 c 0
 218 695 250 667 250 628 c 0
 250 590 218 562 184 562 c 0x9c
 144 562 117 594 117 628 c 0
EndSplineSet
Refer: 36 567 S 1 0 0 1 -0 0 3
EndChar

StartChar: k
Encoding: 107 107 117
Width: 612
Flags: HW
TeX: 694 0
HStem: 0 75<45 120 202 277 382 407 492.594 593> 397 75<327 358 442.207 567> 608 76<45 118.588> 675 20G<45 205>
VStem: 120 85<75 183.445 261 604.886>
DStem2: 343 288 284 234 0.611872 -0.790957<6.6112 207.634>
AnchorPoint: "affricate-below" 612 -195 basechar 0
AnchorPoint: "affricate-above" 612 695 basechar 0
AnchorPoint: "below" 319 0 basechar 0
AnchorPoint: "above" 319 695 basechar 0
LayerCount: 2
Fore
SplineSet
45 0 m 1
 45 75 l 1
 120 75 l 1
 120 573 l 1
 119 602 110 608 56 608 c 2
 45 608 l 1
 45 684 l 1xe8
 205 695 l 1
 205 261 l 1
 358 397 l 1
 327 397 l 1
 327 472 l 1
 567 472 l 1
 567 397 l 1
 481 397 l 2
 455 397 445 372 343 288 c 1
 348 282 491 97 500 87 c 0
 509 76 513 75 522 75 c 2
 593 75 l 1
 593 0 l 1
 382 0 l 1
 382 75 l 1
 407 75 l 1
 284 234 l 1
 283 234 l 1
 212 166 203 173 202 147 c 1
 202 75 l 1xd8
 277 75 l 1
 277 0 l 1
 45 0 l 1
EndSplineSet
EndChar

StartChar: l
Encoding: 108 108 118
Width: 325
Flags: HW
TeX: 694 0
HStem: 0 75<47 122 212 287> 608 76<47 120.588> 675 20G<47 212>
VStem: 122 90<75 604.886>
AnchorPoint: "affricate-below" 325 -195 basechar 0
AnchorPoint: "affricate-above" 325 695 basechar 0
AnchorPoint: "below" 167 0 basechar 0
AnchorPoint: "above" 167 695 basechar 0
LayerCount: 2
Fore
SplineSet
47 0 m 1
 47 75 l 1
 122 75 l 1
 122 573 l 1
 121 602 112 608 58 608 c 2xd0
 47 608 l 1
 47 684 l 1xd0
 212 695 l 1xb0
 212 75 l 1
 287 75 l 1
 287 0 l 1
 47 0 l 1
EndSplineSet
EndChar

StartChar: m
Encoding: 109 109 119
Width: 964
Flags: HW
TeX: 472 0
HStem: -0 75<46 121 213 288 366 441 533 608 685 760 852 927> 391 76<46 119.855> 402 76<279.927 417.826 597.829 736.999>
VStem: 121 92<75 351.289> 441 92<75 351.289> 760 92<75 379.509>
AnchorPoint: "affricate-below" 964 -195 basechar 0
AnchorPoint: "affricate-above" 964 695 basechar 0
AnchorPoint: "below" 486 0 basechar 0
AnchorPoint: "above" 486 480 basechar 0
LayerCount: 2
Fore
SplineSet
46 -0 m 1
 46 75 l 1
 121 75 l 1
 121 352 l 2
 121 386 115 391 55 391 c 2
 46 391 l 1
 46 467 l 1xdc
 208 478 l 1
 208 399 l 1
 224 418 275 478 376 478 c 0
 485 478 511 430 524 395 c 1
 542 417 592 478 696 478 c 0
 846 478 852 383 852 315 c 2
 852 75 l 1
 927 75 l 1
 927 -0 l 1
 685 -0 l 1
 685 75 l 1
 760 75 l 1
 760 313 l 2
 760 367 748 401 655 402 c 0
 602 402 533 375 533 265 c 2
 533 75 l 1
 608 75 l 1
 608 -0 l 1
 366 -0 l 1
 366 75 l 1
 441 75 l 1
 441 313 l 2xbc
 441 362 432 401 335 402 c 0xbc
 281 402 213 375 213 265 c 2
 213 75 l 1
 288 75 l 1
 288 -0 l 1
 46 -0 l 1
EndSplineSet
EndChar

StartChar: n
Encoding: 110 110 120
Width: 644
Flags: HW
TeX: 472 0
HStem: -0 75<46 121 213 288 365 440 532 607> 391 76<46 119.855> 402 76<280.913 416.248>
VStem: 121 92<75 352.622> 440 92<75 379.069>
AnchorPoint: "affricate-below" 644 -195 basechar 0
AnchorPoint: "affricate-above" 644 695 basechar 0
AnchorPoint: "below" 326 0 basechar 0
AnchorPoint: "above" 326 480 basechar 0
LayerCount: 2
Fore
SplineSet
46 -0 m 1
 46 75 l 1
 121 75 l 1
 121 352 l 2
 121 386 115 391 55 391 c 2
 46 391 l 1
 46 467 l 1xd8
 208 478 l 1
 208 399 l 1
 224 418 276 478 377 478 c 0
 527 478 532 382 532 315 c 2
 532 75 l 1
 607 75 l 1
 607 -0 l 1
 365 -0 l 1
 365 75 l 1
 440 75 l 1
 440 313 l 2xb8
 440 356 435 402 332 402 c 0xb8
 286 402 213 378 213 265 c 2
 213 75 l 1
 288 75 l 1
 288 -0 l 1
 46 -0 l 1
EndSplineSet
EndChar

StartChar: o
Encoding: 111 111 121
Width: 575
Flags: HW
TeX: 472 0
HStem: -5 80<193.201 379.599> 405 75<192.284 381.431>
VStem: 31 98<140.893 339.258> 444 98<140.681 339.044>
AnchorPoint: "ogonek" 286 0 basechar 0
AnchorPoint: "affricate-below" 575 -195 basechar 0
AnchorPoint: "affricate-above" 575 695 basechar 0
AnchorPoint: "below" 286 0 basechar 0
AnchorPoint: "above" 287 480 basechar 0
LayerCount: 2
Fore
SplineSet
31 232 m 0
 31 380 131 480 287 480 c 0
 441 480 542 380 542 232 c 0
 542 90 443 -5 286 -5 c 0
 131 -5 31 90 31 232 c 0
129 245 m 0
 129 154 160 75 286 75 c 0
 413 75 444 153 444 245 c 0
 444 330 413 405 288 405 c 0
 161 405 129 331 129 245 c 0
EndSplineSet
EndChar

StartChar: p
Encoding: 112 112 122
Width: 644
Flags: HW
TeX: 472 194
HStem: -195 76<42 117 209 284> -5 75<277.623 429.773> 391 76<42 115.514> 397 81<279.95 436.281>
VStem: 117 92<-119 55 126.186 355.234> 507 98<146.476 325.61>
AnchorPoint: "affricate-below" 644 -195 basechar 0
AnchorPoint: "affricate-above" 644 695 basechar 0
AnchorPoint: "below" 360 -195 basechar 0
AnchorPoint: "above" 360 480 basechar 0
LayerCount: 2
Fore
SplineSet
42 -119 m 1
 117 -119 l 1
 117 357 l 1
 116 386 106 391 53 391 c 2
 42 391 l 1
 42 467 l 1xec
 207 478 l 1
 207 425 l 1
 283 469 374 478 430 478 c 0
 541 478 605 378 605 239 c 0
 605 66 499 -5 389 -5 c 0
 313 -5 254 22 209 55 c 1
 209 -119 l 1
 284 -119 l 1
 284 -195 l 1
 42 -195 l 1
 42 -119 l 1
209 176 m 2xdc
 209 134 267 70 345 70 c 0
 436 70 507 130 507 236 c 0
 507 335 447 397 355 397 c 0
 276 397 226 358 213 337 c 0
 209 331 209 323 209 316 c 2
 209 176 l 2xdc
EndSplineSet
EndChar

StartChar: q
Encoding: 113 113 123
Width: 612
Flags: HW
TeX: 472 194
HStem: -195 76<359 434 526 601> -5 75<206.271 354.201> 397 81<211.242 361.133>
VStem: 38 98<143.48 320.629> 434 92<-119 62 133.838 343.436> 453 73<416.75 478>
AnchorPoint: "affricate-below" 612 -195 basechar 0
AnchorPoint: "affricate-above" 612 695 basechar 0
AnchorPoint: "below" 282 -195 basechar 0
AnchorPoint: "above" 282 480 basechar 0
LayerCount: 2
Fore
SplineSet
38 236 m 0
 38 386 120 478 244 478 c 0
 312 478 382 458 445 408 c 1
 453 478 l 1
 526 478 l 1xf4
 526 -119 l 1
 601 -119 l 1
 601 -195 l 1
 359 -195 l 1
 359 -119 l 1
 434 -119 l 1
 434 62 l 1
 387 26 324 -5 240 -5 c 0
 119 -5 38 89 38 236 c 0
136 235 m 0
 136 134 197 70 286 70 c 0
 375 70 423 140 434 171 c 0
 437 180 437 190 437 199 c 2
 437 282 l 2xf8
 437 339 372 397 298 397 c 0
 212 397 136 345 136 235 c 0
EndSplineSet
EndChar

StartChar: r
Encoding: 114 114 124
Width: 454
Flags: HW
TeX: 472 0
HStem: 0 75<42 117 207 300> 355 123<331.112 395.483> 391 76<42 115.855>
VStem: 117 90<75 331.733>
AnchorPoint: "affricate-below" 454 -195 basechar 0
AnchorPoint: "affricate-above" 454 695 basechar 0
AnchorPoint: "below" 171 0 basechar 0
AnchorPoint: "above" 229 480 basechar 0
LayerCount: 2
Fore
SplineSet
42 0 m 1
 42 75 l 1
 117 75 l 1
 117 352 l 2
 117 386 111 391 51 391 c 2
 42 391 l 1
 42 467 l 1xb0
 201 478 l 1
 201 433 l 1
 202 398 l 1
 248 468 304 478 334 478 c 2
 335 478 l 2
 379 478 421 448 421 405 c 0
 421 374 396 355 370 355 c 0
 359 355 329 359 321 401 c 1
 247 384 206 322 206 227 c 0xd0
 206 220 207 212 207 205 c 2
 207 75 l 1
 300 75 l 1
 300 0 l 1
 42 0 l 1
EndSplineSet
EndChar

StartChar: s
Encoding: 115 115 125
Width: 454
Flags: HW
TeX: 472 0
HStem: -6 76<156.388 310.196> 411 69<136.815 287.315>
VStem: 38 85<103.95 175.729 322.251 394.332> 330 85<91.2361 175.777>
AnchorPoint: "affricate-below" 454 -195 basechar 0
AnchorPoint: "affricate-above" 454 695 basechar 0
AnchorPoint: "below" 231 0 basechar 0
AnchorPoint: "above" 222 480 basechar 0
LayerCount: 2
Fore
SplineSet
38 21 m 2
 38 157 l 1
 39 175 45 178 67 178 c 0
 118 178 110 174 120 145 c 0
 142 84 187 70 230 70 c 0
 314 70 330 109 330 135 c 0
 330 200 233 200 167 216 c 0
 110 230 38 269 38 347 c 0
 38 401 67 480 222 480 c 0
 286 480 315 461 328 453 c 1
 329 453 l 1
 344 469 352 480 367 480 c 0
 384 480 386 471 386 456 c 2
 386 346 l 1
 385 329 378 326 358 326 c 0
 277 326 334 345 290 387 c 0
 270 406 242 411 215 411 c 0
 137 411 123 379 123 358 c 0
 123 300 228 303 291 285 c 0
 347 269 415 225 415 143 c 0
 415 85 385 -6 231 -6 c 0
 166 -6 134 14 104 39 c 1
 82 9 74 -5 57 -5 c 0
 39 -5 38 6 38 21 c 2
EndSplineSet
EndChar

StartChar: t
Encoding: 116 116 126
Width: 447
Flags: HW
TeX: 674 0
HStem: -5 81<207.5 292.8> 397 75<21 76.4941 206 363>
VStem: 113 93<85.6633 397> 130 76<541.602 675> 308 75<92.2756 187>
AnchorPoint: "affricate-below" 447 -195 basechar 0
AnchorPoint: "affricate-above" 447 695 basechar 0
AnchorPoint: "below" 192 0 basechar 0
AnchorPoint: "above" 160 675 basechar 0
LayerCount: 2
Fore
SplineSet
21 397 m 1
 21 472 l 1
 70 475 128 507 130 675 c 1
 206 675 l 1
 206 472 l 1xd8
 363 472 l 1
 363 397 l 1
 206 397 l 1
 206 159 l 2
 206 130 207 104 226 87 c 0
 234 80 244 76 255 76 c 0
 276 76 308 91 308 164 c 0
 308 172 307 179 307 187 c 1
 383 187 l 1
 383 162 l 2xe8
 383 28 269 -5 217 -5 c 0
 198 -5 139 -1 120 82 c 0
 114 108 113 135 113 161 c 2
 113 397 l 1xe8
 21 397 l 1
EndSplineSet
EndChar

StartChar: u
Encoding: 117 117 127
Width: 644
Flags: HW
TeX: 472 0
HStem: -5 75<220.509 367.666 535.724 607> 391 76<46 119.759 365 438.858> 458 20G<46 213 365 532>
VStem: 121 92<78.8605 388.237> 440 92<112.838 388.047>
AnchorPoint: "ogonek" 487 0 basechar 0
AnchorPoint: "affricate-below" 644 -195 basechar 0
AnchorPoint: "affricate-above" 644 695 basechar 0
AnchorPoint: "below" 326 0 basechar 0
AnchorPoint: "above" 326 480 basechar 0
LayerCount: 2
Fore
SplineSet
46 391 m 1
 46 467 l 1xd8
 213 478 l 1
 213 132 l 2
 213 86 220 70 303 70 c 0xb8
 371 70 440 99 440 176 c 2
 440 355 l 2
 440 387 429 391 374 391 c 2
 365 391 l 1
 365 467 l 1xd8
 532 478 l 1xb8
 532 112 l 2
 532 79 548 75 598 75 c 2
 607 75 l 1
 607 0 l 1
 443 -5 l 1
 443 63 l 1
 423 45 363 -5 242 -5 c 0
 121 -5 121 80 121 137 c 2
 121 354 l 2
 121 389 109 391 50 391 c 2
 46 391 l 1
EndSplineSet
EndChar

StartChar: v
Encoding: 118 118 128
Width: 612
Flags: HW
TeX: 472 0
ItalicCorrection: 15
HStem: -0 21G<281.5 328.5> 397 75<25 103 195 245 381 431 509 587>
DStem2: 195 397 103 397 0.381522 -0.92436<0 324.176>
AnchorPoint: "affricate-below" 612 -195 basechar 0
AnchorPoint: "affricate-above" 612 695 basechar 0
AnchorPoint: "below" 306 0 basechar 0
AnchorPoint: "above" 306 480 basechar 0
LayerCount: 2
Fore
SplineSet
25 397 m 1
 25 472 l 1
 245 472 l 1
 245 397 l 1
 195 397 l 1
 295 150 l 1
 313 95 l 1
 320 126 357 218 431 397 c 1
 381 397 l 1
 381 472 l 1
 587 472 l 1
 587 397 l 1
 509 397 l 1
 358 31 l 2
 348 8 341 0 316 -0 c 2
 297 -0 l 2
 266 0 262 12 252 36 c 2
 103 397 l 1
 25 397 l 1
EndSplineSet
EndChar

StartChar: w
Encoding: 119 119 129
Width: 836
Flags: HW
TeX: 472 0
ItalicCorrection: 15
HStem: 0 21G<251.5 292.5 542 584> 397 75<23 95 185 238 313 374 466 520 603 664 740 812>
DStem2: 185 397 95 397 0.331047 -0.943614<0 245.684> 466 397 411 323 0.331641 -0.943406<51.5718 317.741> 565 95 612 32 0.330926 0.943657<0 317.746>
AnchorPoint: "affricate-below" 836 -195 basechar 0
AnchorPoint: "affricate-above" 836 695 basechar 0
AnchorPoint: "below" 419 0 basechar 0
AnchorPoint: "above" 417 480 basechar 0
LayerCount: 2
Fore
SplineSet
23 397 m 1
 23 472 l 1
 238 472 l 1
 238 397 l 1
 185 397 l 1
 243 228 l 1
 263 164 l 1
 275 117 l 1
 280 95 l 1
 284 143 339 298 374 397 c 1
 313 397 l 1
 313 472 l 1
 520 472 l 1
 520 397 l 1
 466 397 l 1
 487 335 555 144 565 95 c 1
 575 149 646 342 664 397 c 1
 603 397 l 1
 603 472 l 1
 812 472 l 1
 812 397 l 1
 740 397 l 1
 612 32 l 2
 602 5 594 1 574 0 c 1
 554 0 l 2
 530 0 523 6 514 30 c 2
 411 323 l 1
 402 271 375 184 321 30 c 0
 313 6 305 0 280 -0 c 2
 264 -0 l 2
 239 0 232 7 222 35 c 2
 95 397 l 1
 23 397 l 1
EndSplineSet
EndChar

StartChar: x
Encoding: 120 120 130
Width: 612
Flags: HW
TeX: 472 0
HStem: -0 75<20 134.936 212 235 371 393 477.004 591> 397 75<27 139.996 225 247 357 381 456.625 573>
DStem2: 225 397 140 379 0.639687 -0.768636<0 123.556 212.207 354.968> 255 241 212 75 0.63299 0.77416<-153.735 -13.6024 78.2403 199.88>
AnchorPoint: "affricate-below" 612 -195 basechar 0
AnchorPoint: "affricate-above" 612 695 basechar 0
AnchorPoint: "below" 306 0 basechar 0
AnchorPoint: "above" 306 480 basechar 0
LayerCount: 2
Fore
SplineSet
20 -0 m 1
 20 75 l 1
 103 75 l 1
 124 76 112 67 255 241 c 1
 255 242 l 1
 243 255 231 270 140 379 c 0
 127 395 125 397 109 397 c 2
 27 397 l 1
 27 472 l 1
 247 472 l 1
 247 397 l 1
 225 397 l 1
 304 302 l 1
 381 397 l 1
 357 397 l 1
 357 472 l 1
 573 472 l 1
 573 397 l 1
 485 397 l 2
 471 397 468 390 351 245 c 1
 477 95 l 2
 491 79 493 75 509 75 c 2
 591 75 l 1
 591 -0 l 1
 371 -0 l 1
 371 75 l 1
 393 75 l 1
 302 185 l 1
 212 75 l 1
 235 75 l 1
 235 -0 l 1
 20 -0 l 1
EndSplineSet
EndChar

StartChar: y
Encoding: 121 121 131
Width: 612
Flags: HW
TeX: 472 194
ItalicCorrection: 15
HStem: -200 75<124.163 205.422> 397 75<25 103 195 245 381 431 509 587>
VStem: 25 99<-122.924 -74.6364>
DStem2: 195 397 103 397 0.381488 -0.924374<0 324.176> 260 -16 509 397 0.381841 0.924228<-105.897 16.4803 122.827 447.001>
AnchorPoint: "affricate-below" 612 -195 basechar 0
AnchorPoint: "affricate-above" 612 695 basechar 0
AnchorPoint: "below" 306 -195 basechar 0
AnchorPoint: "above" 306 480 basechar 0
LayerCount: 2
Fore
SplineSet
25 -116 m 0
 25 -85 48 -66 75 -66 c 0
 92 -66 124 -77 124 -119 c 2
 124 -125 l 1
 229 -124 242 -60 260 -16 c 0
 263 -9 265 -5 265 -0 c 0
 265 5 263 10 259 19 c 2
 103 397 l 1
 25 397 l 1
 25 472 l 1
 245 472 l 1
 245 397 l 1
 195 397 l 1
 295 150 l 1
 313 95 l 1
 321 126 382 277 431 397 c 1
 381 397 l 1
 381 472 l 1
 587 472 l 1
 587 397 l 1
 509 397 l 1
 333 -29 l 2
 332 -32 280 -200 132 -200 c 0
 76 -200 25 -166 25 -116 c 0
EndSplineSet
EndChar

StartChar: z
Encoding: 122 122 132
Width: 512
Flags: HW
TeX: 472 0
HStem: 0 81<169 373.522> 397 75<131.349 322>
VStem: 47 75<286 390.294>
DStem2: 52 85 169 81 0.654377 0.756169<73.5374 412.606> 379 127 462 210 0.071247 0.997459<-42.5228 83.2878>
AnchorPoint: "affricate-below" 512 -195 basechar 0
AnchorPoint: "affricate-above" 512 695 basechar 0
AnchorPoint: "below" 246 0 basechar 0
AnchorPoint: "above" 246 480 basechar 0
LayerCount: 2
Fore
SplineSet
31 28 m 0
 31 33 31 38 31 43 c 0
 31 64 40 71 52 85 c 2
 322 397 l 1
 259 397 l 2
 131 397 134 397 128 356 c 0
 125 333 123 309 122 286 c 1
 47 286 l 1
 57 472 l 1
 428 472 l 2
 460 472 459 458 459 438 c 0
 459 412 454 409 438 391 c 2
 169 81 l 1
 256 81 l 2
 371 81 372 82 379 127 c 0
 383 155 384 182 386 210 c 1
 462 210 l 1
 447 0 l 1
 64 0 l 2
 45 0 31 1 31 28 c 0
EndSplineSet
EndChar

StartChar: braceleft
Encoding: 123 123 133
Width: 575
Flags: HW
TeX: 750 250
HStem: -250 75<350.86 515.972> 675 75<350.074 515.941>
VStem: 241 92<-154.681 160.714 339.266 656.329>
LayerCount: 2
Fore
SplineSet
58 237 m 0
 58 246 58 255 58 264 c 0
 58 304 83 275 160 302 c 0
 244 331 241 382 241 406 c 2
 241 610 l 2
 241 638 239 700 335 733 c 0
 375 747 416 750 466 750 c 2
 495 750 l 2
 512 750 516 744 516 725 c 2
 516 699 l 2
 516 675 507 675 488 675 c 2
 476 675 l 2
 351 675 333 651 333 614 c 2
 333 427 l 2
 333 420 334 414 334 407 c 0
 334 365 331 292 205 250 c 1
 335 206 333 130 333 93 c 2
 333 -115 l 2
 333 -145 339 -175 486 -175 c 2
 492 -175 l 2
 512 -175 516 -180 516 -198 c 2
 516 -226 l 2
 516 -250 507 -250 492 -250 c 2
 463 -250 l 2
 264 -250 241 -169 241 -112 c 2
 241 103 l 2
 241 217 74 209 66 215 c 0
 60 219 58 222 58 237 c 0
EndSplineSet
EndChar

StartChar: bar
Encoding: 124 124 134
Width: 319
Flags: HW
TeX: 750 250
HStem: 729 20G<143 165>
VStem: 129 60<-247.925 748.031>
LayerCount: 2
Fore
SplineSet
129 -209 m 2
 129 705 l 2
 129 714 127 749 159 749 c 0
 171 749 189 744 189 710 c 2
 189 -205 l 2
 189 -220 189 -249 159 -249 c 0
 128 -249 129 -217 129 -209 c 2
EndSplineSet
EndChar

StartChar: braceright
Encoding: 125 125 135
Width: 575
Flags: HW
TeX: 750 250
HStem: -250 75<58.059 222.921> 675 75<58.0605 224.3>
VStem: 241 92<-156.559 160.319 339.356 654.681>
LayerCount: 2
Fore
SplineSet
58 -199 m 2
 58 -174 67 -175 82 -175 c 0
 209 -174 241 -160 241 -114 c 2
 241 93 l 2
 241 134 242 208 369 250 c 1
 239 293 241 371 241 407 c 2
 241 615 l 2
 241 663 204 673 90 675 c 0
 64 675 59 675 58 698 c 1
 58 726 l 2
 58 745 63 750 81 750 c 2
 111 750 l 2
 311 750 333 669 333 612 c 2
 333 402 l 2
 333 378 336 344 383 316 c 0
 475 262 516 317 516 259 c 2
 516 235 l 2
 516 196 492 225 415 198 c 0
 331 169 333 118 333 94 c 2
 333 -110 l 2
 333 -138 336 -200 240 -233 c 0
 200 -247 157 -250 106 -250 c 2
 79 -250 l 1
 62 -249 58 -244 58 -225 c 2
 58 -199 l 2
EndSplineSet
EndChar

StartChar: asciitilde
Encoding: 126 126 136
Width: 703
Flags: HW
TeX: 694 0
HStem: 513 112<372.689 494.194> 583 111<206.658 329.002>
LayerCount: 2
Fore
SplineSet
95 564 m 1
 153 627 205 694 268 694 c 0x40
 330 694 372 625 433 625 c 0
 480 625 516 662 550 695 c 1
 605 643 l 1
 546 580 495 513 433 513 c 0x80
 371 513 331 583 268 583 c 0x40
 221 583 182 544 150 513 c 1x80
 95 564 l 1
EndSplineSet
EndChar

StartChar: Abreve
Encoding: 258 258 138
Width: 847
Flags: HW
TeX: 994 0
HStem: 0 75<40 125 206 259 565 618 720 805> 206 76<292 532> 675 20<398 447.5> 781 81<358.913 489.084>
VStem: 225 76<923.728 995> 545 75<920.633 995>
DStem2: 125 75 206 75 0.38295 0.923769<31.0189 172.712 255.173 581.953> 479 656 429 537 0.383147 -0.923687<38.9872 365.766 448.227 589.92>
AnchorPoint: "below" 422 0 basechar 0
AnchorPoint: "above" 421 985 basechar 0
LayerCount: 2
Fore
SplineSet
225 995 m 1
 301 995 l 1
 304 909 366 862 423 862 c 0
 475 862 541 902 545 995 c 1
 620 995 l 1
 617 862 521 781 422 781 c 0
 316 781 227 870 225 995 c 1
EndSplineSet
Refer: 75 65 S 1 0 0 1 0 -0 3
AlternateSubs2: "Stilistic set 01 subtable" Abreve.vn
AlternateSubs2: "Latin alternatives subtable" Abreve.vn
Substitution2: "Latin Vietnamese substitutions subtable" Abreve.vn
EndChar

StartChar: Aogonek
Encoding: 260 260 139
Width: 847
Flags: HW
TeX: 694 194
HStem: -205 82<690.84 755.798> 0 75<40 125 206 259 565 618 720 805> 206 76<292 532> 675 20G<398 447.5>
VStem: 592 94<-120.89 -36.3703>
DStem2: 125 75 206 75 0.38295 0.923769<31.0189 172.712 255.173 581.953> 479 656 429 537 0.383147 -0.923687<38.9872 365.766 448.227 589.92>
AnchorPoint: "above" 421 705 basechar 0
LayerCount: 2
Fore
SplineSet
40 0 m 1
 40 75 l 1
 125 75 l 1
 370 666 l 2
 378 685 385 695 411 695 c 0
 418 695 425 695 432 695 c 0
 463 695 466 686 479 656 c 2
 720 75 l 1
 805 75 l 1
 805 0 l 1
 762 0 l 2
 722 0 686 -52 686 -83 c 0
 686 -104 700 -123 717 -123 c 0
 737 -123 747 -100 763 -100 c 0
 771 -100 811 -123 811 -140 c 0
 811 -159 766 -205 707 -205 c 0
 654 -205 592 -166 592 -100 c 0
 592 -60 616 -28 645 0 c 1
 565 0 l 1
 565 75 l 1
 618 75 l 1
 564 206 l 1
 260 206 l 1
 206 75 l 1
 259 75 l 1
 259 0 l 1
 40 0 l 1
292 282 m 1
 532 282 l 1
 429 537 l 1
 412 586 l 1
 385 505 316 345 292 282 c 1
EndSplineSet
Ligature2: "Latin ligatures subtable" A uni0328
EndChar

StartChar: Ccaron
Encoding: 268 268 141
Width: 831
Flags: HW
TeX: 994 0
HStem: -11 76<346.021 579.422> 630 75<345.094 570.587>
VStem: 63 100<232.065 461.735> 672 94<439.882 541.825> 689 76<160.006 247.875>
AnchorPoint: "below" 448 0 basechar 0
AnchorPoint: "above" 448 954 basechar 0
LayerCount: 2
Fore
SplineSet
325 935 m 1
 325 936 l 1
 353 974 l 1
 398 947 472 894 483 894 c 0xe0
 497 894 542 933 613 974 c 1
 642 936 l 1
 642 935 l 1
 484 803 l 1
 483 803 l 1
 325 935 l 1
EndSplineSet
Refer: 77 67 S 1 0 0 1 0 0 3
EndChar

StartChar: Dcaron
Encoding: 270 270 142
Width: 871
Flags: HW
TeX: 994 0
HStem: 0 75<74 152 247 554.093> 619 76<74 152 247 554.718>
VStem: 152 95<75 619> 708 98<223.343 471.94>
AnchorPoint: "below" 415 0 basechar 0
AnchorPoint: "above" 415 964 basechar 0
LayerCount: 2
Fore
SplineSet
224 935 m 1
 224 936 l 1
 252 974 l 1
 297 948 371 894 382 894 c 0
 396 894 441 933 512 974 c 1
 540 936 l 1
 540 935 l 1
 382 803 l 1
 381 803 l 1
 224 935 l 1
EndSplineSet
Refer: 78 68 S 1 0 0 1 -0 0 3
EndChar

StartChar: Ecaron
Encoding: 282 282 143
Width: 733
Flags: HW
TeX: 994 0
HStem: 0 75<73 151 248 592.301> 322 75<248 410.831> 616 76<73 151 248 570.15>
VStem: 151 97<75 321 397 616> 414 75<228 318.697 399.826 490> 593 76<461 525.68> 625 76<209.658 257>
AnchorPoint: "below" 387 0 basechar 0
AnchorPoint: "above" 387 967 basechar 0
LayerCount: 2
Fore
SplineSet
173 935 m 1
 173 936 l 1
 202 974 l 1
 247 948 321 894 332 894 c 0xf8
 346 894 391 933 462 974 c 1
 490 936 l 1
 490 935 l 1
 332 803 l 1
 331 803 l 1
 173 935 l 1
EndSplineSet
Refer: 79 69 S 1 0 0 1 -0 0 3
EndChar

StartChar: Eogonek
Encoding: 280 280 144
Width: 733
Flags: HW
TeX: 694 194
HStem: -205 82<525.619 590.635> 0 75<73 151 248 480 552.219 592.363> 322 75<248 410.831> 616 76<73 151 248 570.15>
VStem: 151 97<75 321 397 616> 414 75<228 318.697 400.163 490> 427 94<-121.056 -36.145> 593 76<461 525.68> 625 76<209.658 257>
AnchorPoint: "above" 358 705 basechar 0
LayerCount: 2
Fore
SplineSet
73 0 m 1
 73 75 l 1
 151 75 l 1
 151 616 l 1
 73 616 l 1
 73 692 l 1
 644 692 l 1
 669 461 l 1
 593 461 l 1
 577 604 574 608 538 612 c 0
 503 616 433 616 379 616 c 2
 248 616 l 1
 248 397 l 1
 305 397 l 2
 409 397 410 397 413 431 c 0
 414 448 414 465 414 482 c 2
 414 490 l 1
 489 490 l 1
 489 228 l 1
 414 228 l 1
 414 237 l 2xfd
 414 306 412 316 391 319 c 0
 374 322 322 322 305 322 c 0
 286 322 267 321 248 321 c 1
 248 75 l 1
 402 75 l 2
 588 75 587 80 597 108 c 0
 607 136 614 182 625 257 c 1
 701 257 l 1
 663 0 l 1
 595 0 l 2
 561 0 521 -47 521 -83 c 0
 521 -100 532 -123 551 -123 c 0
 572 -123 583 -100 597 -100 c 0
 607 -100 646 -124 646 -140 c 0xfa80
 646 -158 601 -205 542 -205 c 0
 474 -205 427 -154 427 -101 c 0xfa80
 427 -59 453 -25 480 0 c 1
 73 0 l 1
EndSplineSet
EndChar

StartChar: Gbreve
Encoding: 286 286 145
Width: 899
Flags: HW
TeX: 994 0
HStem: -11 75<344.325 644.159> 215 75<524 668 766 846> 597 85<659.028 737.475> 630 75<346.597 677.111> 781 81<385.17 514.927>
VStem: 63 100<228.645 464.809> 254 75<923.728 995> 573 75<920.246 995> 668 98<86.8689 215>
LayerCount: 2
Fore
SplineSet
63 347 m 0
 63 493 143 706 463 706 c 0
 467 706 472 705 477 705 c 2
 484 705 l 2xdf80
 639 705 669 682 685 682 c 0xef80
 698 682 725 705 747 705 c 0xdf80
 766 705 766 691 766 679 c 2
 766 622 l 2
 766 598 760 597 727 597 c 2
 723 597 l 2xef80
 677 597 704 608 658 619 c 0
 627 626 577 630 496 630 c 0
 202 630 163 451 163 348 c 0
 163 212 231 64 494 64 c 0
 663 64 668 98 668 135 c 2
 668 215 l 1
 524 215 l 1
 524 290 l 1
 846 290 l 1
 846 215 l 1
 766 215 l 1
 766 32 l 2
 766 10 763 2 754 2 c 0
 742 2 724 20 705 40 c 1
 670 12 615 -11 459 -11 c 0
 182 -11 63 163 63 347 c 0
254 995 m 1
 329 995 l 1
 332 909 394 862 451 862 c 0xcf80
 502 862 569 901 573 995 c 1
 648 995 l 1
 645 861 549 781 451 781 c 0
 345 781 256 870 254 995 c 1
EndSplineSet
EndChar

StartChar: Lacute
Encoding: 313 313 146
Width: 669
Flags: HW
TeX: 889 0
HStem: 0 75<73 151 248 519.281> 619 76<73 151 248 346> 745 21G<108.676 177.739> 791 98<236.391 304.185>
VStem: 151 97<75 619> 546 75<185.04 257>
LayerCount: 2
Fore
SplineSet
90 816 m 1
 251 885 259 889 272 889 c 0
 300 889 316 864 316 841 c 0
 316 802 271 796 258 791 c 2
 116 745 l 1
 90 816 l 1
EndSplineSet
Refer: 86 76 S 1 0 0 1 -0 -0 3
EndChar

StartChar: Lcaron
Encoding: 317 317 147
Width: 669
Flags: HW
TeX: 994 0
HStem: 0 75<73 151 248 519.281> 619 76<73 151 248 346> 677 133<399.356 452.285>
VStem: 151 97<75 619> 383 149<697.191 777.198> 546 75<185.04 257>
LayerCount: 2
Fore
SplineSet
383 744 m 0
 383 780 410 810 450 810 c 0
 499 810 532 762 532 706 c 0
 532 611 456 549 438 549 c 0
 426 549 390 587 390 596 c 0xbc
 390 612 432 614 453 677 c 1
 395 679 383 721 383 744 c 0
EndSplineSet
Refer: 86 76 S 1 0 0 1 -0 0 3
EndChar

StartChar: Lslash
Encoding: 321 321 148
Width: 669
Flags: HW
TeX: 694 0
HStem: 0 75<73 151 248 519.281> 619 76<73 151 248 346>
VStem: 151 97<75 276 354.206 367.25 446 619> 546 75<185.04 257>
DStem2: 79 316 125 256 0.792998 0.609224<0 31.8382 215.398 397.151>
LayerCount: 2
Fore
SplineSet
73 0 m 1
 73 75 l 1
 151 75 l 1
 151 276 l 1
 125 256 l 1
 79 316 l 1
 148 369 150 367 151 385 c 1
 151 619 l 1
 73 619 l 1
 73 695 l 1
 346 695 l 1
 346 619 l 1
 248 619 l 1
 248 446 l 1
 394 558 l 1
 440 498 l 1
 241 345 249 356 248 337 c 1
 248 75 l 1
 368 75 l 2
 505 75 517 81 525 111 c 0
 534 141 541 208 546 257 c 1
 621 257 l 1
 596 0 l 1
 73 0 l 1
EndSplineSet
EndChar

StartChar: Nacute
Encoding: 323 323 149
Width: 889
Flags: HW
TeX: 889 0
HStem: 0 75<75 153 227 305> 619 76<75 153 582 660 734 812> 745 21G<353.676 422.739> 791 98<481.391 549.185>
VStem: 153 74<75 573> 660 74<159 619>
DStem2: 263 675 227 573 0.610264 -0.792198<58.8347 651.049>
LayerCount: 2
Fore
SplineSet
335 816 m 1
 496 885 503 889 516 889 c 0
 544 889 561 864 561 841 c 0
 561 802 516 796 503 791 c 2
 361 745 l 1
 335 816 l 1
EndSplineSet
Refer: 88 78 S 1 0 0 1 -0 -0 3
EndChar

StartChar: Ncaron
Encoding: 327 327 150
Width: 889
Flags: HW
TeX: 994 0
HStem: 0 75<75 153 227 305> 619 76<75 153 582 660 734 812>
VStem: 153 74<75 573> 660 74<159 619>
DStem2: 263 675 227 573 0.610264 -0.792198<58.8347 651.049>
LayerCount: 2
Fore
SplineSet
285 935 m 1
 285 936 l 1
 314 974 l 1
 359 948 433 894 444 894 c 0
 458 894 503 933 574 974 c 1
 602 936 l 1
 602 935 l 1
 444 803 l 1
 443 803 l 1
 285 935 l 1
EndSplineSet
Refer: 88 78 S 1 0 0 1 -0 0 3
EndChar

StartChar: Eng
Encoding: 330 330 151
Width: 903
Flags: HW
TeX: 694 0
HStem: -11 76<556.901 713.823> 0 75<73 151 248 326> 619 76<73 151> 650 75<369.245 603.798>
VStem: 151 97<75 557.109> 458 108<81.4219 159.313> 741 97<92.6343 537.641>
LayerCount: 2
Fore
SplineSet
73 0 m 1
 73 75 l 1
 151 75 l 1
 151 619 l 1
 73 619 l 1
 73 695 l 1
 248 695 l 1x6e
 248 641 l 1
 265 654 349 725 501 725 c 0
 655 725 818 643 837 490 c 0
 839 476 838 463 838 449 c 2
 838 170 l 2
 838 165 839 158 839 153 c 0
 839 39 749 -11 643 -11 c 0
 540 -11 458 39 458 114 c 0
 458 149 482 170 512 170 c 0
 542 170 566 147 566 116 c 0
 566 99 560 90 555 81 c 1
 563 78 589 65 640 65 c 0
 735 65 741 128 741 152 c 2
 741 452 l 2
 741 610 574 650 488 650 c 0x9e
 336 650 248 557 248 509 c 2
 248 75 l 1
 326 75 l 1
 326 0 l 1
 73 0 l 1
EndSplineSet
EndChar

StartChar: Ohungarumlaut
Encoding: 336 336 152
Width: 853
Flags: HW
TeX: 889 0
HStem: -11 84<310.138 538.263> 625 80<310.658 541.55> 745 21G<287.394 357.182 479.364 572.5>
VStem: 63 100<231.089 476.008> 688 100<232.291 475.587>
AnchorPoint: "below" 424 0 basechar 0
AnchorPoint: "above" 427 869 basechar 0
LayerCount: 2
Fore
SplineSet
268 816 m 1
 430 886 436 889 450 889 c 0
 473 889 494 871 494 838 c 2
 494 831 l 1
 625 887 626 889 642 889 c 0
 670 889 686 863 686 842 c 0
 686 802 658 800 487 745 c 1
 466 800 l 1
 295 745 l 1
 268 816 l 1
EndSplineSet
Refer: 89 79 S 1 0 0 1 -0 -0 3
EndChar

StartChar: Racute
Encoding: 340 340 153
Width: 839
Flags: HW
TeX: 889 0
HStem: -11 76<668.714 754.371> 0 75<74 152 247 324> 310 75<247 497.078> 619 76<74 152 247 527.081> 745 21G<332.676 402.174> 791 98<461.239 528.438>
VStem: 152 95<75 310 385 619> 551 99<82.7726 264.375> 594 100<440.432 563.302> 764 70<71.3132 117.748>
AnchorPoint: "below" 367 0 basechar 0
AnchorPoint: "above" 367 879 basechar 0
LayerCount: 2
Fore
SplineSet
314 816 m 1
 475 885 483 889 496 889 c 0x3e40
 524 889 540 864 540 841 c 0
 540 802 496 796 483 791 c 2
 340 745 l 1
 314 816 l 1
EndSplineSet
Refer: 92 82 S 1 0 0 1 -0 -0 3
EndChar

StartChar: Rcaron
Encoding: 344 344 154
Width: 839
Flags: HW
TeX: 994 0
HStem: -11 76<668.714 754.371> 0 75<74 152 247 324> 310 75<247 497.078> 619 76<74 152 247 527.081>
VStem: 152 95<75 310 385 619> 551 99<82.7726 264.375> 594 100<440.432 563.302> 764 70<71.3132 117.748>
AnchorPoint: "below" 367 0 basechar 0
AnchorPoint: "above" 367 964 basechar 0
LayerCount: 2
Fore
SplineSet
202 935 m 1
 202 936 l 1
 230 974 l 1
 275 947 349 894 360 894 c 0x39
 374 894 419 933 490 974 c 1
 519 936 l 1
 519 935 l 1
 361 803 l 1
 360 803 l 1
 202 935 l 1
EndSplineSet
Refer: 92 82 S 1 0 0 1 0 0 3
EndChar

StartChar: Scaron
Encoding: 352 352 156
Width: 639
Flags: HW
TeX: 994 0
HStem: -11 76<229.511 433.431> 635 70<199.264 381.404>
VStem: 63 72<146.809 230.911> 63 87<472.75 589.296> 487 87<115.659 244.899>
DStem2: 238 430 194 341 0.965751 -0.259469<-70.8274 267.179>
AnchorPoint: "below" 347 0 basechar 0
AnchorPoint: "above" 287 954 basechar 0
LayerCount: 2
Fore
SplineSet
161 935 m 1
 161 936 l 1
 189 974 l 1
 234 947 308 894 319 894 c 0xc8
 333 894 378 933 449 974 c 1
 477 936 l 1
 477 935 l 1
 319 803 l 1
 318 803 l 1
 161 935 l 1
EndSplineSet
Refer: 93 83 S 1 0 0 1 0 0 3
EndChar

StartChar: Scedilla
Encoding: 350 350 157
Width: 639
Flags: HW
TeX: 694 170
HStem: -219 76<209 386.696> -60 125<304.094 389.422> -11 21G<74.5 90.5> 635 70<200.087 381.679>
VStem: 63 87<472.714 590.104> 63 72<146.809 230.911> 399 93<-126.356 -71.2062> 487 87<115.062 244.664>
DStem2: 213 440 194 341 0.965751 -0.259469<-47.3446 293.707>
LayerCount: 2
Fore
SplineSet
63 13 m 2
 63 210 l 1
 64 230 73 231 87 231 c 2xb6
 108 231 l 2
 119 231 131 230 135 224 c 0
 143 213 133 166 175 122 c 0
 220 76 294 65 347 65 c 0xd6
 459 65 487 136 487 182 c 0
 487 235 449 270 416 286 c 0
 375 305 245 321 194 341 c 0
 132 365 63 425 63 517 c 0
 63 618 140 705 287 705 c 0
 397 705 451 655 471 637 c 1
 507 708 511 705 523 705 c 0
 540 705 542 695 542 681 c 2
 542 485 l 1
 541 464 537 463 500 463 c 2
 493 463 l 2
 483 463 475 464 470 470 c 0
 462 481 459 635 286 635 c 0
 199 635 150 589 150 530 c 0
 150 484 185 454 213 440 c 0
 251 421 381 400 423 387 c 0
 495 364 574 298 574 192 c 0
 574 144 557 52 458 10 c 0xb9
 445 4 430 0 416 -4 c 1
 445 -16 492 -43 492 -102 c 0
 492 -211 343 -219 248 -219 c 2
 209 -219 l 1
 209 -143 l 1
 221 -143 l 2
 294 -143 399 -142 399 -101 c 0
 399 -59 331 -60 304 -60 c 1xd2
 304 -9 l 1
 199 0 146 44 133 55 c 1
 104 0 99 -11 82 -11 c 0
 67 -11 63 -3 63 13 c 2
EndSplineSet
EndChar

StartChar: Tcaron
Encoding: 356 356 158
Width: 789
Flags: HW
TeX: 994 0
HStem: 0 75<235 345 443 553> 614 75<132.699 345 443 654.692>
VStem: 41 75<458 553.118> 345 98<75 614> 671 76<458 553.118>
AnchorPoint: "below" 394 0 basechar 0
AnchorPoint: "above" 394 970 basechar 0
LayerCount: 2
Fore
SplineSet
236 935 m 1
 236 936 l 1
 264 974 l 1
 309 948 383 894 394 894 c 0
 408 894 453 933 524 974 c 1
 552 936 l 1
 552 935 l 1
 395 803 l 1
 394 803 l 1
 236 935 l 1
EndSplineSet
Refer: 94 84 S 1 0 0 1 -0 0 3
EndChar

StartChar: Tcommaaccent
Encoding: 354 354 159
Width: 789
Flags: HW
TeX: 694 170
HStem: -219 76<252 429.568> 0 75<235 345 450 553> 614 75<132.699 345 443 654.692>
VStem: 41 75<458 553.118> 345 98<75 614> 443 93<-126.487 -70.8584> 671 76<458 553.118>
LayerCount: 2
Fore
SplineSet
41 458 m 1
 58 689 l 1
 730 689 l 1
 747 458 l 1
 671 458 l 1
 660 603 657 605 632 609 c 0
 611 613 577 614 522 614 c 2
 443 614 l 1
 443 75 l 1
 553 75 l 1
 553 0 l 1
 450 0 l 1
 513 -22 536 -62 536 -103 c 0
 536 -215 378 -219 278 -219 c 2
 252 -219 l 1
 252 -143 l 1
 370 -143 444 -138 443 -99 c 1
 439 -60 380 -60 348 -60 c 1
 348 0 l 1
 235 0 l 1
 235 75 l 1
 345 75 l 1
 345 614 l 1
 241 614 l 2
 195 614 148 613 137 601 c 0
 126 589 121 524 116 458 c 1
 41 458 l 1
EndSplineSet
EndChar

StartChar: Uhungarumlaut
Encoding: 368 368 160
Width: 868
Flags: HW
TeX: 889 0
HStem: -11 76<329.742 553.335> 619 76<73 151 248 326 563 641 717 794> 745 21G<295.676 365.182 487.364 579.5>
VStem: 151 97<144.178 619> 641 76<151.854 619>
AnchorPoint: "below" 439 0 basechar 0
AnchorPoint: "above" 434 879 basechar 0
LayerCount: 2
Fore
SplineSet
277 816 m 1
 440 886 445 889 459 889 c 0
 484 889 503 869 503 837 c 2
 503 831 l 1
 634 887 635 889 651 889 c 0
 679 889 695 863 695 842 c 0
 695 801 664 799 495 745 c 1
 474 800 l 1
 303 745 l 1
 277 816 l 1
EndSplineSet
Refer: 95 85 S 1 0 0 1 -0 -0 3
EndChar

StartChar: Uring
Encoding: 366 366 161
Width: 868
Flags: HW
TeX: 994 0
HStem: -11 76<329.742 553.335> 619 76<73 151 248 326 563 641 717 794> 706 75<391.663 498.211> 919 75<391.089 497.334>
VStem: 151 97<144.178 619> 317 64<790.391 908.088> 508 64<791.355 908.915> 641 76<151.854 619>
LayerCount: 2
Fore
SplineSet
317 849 m 0
 317 941 372 994 445 994 c 0
 521 994 572 936 572 850 c 0
 572 758 517 706 445 706 c 0
 368 706 317 763 317 849 c 0
381 850 m 0
 381 806 393 781 443 781 c 0
 495 781 508 804 508 849 c 0
 508 892 497 919 446 919 c 0
 390 919 381 892 381 850 c 0
EndSplineSet
Refer: 95 85 S 1 0 0 1 -0 -0 3
EndChar

StartChar: Ydieresis
Encoding: 376 376 162
Width: 847
Flags: HW
TeX: 994 0
ItalicCorrection: 28
HStem: 0 75<298 376 471 548> 619 76<21 118 237 267 604 633 728 825> 744 133<262.654 359.861 486.107 583.346>
VStem: 245 133<761.776 859.701> 376 95<75 303.188> 468 133<761.776 859.338>
DStem2: 237 619 118 619 0.602348 -0.798234<0 329.803> 436 356 483 294 0.601964 0.798523<0 328.598>
AnchorPoint: "below" 422 0 basechar 0
AnchorPoint: "above" 422 867 basechar 0
LayerCount: 2
Fore
SplineSet
245 811 m 0
 245 850 277 877 311 877 c 0
 346 877 378 850 378 811 c 0xf0
 378 775 349 744 311 744 c 0
 276 744 245 772 245 811 c 0
468 811 m 0
 468 849 500 877 535 877 c 0
 570 877 601 850 601 811 c 0
 601 772 570 744 535 744 c 0xe4
 495 744 468 777 468 811 c 0
EndSplineSet
Refer: 99 89 S 1 0 0 1 0 -0 3
EndChar

StartChar: Zcaron
Encoding: 381 381 164
Width: 703
Flags: HW
TeX: 994 0
HStem: 0 81<201 544.521> 619 76<178.049 502>
VStem: 79 76<464 594.335> 569 75<142.933 268>
DStem2: 78 80 201 81 0.618272 0.785964<76.8335 685.782>
AnchorPoint: "below" 354 0 basechar 0
AnchorPoint: "above" 354 964 basechar 0
LayerCount: 2
Fore
SplineSet
192 935 m 1
 192 936 l 1
 220 974 l 1
 265 948 339 894 350 894 c 0
 364 894 409 933 480 974 c 1
 508 936 l 1
 508 935 l 1
 350 803 l 1
 349 803 l 1
 192 935 l 1
EndSplineSet
Refer: 100 90 S 1 0 0 1 0 0 3
EndChar

StartChar: IJ
Encoding: 306 306 166
Width: 975
Flags: HW
TeX: 694 0
HStem: -11 76<557.461 715.159> 0 75<69 151 249 330> 619 76<69 151 249 330 643 744 839 897>
VStem: 151 98<75 619> 459 108<81.5603 158.929> 744 95<94.1711 619>
LayerCount: 2
Fore
SplineSet
459 113 m 0
 459 148 483 170 512 170 c 0
 541 170 567 148 567 116 c 0
 567 102 563 93 556 81 c 1
 564 78 590 65 641 65 c 0xbc
 716 65 744 102 744 158 c 2
 744 619 l 1
 643 619 l 1
 643 695 l 1
 897 695 l 1
 897 619 l 1
 839 619 l 1
 839 156 l 2
 839 31 739 -11 644 -11 c 0
 539 -11 459 38 459 113 c 0
EndSplineSet
Refer: 83 73 S 1 0 0 1 0 0 2
Ligature2: "Latin Dutch ligatures subtable" I J
EndChar

StartChar: dcroat
Encoding: 273 273 168
Width: 644
Flags: HW
TeX: 694 0
HStem: -5 75<199.483 357.082 529.322 601> 402 76<203.57 374.211> 505 76<193 437 526 583> 608 76<362 435.735> 675 20G<362 526>
VStem: 38 98<136.665 333.132> 434 92<129.512 361.656 427 505>
LayerCount: 2
Fore
SplineSet
38 236 m 0
 38 366 102 478 241 478 c 0
 308 478 380 462 437 427 c 1
 437 505 l 1
 193 505 l 1
 193 581 l 1
 437 581 l 1
 432 605 423 608 368 608 c 2
 362 608 l 1
 362 684 l 1xf6
 526 695 l 1xee
 526 581 l 1
 583 581 l 1
 583 505 l 1
 526 505 l 1
 526 113 l 2
 526 80 537 75 591 75 c 2
 601 75 l 1
 601 -0 l 1
 434 -5 l 1
 434 59 l 1
 384 23 322 -5 238 -5 c 0
 151 -5 39 51 38 236 c 0
136 235 m 0
 136 103 210 70 284 70 c 0
 369 70 434 134 434 180 c 2
 434 318 l 2
 434 337 430 343 420 354 c 0
 410 365 371 402 298 402 c 0xe6
 169 402 136 321 136 235 c 0
EndSplineSet
AlternateSubs2: "Stilistic set 01 subtable" dcroat.vn
AlternateSubs2: "Latin alternatives subtable" dcroat.vn
Substitution2: "Latin Vietnamese substitutions subtable" dcroat.vn
EndChar

StartChar: section
Encoding: 167 167 169
Width: 511
Flags: HW
TeX: 694 194
HStem: -200 76<193.759 323.431> 624 76<185.008 315.623>
VStem: 79 65<210.3 311.187 483.702 584.888> 96 91<-86.6264 -20.766> 322 92<520.927 586.533> 365 65<-85.0581 16.6582 187.954 289.7>
LayerCount: 2
Fore
SplineSet
79 256 m 0
 79 314 108 359 151 393 c 1
 106 431 79 475 79 530 c 0
 79 632 165 700 255 700 c 0
 347 700 414 632 414 562 c 0
 414 523 384 514 368 514 c 0
 344 514 322 532 322 559 c 0xe8
 322 570 325 577 331 587 c 1
 321 599 300 624 254 624 c 0
 199 624 144 585 144 532 c 0
 144 461 247 445 307 415 c 0
 337 400 430 347 430 244 c 0xe4
 430 186 402 141 359 107 c 1
 396 76 430 33 430 -30 c 0
 430 -124 353 -200 255 -200 c 0
 160 -200 96 -130 96 -63 c 0
 96 -24 126 -14 142 -14 c 0
 166 -14 187 -32 187 -59 c 0
 187 -73 183 -79 179 -87 c 1
 189 -99 210 -124 256 -124 c 0
 311 -124 365 -84 365 -31 c 0xd4
 365 40 262 55 202 85 c 0
 172 100 79 153 79 256 c 0
144 257 m 0xe0
 144 182 283 154 283 154 c 1
 303 154 366 184 366 243 c 0
 366 318 227 346 227 346 c 1
 207 346 144 316 144 257 c 0xe0
EndSplineSet
EndChar

StartChar: abreve
Encoding: 259 259 170
Width: 562
Flags: HW
TeX: 772 0
HStem: -6 76<167.151 302.233 463.531 556.463> 233 56<212.486 368> 405 75<184.345 333.402> 543 81<224.51 349.157>
VStem: 46 93<97.3751 182.158> 82 103<356.66 402.602> 89 76<688.245 772> 368 92<105.124 233 289 373.488> 408 76<690.247 772>
AnchorPoint: "below" 247 0 basechar 0
AnchorPoint: "above" 247 752 basechar 0
LayerCount: 2
Fore
SplineSet
89 772 m 1
 165 772 l 1
 168 679 224 624 286 624 c 0xf280
 339 624 405 668 408 772 c 1
 484 772 l 1
 482 638 394 543 286 543 c 0
 183 543 92 633 89 772 c 1
EndSplineSet
Refer: 107 97 S 1 0 0 1 0 -0 3
AlternateSubs2: "Stilistic set 01 subtable" abreve.vn
AlternateSubs2: "Latin alternatives subtable" abreve.vn
Substitution2: "Latin Vietnamese substitutions subtable" abreve.vn
EndChar

StartChar: aogonek
Encoding: 261 261 171
Width: 562
Flags: HW
TeX: 472 194
HStem: -205 83<445.897 520.513> -6 76<167.151 302.233 467.622 556.547> 233 56<212.486 368> 405 75<184.507 334.018>
VStem: 46 93<97.3751 182.158> 82 103<356.62 402.602> 349 93<-120.3 -33.5529> 368 92<105.124 233 289 373.622>
AnchorPoint: "above" 248 480 basechar 0
LayerCount: 2
Fore
SplineSet
46 140 m 0xfa
 46 259 229 289 368 289 c 1
 368 312 l 2
 368 335 366 366 328 388 c 0
 301 404 269 405 239 405 c 0
 217 405 199 404 185 403 c 1
 185 358 151 347 133 347 c 0
 107 347 82 365 82 399 c 0xf5
 82 477 189 480 248 480 c 0
 462 480 460 342 460 310 c 2
 460 105 l 1
 461 79 474 77 531 75 c 0
 553 74 558 66 558 44 c 2
 558 27 l 1
 557 4 548 0 529 0 c 2
 518 0 l 2
 503 0 496 -1 478 -17 c 0
 459 -34 442 -57 442 -83 c 0
 442 -102 453 -122 471 -122 c 0
 492 -122 503 -99 517 -99 c 0
 526 -99 567 -119 567 -139 c 0
 567 -152 527 -205 462 -205 c 0
 395 -205 349 -153 349 -100 c 0
 349 -52 379 -17 413 12 c 1
 384 26 379 43 376 59 c 1
 319 9 242 -6 181 -6 c 0
 80 -6 46 88 46 140 c 0xfa
139 142 m 0
 139 113 167 70 241 70 c 0xf9
 283 70 368 84 368 159 c 2
 368 233 l 1
 179 229 139 178 139 142 c 0
EndSplineSet
EndChar

StartChar: dcaron
Encoding: 271 271 174
Width: 791
Flags: HW
TeX: 694 0
HStem: -5 75<199.483 357.082 528.95 601> 402 76<203.57 374.211> 608 76<362 435.342> 610 133<588.356 641.286> 675 20<362 526>
VStem: 38 98<136.665 333.132> 434 92<129.512 361.656 427 605.336> 572 150<630.194 709.652>
LayerCount: 2
Fore
SplineSet
572 677 m 0
 572 713 599 743 639 743 c 0
 688 743 722 695 722 639 c 0
 722 544 645 483 627 483 c 0
 615 483 579 520 579 529 c 0xd7
 579 545 621 547 642 610 c 1
 584 612 572 654 572 677 c 0
EndSplineSet
Refer: 110 100 S 1 0 0 1 -0 -0 2
EndChar

StartChar: ecaron
Encoding: 283 283 175
Width: 512
Flags: HW
TeX: 772 0
HStem: -5 81<207.751 375.5> 232 64<134 395> 405 75<190.028 346.738>
DStem2: 146 787 109 756 0.625637 -0.780115<1.035 188.981> 271 645 271 554 0.625637 0.780115<0 187.946>
AnchorPoint: "below" 285 0 basechar 0
AnchorPoint: "above" 271 767 basechar 0
LayerCount: 2
Fore
SplineSet
109 756 m 1
 109 757 l 1
 145 787 l 1
 146 787 l 1
 271 645 l 1
 396 787 l 1
 397 787 l 1
 433 757 l 1
 433 756 l 1
 271 554 l 1
 109 756 l 1
EndSplineSet
Refer: 111 101 S 1 0 0 1 0 0 3
EndChar

StartChar: eogonek
Encoding: 281 281 176
Width: 512
Flags: HW
TeX: 472 194
HStem: -205 82<305.612 370.129> 232 64<134 395> 405 75<189.894 347.022>
VStem: 207 94<-120.854 -36.0742> 401 76<101.065 150.718 296 344.328>
AnchorPoint: "above" 272 480 basechar 0
LayerCount: 2
Fore
SplineSet
31 239 m 0
 31 381 125 480 272 480 c 0
 437 480 479 357 479 259 c 0
 479 233 464 232 449 232 c 2
 129 232 l 1
 133 181 150 76 312 76 c 0
 365 76 388 105 401 131 c 0
 412 153 417 151 442 151 c 2
 450 151 l 2
 469 151 477 143 477 131 c 0
 477 118 468 100 455 80 c 0
 405 7 301 -9 301 -83 c 0
 301 -103 314 -123 332 -123 c 0
 351 -123 362 -100 377 -100 c 0
 388 -100 425 -125 425 -140 c 0
 425 -160 380 -205 322 -205 c 0
 255 -205 207 -154 207 -101 c 0
 207 -61 229 -30 255 -4 c 1
 55 20 31 172 31 239 c 0
134 296 m 1
 395 296 l 1
 389 333 370 405 271 405 c 0
 245 405 156 401 134 296 c 1
EndSplineSet
EndChar

StartChar: gbreve
Encoding: 287 287 177
Width: 575
Flags: HW
TeX: 772 194
ItalicCorrection: 15
HStem: -200 67<160.516 412.484> -5 85<148.336 432.147> 135 68<184.923 323.714> 378 105<475.81 540.448> 410 68<184.723 323.672> 543 81<224.51 349.157>
VStem: 31 84<-99.8293 -21.1226> 66 90<232.043 380.16> 78 59<91.8758 163.429> 89 76<688.245 772> 353 90<232.393 381.132> 408 76<690.247 772> 458 84<-99.2981 -29.115>
LayerCount: 2
Fore
SplineSet
89 772 m 1
 165 772 l 1
 168 679 224 624 286 624 c 0xe450
 339 624 405 668 408 772 c 1
 484 772 l 1
 482 638 394 543 286 543 c 0
 183 543 92 633 89 772 c 1
EndSplineSet
Refer: 113 103 S 1 0 0 1 0 0 3
EndChar

StartChar: lcaron
Encoding: 318 318 179
Width: 477
Flags: HW
TeX: 694 0
HStem: 0 75<48 123 213 288> 608 76<48 121.588> 610 133<275.849 328> 675 20<48 213>
VStem: 123 90<75 604.886> 259 149<626.014 710.198>
LayerCount: 2
Fore
SplineSet
259 677 m 0
 259 713 286 743 326 743 c 0
 375 743 408 695 408 639 c 0
 408 544 331 483 313 483 c 0xac
 301 483 266 519 266 530 c 0
 266 547 309 548 328 610 c 1
 270 612 259 654 259 677 c 0
EndSplineSet
Refer: 118 108 S 1 0 0 1 1 0 2
EndChar

StartChar: lslash
Encoding: 322 322 180
Width: 392
Flags: HW
TeX: 694 0
HStem: 0 75<80 155 244 319> 460 20G<266.054 307.333> 608 76<80 153.205> 675 20G<80 244>
VStem: 155 89<75 279 443 605.077>
DStem2: 74 312 120 252 0.792083 0.610413<0 41.831 214.618 275.035>
AnchorPoint: "above" 200 695 basechar 0
LayerCount: 2
Fore
SplineSet
74 312 m 1
 158 376 155 370 155 395 c 2xd8
 155 573 l 1
 154 605 140 608 88 608 c 2
 80 608 l 1
 80 684 l 1xe8
 244 695 l 1
 244 443 l 1
 292 480 l 1
 338 420 l 1
 244 348 l 1
 244 75 l 1
 319 75 l 1
 319 0 l 1
 80 0 l 1
 80 75 l 1
 155 75 l 1
 155 279 l 1
 120 252 l 1
 74 312 l 1
EndSplineSet
EndChar

StartChar: eng
Encoding: 331 331 183
Width: 644
Flags: HW
TeX: 472 194
HStem: -200 75<369 420.085> 0 75<46 121 213 288> 391 76<46 119.855> 402 76<280.391 416.46>
VStem: 121 92<75 349.792> 266 103<-124.453 -78.6199> 440 92<-90.8195 379.069>
AnchorPoint: "affricate-below" 644 -195 basechar 0
AnchorPoint: "affricate-above" 644 695 basechar 0
AnchorPoint: "below" 326 -195 basechar 0
AnchorPoint: "above" 326 480 basechar 0
LayerCount: 2
Fore
SplineSet
46 0 m 1
 46 75 l 1
 121 75 l 1
 121 352 l 2
 121 386 115 391 55 391 c 2
 46 391 l 1
 46 467 l 1xee
 208 478 l 1
 208 399 l 1
 224 418 276 478 377 478 c 0
 527 478 532 382 532 315 c 2
 532 33 l 2xde
 532 -148 433 -200 367 -200 c 0
 312 -200 266 -168 266 -120 c 0
 266 -90 289 -69 317 -69 c 0
 335 -69 369 -80 369 -125 c 1
 376 -125 l 2
 414 -125 440 -110 440 27 c 2
 440 311 l 2
 440 356 436 402 332 402 c 0xde
 314 402 273 401 240 358 c 0
 218 329 213 298 213 266 c 2
 213 75 l 1
 288 75 l 1
 288 0 l 1
 46 0 l 1
EndSplineSet
EndChar

StartChar: rcaron
Encoding: 345 345 186
Width: 454
Flags: HW
TeX: 772 0
HStem: 0 75<42 117 207 300> 355 123<331.112 395.483> 391 76<42 115.855>
VStem: 117 90<75 331.733>
DStem2: 122 787 86 756 0.623278 -0.782001<1.80402 188.954> 248 645 248 554 0.625637 0.780115<0 187.946>
AnchorPoint: "below" 171 0 basechar 0
AnchorPoint: "above" 229 769 basechar 0
LayerCount: 2
Fore
SplineSet
86 756 m 1
 86 757 l 1
 122 787 l 1
 247 645 l 1
 248 645 l 1
 373 787 l 1
 374 787 l 1
 410 757 l 1
 410 756 l 1
 248 554 l 1
 247 554 l 1x90
 86 756 l 1
EndSplineSet
Refer: 124 114 S 1 0 0 1 0 0 3
EndChar

StartChar: sacute
Encoding: 347 347 187
Width: 454
Flags: HW
TeX: 694 0
HStem: -6 76<156.874 311.873> 411 69<134.548 286.926> 526 170
VStem: 38 85<103.954 175.77 324.383 397.177> 144 219 330 85<88.5784 174.48>
AnchorPoint: "below" 231 0 basechar 0
AnchorPoint: "above" 222 676 basechar 0
LayerCount: 2
Fore
SplineSet
38 21 m 2
 38 157 l 1
 39 175 45 178 67 178 c 0
 118 178 110 174 120 146 c 0
 142 83 188 70 231 70 c 0
 281 70 330 82 330 134 c 0
 330 189 252 200 235 203 c 0
 192 211 38 225 38 347 c 0
 38 423 86 480 220 480 c 0
 285 480 315 461 328 453 c 1
 329 453 l 1
 332 457 350 481 368 481 c 0xf4
 387 481 386 464 386 456 c 2
 386 346 l 1
 385 329 378 326 358 326 c 0
 277 326 334 345 290 387 c 0
 270 406 241 411 214 411 c 0
 176 411 123 405 123 359 c 0
 123 309 204 302 254 293 c 0
 281 288 415 264 415 142 c 0
 415 54 363 -6 233 -6 c 0
 155 -6 124 23 104 39 c 1
 82 9 74 -5 57 -5 c 0
 39 -5 38 6 38 21 c 2
EndSplineSet
Refer: 12 180 S 1 0 0 1 -92 0 2
EndChar

StartChar: scaron
Encoding: 353 353 188
Width: 454
Flags: HW
TeX: 772 0
HStem: -6 76<156.874 312.005> 411 69<135.689 286.926>
VStem: 38 85<103.954 175.77 323.098 395.652> 330 85<88.5784 176.076>
DStem2: 87 787 50 756 0.625637 -0.780115<1.035 188.981> 213 645 213 554 0.623278 0.782001<0 187.15>
AnchorPoint: "below" 231 0 basechar 0
AnchorPoint: "above" 222 767 basechar 0
LayerCount: 2
Fore
SplineSet
38 21 m 2
 38 157 l 1
 39 175 45 178 67 178 c 0
 118 178 110 174 120 146 c 0
 142 83 188 70 231 70 c 0
 282 70 330 82 330 134 c 0
 330 165 304 182 283 191 c 0
 233 212 140 202 77 261 c 0
 52 285 38 312 38 346 c 0
 38 453 126 480 220 480 c 0
 285 480 315 461 328 453 c 1
 329 453 l 1
 332 457 350 481 368 481 c 0
 387 481 386 464 386 456 c 2
 386 346 l 1
 385 329 378 326 358 326 c 0
 277 326 334 345 290 387 c 0
 270 406 241 411 214 411 c 0
 170 411 123 402 123 358 c 0
 123 300 232 302 292 285 c 0
 342 270 415 228 415 142 c 0
 415 54 363 -6 233 -6 c 0
 155 -6 124 23 104 39 c 1
 82 9 74 -5 57 -5 c 0
 39 -5 38 6 38 21 c 2
50 756 m 1
 50 757 l 1
 86 787 l 1
 87 787 l 1
 212 645 l 1
 213 645 l 1
 338 787 l 1
 374 757 l 1
 374 756 l 1
 213 554 l 1
 212 554 l 1
 50 756 l 1
EndSplineSet
EndChar

StartChar: scedilla
Encoding: 351 351 189
Width: 454
Flags: HW
TeX: 472 170
HStem: -219 76<84 261.381> -60 130<180.446 267.562> -6 21G<55 66> 411 69<135.04 286.926>
VStem: 38 85<104.341 175.77 324.174 396.858> 275 93<-126.487 -70.2536> 330 85<89.6608 175.276>
LayerCount: 2
Fore
SplineSet
38 21 m 2
 38 157 l 1
 39 175 45 178 67 178 c 0
 118 178 110 174 120 146 c 0
 142 84 187 70 231 70 c 0
 281 70 330 82 330 134 c 0
 330 189 252 200 235 203 c 0
 192 211 38 225 38 347 c 0
 38 423 86 480 220 480 c 0
 285 480 315 461 328 453 c 1
 329 453 l 1
 344 469 352 480 367 480 c 0
 385 480 386 469 386 456 c 2
 386 347 l 1
 385 329 379 326 357 326 c 0
 278 326 334 345 290 387 c 0
 270 406 241 411 214 411 c 0
 175 411 123 404 123 358 c 0
 123 300 233 302 293 284 c 0
 341 270 415 227 415 142 c 0xda
 415 27 330 8 287 -2 c 1
 319 -14 368 -43 368 -103 c 0
 368 -213 220 -219 84 -219 c 1
 84 -143 l 1
 202 -143 276 -138 275 -99 c 1
 272 -60 212 -60 180 -60 c 1xdc
 180 -0 l 1
 143 9 125 22 104 39 c 1
 91 21 75 -6 57 -6 c 0xbc
 53 -6 48 -4 44 -1 c 0
 38 3 38 12 38 21 c 2
EndSplineSet
EndChar

StartChar: tcaron
Encoding: 357 357 190
Width: 447
Flags: HW
TeX: 694 0
HStem: -5 81<164.946 291.127> 397 75<21 76.7578 206 363> 675 133<313.849 366>
VStem: 113 93<84.4096 397> 130 76<542.045 675> 297 149<691.014 775.198> 307 76<92.2756 187>
LayerCount: 2
Fore
SplineSet
21 397 m 1
 21 472 l 1
 70 475 129 508 130 675 c 1
 206 675 l 1
 206 472 l 1xe8
 363 472 l 1
 363 397 l 1
 206 397 l 1
 206 156 l 2
 206 126 207 76 255 76 c 0
 276 76 307 92 307 160 c 0xf2
 307 169 307 178 307 187 c 1
 383 187 l 1
 383 162 l 2
 383 28 270 -5 218 -5 c 0
 114 -5 113 102 113 155 c 2
 113 397 l 1xf2
 21 397 l 1
297 742 m 0
 297 778 324 808 364 808 c 0
 413 808 446 760 446 704 c 0
 446 609 369 547 351 547 c 0
 339 547 304 585 304 594 c 0xe4
 304 610 345 611 366 675 c 1
 308 677 297 719 297 742 c 0
EndSplineSet
EndChar

StartChar: tcommaaccent
Encoding: 355 355 191
Width: 447
Flags: HW
TeX: 674 170
HStem: -219 76<115 291.544> -60 136<215.891 282.641> 397 75<21 76.4941 206 363>
VStem: 113 93<84.2812 397> 130 76<542.045 675> 305 93<-126.038 -71.5029> 307 76<88.7757 187>
LayerCount: 2
Fore
SplineSet
21 397 m 1
 21 472 l 1
 70 475 128 508 130 675 c 1
 206 675 l 1
 206 472 l 1xe8
 363 472 l 1
 363 397 l 1
 206 397 l 1
 206 156 l 2
 206 126 207 76 255 76 c 0
 275 76 307 90 307 160 c 0xf2
 307 169 307 178 307 187 c 1
 383 187 l 1
 383 163 l 2xf2
 383 132 383 55 284 8 c 1
 335 -5 398 -32 398 -102 c 0
 398 -213 250 -219 115 -219 c 1
 115 -143 l 1
 129 -143 l 2
 198 -143 305 -142 305 -101 c 0
 305 -60 239 -60 211 -60 c 1
 211 -5 l 1
 119 4 113 82 113 155 c 2
 113 397 l 1xf4
 21 397 l 1
EndSplineSet
EndChar

StartChar: ydieresis
Encoding: 255 255 194
Width: 612
Flags: HW
TeX: 694 194
ItalicCorrection: 15
HStem: -200 75<124.163 205.422> 397 75<25 103 195 245 381 431 509 587> 561 133<146.375 242.861 369.5 466.338>
VStem: 25 99<-122.924 -74.6364> 128 133<579.139 676.346> 351 133<578.757 676.346>
DStem2: 195 397 103 397 0.381488 -0.924374<0 324.176> 260 -16 509 397 0.381841 0.924228<-105.897 16.4803 122.827 447.001>
AnchorPoint: "below" 306 -195 basechar 0
AnchorPoint: "above" 306 682 basechar 0
LayerCount: 2
Fore
SplineSet
128 628 m 0
 128 663 155 694 194 694 c 0
 229 694 261 667 261 628 c 0
 261 592 232 561 194 561 c 0
 160 561 128 590 128 628 c 0
351 628 m 0
 351 663 378 694 417 694 c 0
 452 694 484 667 484 628 c 0
 484 592 456 561 418 561 c 0
 378 561 351 595 351 628 c 0
EndSplineSet
Refer: 131 121 S 1 0 0 1 0 0 3
EndChar

StartChar: ij
Encoding: 307 307 198
Width: 676
Flags: HW
TeX: 694 194
HStem: -200 75<396 464.738> 0 75<61 136 226 293> 391 76<65 134.668 405 485.41> 458 20G<65 226 405 576> 562 133<118.457 214.646 461.5 557.893>
VStem: 100 133<580.457 677.701> 136 90<75 388.32> 293 103<-123.925 -78.2989> 443 133<579.299 677.224> 487 89<-104.749 387.579>
LayerCount: 2
Fore
SplineSet
293 -120 m 0
 293 -89 317 -69 345 -69 c 0
 363 -69 396 -79 396 -124 c 1
 402 -124 408 -125 414 -125 c 0
 443 -125 487 -113 487 -34 c 2
 487 357 l 1
 486 386 475 391 417 391 c 2
 405 391 l 1
 405 467 l 1xe940
 576 478 l 1
 576 -15 l 2xd940
 576 -23 577 -29 577 -37 c 0
 577 -167 452 -200 390 -200 c 0
 332 -200 293 -162 293 -120 c 0
443 628 m 0
 443 661 470 695 509 695 c 0
 544 695 576 667 576 628 c 0
 576 589 544 562 510 562 c 0xc980
 470 562 443 594 443 628 c 0
EndSplineSet
Refer: 56 46 S 1 0 0 1 8 562 2
Refer: 35 305 S 1 0 0 1 14 -0 2
Ligature2: "Latin Dutch ligatures subtable" i j
EndChar

StartChar: exclamdown
Encoding: 161 161 199
Width: 361
Flags: HW
TeX: 500 194
HStem: 367 133<131.5 228.346>
VStem: 113 133<-188.088 -28.75 384.299 481.543>
LayerCount: 2
Fore
SplineSet
113 -138 m 0
 113 -128 114 -118 115 -108 c 2
 141 260 l 2
 143 286 144 287 185 287 c 0
 213 287 216 284 218 263 c 2
 246 -126 l 1
 246 -140 l 2
 246 -180 213 -205 180 -205 c 0
 151 -205 113 -185 113 -138 c 0
113 433 m 0
 113 467 141 500 180 500 c 0
 215 500 246 472 246 433 c 0
 246 394 214 367 180 367 c 0
 140 367 113 399 113 433 c 0
EndSplineSet
EndChar

StartChar: questiondown
Encoding: 191 191 200
Width: 543
Flags: HW
TeX: 500 194
HStem: -200 75<175.484 368.688> -22 20G<413 440.5> 367 133<206.5 302.996>
VStem: 63 98<-110.102 -2.14434> 188 133<385.004 481.543> 217 76<150.711 285.5> 389 89<-104.027 -53.6533>
LayerCount: 2
Fore
SplineSet
63 -53 m 0
 63 30 116 59 137 78 c 0
 212 145 217 208 217 241 c 2
 217 257 l 2
 217 285 222 286 245 286 c 0
 292 286 293 285 293 260 c 2xf6
 293 240 l 2
 293 72 194 15 175 -9 c 0
 166 -21 161 -36 161 -55 c 0
 161 -119 202 -125 254 -125 c 0
 341 -125 370 -105 389 -90 c 1
 389 -89 l 1
 380 -77 376 -67 376 -53 c 0
 376 -22 399 -2 427 -2 c 0
 454 -2 478 -22 478 -55 c 0
 478 -142 383 -200 254 -200 c 0
 90 -200 63 -112 63 -53 c 0
188 433 m 0
 188 467 216 500 255 500 c 0
 290 500 321 472 321 433 c 0
 321 395 289 367 255 367 c 0xfa
 215 367 188 399 188 433 c 0
EndSplineSet
EndChar

StartChar: sterling
Encoding: 163 163 201
Width: 735
Flags: HW
TeX: 694 0
HStem: -5 144<98.0104 267.06> -5 76<428.019 605.857> 310 75<180.043 273 365 488.905> 651 75<406.14 540.964>
VStem: 273 92<134.932 310 385 607.859> 567 102<478.822 562.715> 630 71<95.0699 149.801>
LayerCount: 2
Fore
SplineSet
63 61 m 0
 63 124 141 139 203 139 c 0
 225 139 248 137 268 134 c 1
 273 154 273 167 273 185 c 2
 273 310 l 1
 203 310 l 2
 181 310 180 318 180 336 c 2xba
 180 361 l 2
 180 383 190 385 203 385 c 2
 273 385 l 1
 273 489 l 2
 273 497 272 503 272 511 c 0
 272 687 399 726 476 726 c 0
 600 726 669 614 669 525 c 0
 669 481 637 470 618 470 c 0
 591 470 567 490 567 521 c 0xbc
 567 546 581 557 588 563 c 1
 565 627 521 651 476 651 c 0
 368 651 365 558 365 512 c 2
 365 385 l 1
 468 385 l 1
 487 384 489 376 489 358 c 0
 489 350 489 342 489 334 c 0
 489 313 484 311 467 310 c 1
 365 310 l 1
 365 184 l 2
 365 150 362 135 355 113 c 1
 388 104 489 71 550 71 c 0
 626 71 622 136 630 145 c 0
 633 148 636 150 659 150 c 2
 665 150 l 2
 691 150 701 150 701 131 c 0
 701 75 641 -5 524 -5 c 0x7a
 448 -5 344 30 306 41 c 1
 262 5 212 -5 161 -5 c 0
 101 -5 63 21 63 61 c 0
EndSplineSet
EndChar

StartChar: Agrave
Encoding: 192 192 202
Width: 847
Flags: HW
TeX: 889 0
HStem: 0 75<40 125 206 259 565 618 720 805> 206 76<292 532> 675 20<398 447.5> 745 71<451.418 475.662>
DStem2: 125 75 206 75 0.38295 0.923769<31.0189 172.712 255.173 581.953> 479 656 429 537 0.383147 -0.923687<38.9872 365.766 448.227 589.92>
AnchorPoint: "below" 422 0 basechar 0
AnchorPoint: "above" 421 879 basechar 0
LayerCount: 2
Fore
SplineSet
273 842 m 0
 273 863 290 889 318 889 c 2
 320 889 l 2
 331 889 335 887 500 816 c 1
 473 745 l 1
 308 798 273 799 273 842 c 0
EndSplineSet
Refer: 75 65 S 1 0 0 1 -0 0 3
AlternateSubs2: "Stilistic set 01 subtable" Agrave.vn
AlternateSubs2: "Latin alternatives subtable" Agrave.vn
Substitution2: "Latin Vietnamese substitutions subtable" Agrave.vn
EndChar

StartChar: Aacute
Encoding: 193 193 203
Width: 847
Flags: HW
TeX: 889 0
HStem: 0 75<40 125 206 259 565 618 720 805> 206 76<292 532> 675 20<398 447.5> 745 21G<332.676 401.739> 791 98<460.391 528.185>
DStem2: 125 75 206 75 0.38295 0.923769<31.0189 172.712 255.173 581.953> 479 656 429 537 0.383147 -0.923687<38.9872 365.766 448.227 589.92>
AnchorPoint: "below" 422 0 basechar 0
AnchorPoint: "above" 421 879 basechar 0
LayerCount: 2
Fore
SplineSet
314 816 m 1
 475 885 483 889 496 889 c 0
 524 889 540 864 540 841 c 0
 540 802 495 796 482 791 c 2
 340 745 l 1
 314 816 l 1
EndSplineSet
Refer: 75 65 S 1 0 0 1 -0 0 3
AlternateSubs2: "Stilistic set 01 subtable" Aacute.vn
AlternateSubs2: "Latin alternatives subtable" Aacute.vn
Substitution2: "Latin Vietnamese substitutions subtable" Aacute.vn
EndChar

StartChar: Adieresis
Encoding: 196 196 206
Width: 847
Flags: HW
TeX: 994 0
HStem: 0 75<40 125 206 259 565 618 720 805> 206 76<292 532> 675 20<398 447.5> 745 132<261.413 359.346 485.413 583.346>
VStem: 244 133<762.654 859.701> 468 133<761.776 859.697>
DStem2: 125 75 206 75 0.38295 0.923769<31.0189 172.712 255.173 581.953> 479 656 429 537 0.383147 -0.923687<38.9872 365.766 448.227 589.92>
AnchorPoint: "below" 422 0 basechar 0
AnchorPoint: "above" 421 867 basechar 0
LayerCount: 2
Fore
SplineSet
244 811 m 0
 244 850 277 877 311 877 c 0
 346 877 377 850 377 811 c 0
 377 775 347 745 311 745 c 0
 271 745 244 776 244 811 c 0
468 811 m 0
 468 847 497 877 534 877 c 0
 569 877 601 850 601 811 c 0
 601 772 570 744 535 744 c 0
 495 744 468 777 468 811 c 0
EndSplineSet
Refer: 75 65 S 1 0 0 1 -0 -0 3
EndChar

StartChar: AE
Encoding: 198 198 208
Width: 1031
Flags: HW
TeX: 694 0
HStem: 0 75<40 125 207 259 412 470 566 889.223> 296 76<330 470 566 754.508> 619 76<329 352 434 470 566 867.68>
VStem: 470 96<75 296 372 619> 758 76<203 293.363 374.847 465> 890 75<464 528.68> 922 75<208.378 257>
DStem2: 125 75 207 75 0.385097 0.922876<31.578 270.963 353.039 589.462>
AnchorPoint: "below" 518 0 basechar 0
AnchorPoint: "above" 518 705 basechar 0
LayerCount: 2
Fore
SplineSet
40 0 m 1
 40 75 l 1
 125 75 l 1
 352 619 l 1
 329 619 l 1
 329 695 l 1
 940 695 l 1
 965 464 l 1
 890 464 l 1xfc
 874 607 871 611 838 615 c 0
 807 619 743 619 694 619 c 2
 566 619 l 1
 566 372 l 1
 657 372 l 2
 752 372 754 372 757 406 c 0
 759 423 758 440 758 457 c 2
 758 465 l 1
 834 465 l 1
 834 203 l 1
 758 203 l 1
 758 211 l 2
 758 284 754 291 733 294 c 0
 713 297 654 297 634 297 c 0
 611 297 589 296 566 296 c 1
 566 75 l 1
 711 75 l 2
 784 75 829 76 858 80 c 0
 896 85 897 92 922 257 c 1
 997 257 l 1xfa
 960 0 l 1
 412 0 l 1
 412 75 l 1
 470 75 l 1
 470 296 l 1
 299 296 l 1
 207 75 l 1
 259 75 l 1
 259 0 l 1
 40 0 l 1
330 372 m 1
 470 372 l 1xf8
 470 619 l 1
 434 619 l 1
 330 372 l 1
EndSplineSet
EndChar

StartChar: Ccedilla
Encoding: 199 199 209
Width: 831
Flags: HW
TeX: 694 170
HStem: -219 76<309 486.381> -60 125<405.759 493.047> 630 75<345.887 573.933>
VStem: 63 100<229.951 462.24> 500 93<-126.868 -71.4542> 670 96<443.174 545.224> 689 76<160.701 247.873>
AnchorPoint: "above" 448 705 basechar 0
LayerCount: 2
Fore
SplineSet
63 347 m 0
 63 563 220 705 448 705 c 0
 549 705 618 671 677 620 c 1
 729 706 733 705 748 705 c 0
 765 705 766 694 766 682 c 2
 766 458 l 2
 766 437 758 434 743 434 c 0
 741 434 740 435 738 435 c 0
 666 435 707 438 670 512 c 0xfc
 650 553 593 630 478 630 c 0
 343 630 163 573 163 346 c 0
 163 120 342 65 479 65 c 0
 579 65 678 121 689 223 c 0
 690 237 690 248 715 248 c 2xfa
 738 248 l 2
 758 248 765 246 765 226 c 0xfa
 765 180 736 38 520 -5 c 1
 557 -21 593 -51 593 -103 c 0
 593 -213 445 -219 309 -219 c 1
 309 -143 l 1
 427 -143 500 -138 500 -100 c 1
 497 -61 440 -60 405 -60 c 1
 405 -9 l 1
 177 14 63 161 63 347 c 0
EndSplineSet
EndChar

StartChar: Edieresis
Encoding: 203 203 213
Width: 733
Flags: HW
TeX: 994 0
HStem: 0 75<73 151 248 592.301> 322 75<248 410.831> 616 76<73 151 248 570.15> 744 133<210.375 307.587 434.025 529.996>
VStem: 151 97<75 321 397 616> 192 133<762.139 858.996> 414 75<228 318.697 399.826 490> 416 132<761.776 859.701> 593 76<461 525.68> 625 76<209.658 257>
AnchorPoint: "below" 387 0 basechar 0
AnchorPoint: "above" 387 870 basechar 0
LayerCount: 2
Fore
SplineSet
192 811 m 0
 192 845 219 877 258 877 c 0
 298 877 325 844 325 811 c 0xf4
 325 773 295 744 259 744 c 0
 219 744 192 777 192 811 c 0
416 811 m 0
 416 848 445 877 482 877 c 0
 517 877 548 850 548 811 c 0
 548 772 516 744 482 744 c 0xf1
 442 744 416 778 416 811 c 0
EndSplineSet
Refer: 79 69 S 1 0 0 1 0 0 3
EndChar

StartChar: Idieresis
Encoding: 207 207 217
Width: 400
Flags: HW
TeX: 994 0
HStem: 0 75<69 151 249 330> 619 76<69 151 249 330> 744 133<39.457 135.646 262.303 359.543>
VStem: 21 133<762.457 859.701> 151 98<75 619> 245 133<762.457 859.338>
AnchorPoint: "below" 200 0 basechar 0
AnchorPoint: "above" 200 867 basechar 0
LayerCount: 2
Fore
SplineSet
245 811 m 0
 245 849 275 877 311 877 c 0
 346 877 378 850 378 811 c 0
 378 772 345 744 311 744 c 0xe4
 271 744 245 777 245 811 c 0
EndSplineSet
Refer: 56 46 S 1 0 0 1 -71 744 2
Refer: 83 73 S 1 0 0 1 -0 -0 3
EndChar

StartChar: Eth
Encoding: 208 208 218
Width: 871
Flags: HW
TeX: 694 0
HStem: 0 75<74 152 247 554.093> 303 76<74.6044 152 247 472.562> 619 76<74 152 247 554.718>
VStem: 152 95<75 303 379 619> 708 98<223.343 471.94>
LayerCount: 2
Fore
SplineSet
74 0 m 1
 74 75 l 1
 152 75 l 1
 152 303 l 1
 101 303 l 2
 75 303 74 318 74 335 c 2
 74 346 l 2
 74 379 84 379 108 379 c 2
 152 379 l 1
 152 619 l 1
 74 619 l 1
 74 695 l 1
 434 695 l 2
 529 695 628 679 709 599 c 0
 776 532 806 436 806 342 c 0
 806 147 685 18 494 2 c 0
 474 0 454 0 434 0 c 2
 74 0 l 1
247 75 m 1
 418 75 l 1
 462 77 708 65 708 341 c 0
 708 564 568 619 417 619 c 2
 247 619 l 1
 247 379 l 1
 445 379 l 1
 473 378 473 363 473 347 c 2
 473 333 l 2
 473 312 466 303 444 303 c 2
 247 303 l 1
 247 75 l 1
EndSplineSet
EndChar

StartChar: Otilde
Encoding: 213 213 223
Width: 853
Flags: HW
TeX: 994 0
HStem: -11 84<310.138 538.263> 625 80<310.658 541.55> 827 109<452.241 552.799> 885 109<298.201 398.759>
VStem: 63 100<231.089 476.008> 688 100<232.291 475.587>
AnchorPoint: "below" 424 0 basechar 0
AnchorPoint: "above" 427 975 basechar 0
LayerCount: 2
Fore
SplineSet
202 866 m 1
 249 943 273 994 329 994 c 0xdc
 387 994 443 936 501 936 c 0
 546 936 570 975 585 995 c 1
 649 955 l 1
 602 878 578 827 522 827 c 0xec
 464 827 408 885 350 885 c 0
 305 885 281 846 266 826 c 1
 202 866 l 1
EndSplineSet
Refer: 89 79 S 1 0 0 1 0 -0 3
AlternateSubs2: "Stilistic set 01 subtable" Otilde.vn
AlternateSubs2: "Latin alternatives subtable" Otilde.vn
Substitution2: "Latin Vietnamese substitutions subtable" Otilde.vn
EndChar

StartChar: Odieresis
Encoding: 214 214 224
Width: 853
Flags: HW
TeX: 994 0
HStem: -11 84<310.138 538.263> 625 80<310.658 541.55> 744 133<264.776 361.68 489.5 585.612>
VStem: 63 100<231.089 476.008> 247 133<762.457 859.346> 471 133<761.757 859.701> 688 100<232.291 475.587>
AnchorPoint: "below" 424 0 basechar 0
AnchorPoint: "above" 427 857 basechar 0
LayerCount: 2
Fore
SplineSet
247 811 m 0
 247 846 275 877 314 877 c 0
 356 877 380 841 380 811 c 0
 380 777 352 744 314 744 c 0
 274 744 247 777 247 811 c 0
471 811 m 0
 471 845 498 877 537 877 c 0
 572 877 604 850 604 811 c 0
 604 775 574 744 538 744 c 0
 498 744 471 778 471 811 c 0
EndSplineSet
Refer: 89 79 S 1 0 0 1 -0 0 3
EndChar

StartChar: OE
Encoding: 338 338 225
Width: 1158
Flags: HW
TeX: 694 0
HStem: -11 75<340.677 549.229> -0 75<676 1016.46> 323 75<676 898.048> 619 76<676 995.647> 630 75<333.446 549.124>
VStem: 71 98<238.02 472.92> 582 94<95.5701 323 398 596.372> 902 75<230 318.962 401.976 491> 1018 75<464 528.68> 1050 75<208.378 257>
AnchorPoint: "above" 628 705 basechar 0
LayerCount: 2
Fore
SplineSet
71 342 m 0
 71 558 220 705 454 705 c 0xaf40
 518 705 566 694 640 694 c 0
 650 694 661 695 671 695 c 2
 1068 695 l 1
 1093 464 l 1
 1018 464 l 1x3780
 1002 609 998 611 964 615 c 0
 929 619 859 619 805 619 c 2
 676 619 l 1
 676 398 l 1
 754 398 l 2
 790 398 850 398 874 401 c 0
 898 404 902 410 902 483 c 2
 902 491 l 1
 977 491 l 1
 977 230 l 1
 902 230 l 1
 902 238 l 2
 902 309 899 317 874 320 c 0
 850 323 791 323 754 323 c 2
 676 323 l 1
 676 75 l 1
 829 75 l 1
 963 76 998 76 1012 90 c 0
 1026 104 1036 165 1050 257 c 1
 1125 257 l 1
 1088 -0 l 1
 641 -0 l 2x7740
 566 0 518 -11 453 -11 c 0
 221 -11 71 130 71 342 c 0
169 359 m 0
 169 194 269 64 459 64 c 0
 582 64 582 106 582 279 c 2
 582 429 l 2
 582 578 582 630 467 630 c 0xaf
 229 630 169 474 169 359 c 0
EndSplineSet
EndChar

StartChar: Oslash
Encoding: 216 216 226
Width: 894
Flags: HW
TeX: 743 48
HStem: -11 75<323.118 576.828> 630 75<315.212 570.349>
VStem: 63 93<218.606 470.121> 737 93<222.245 469.738>
DStem2: 151 -26 219 -71 0.551048 0.834474<0 99.1847 184.636 762.716 847.847 948.267>
LayerCount: 2
Fore
SplineSet
63 342 m 0
 63 557 210 705 446 705 c 0
 512 705 562 695 615 675 c 1
 674 765 l 1
 675 765 l 1
 742 721 l 1
 687 637 l 1
 772 580 830 476 830 343 c 0
 830 131 680 -11 448 -11 c 0
 397 -11 341 -5 277 18 c 1
 219 -71 l 1
 151 -26 l 1
 205 56 l 1
 113 119 63 221 63 342 c 0
156 343 m 0
 156 255 183 170 249 121 c 1
 572 610 l 1
 532 623 493 630 444 630 c 0
 249 629 156 517 156 343 c 0
321 83 m 1
 357 72 395 64 445 64 c 0
 645 64 737 175 737 341 c 0
 737 479 681 540 643 572 c 1
 321 83 l 1
EndSplineSet
EndChar

StartChar: Ugrave
Encoding: 217 217 227
Width: 868
Flags: HW
TeX: 889 0
HStem: -11 76<329.742 553.335> 619 76<73 151 248 326 563 641 717 794> 745 71<494.418 518.662>
VStem: 151 97<144.178 619> 641 76<151.854 619>
AnchorPoint: "below" 439 0 basechar 0
AnchorPoint: "above" 434 879 basechar 0
LayerCount: 2
Fore
SplineSet
316 842 m 0
 316 863 333 889 361 889 c 2
 363 889 l 2
 374 889 378 887 543 816 c 1
 516 745 l 1
 351 798 316 799 316 842 c 0
EndSplineSet
Refer: 95 85 S 1 0 0 1 -0 -0 3
AlternateSubs2: "Stilistic set 01 subtable" Ugrave.vn
AlternateSubs2: "Latin alternatives subtable" Ugrave.vn
Substitution2: "Latin Vietnamese substitutions subtable" Ugrave.vn
EndChar

StartChar: Uacute
Encoding: 218 218 228
Width: 868
Flags: HW
TeX: 889 0
HStem: -11 76<329.742 553.335> 619 76<73 151 248 326 563 641 717 794> 745 21G<391.676 460.739> 791 98<519.391 587.185>
VStem: 151 97<144.178 619> 641 76<151.854 619>
AnchorPoint: "below" 439 0 basechar 0
AnchorPoint: "above" 434 879 basechar 0
LayerCount: 2
Fore
SplineSet
373 816 m 1
 534 885 541 889 554 889 c 0
 582 889 599 864 599 841 c 0
 599 802 554 796 541 791 c 2
 399 745 l 1
 373 816 l 1
EndSplineSet
Refer: 95 85 S 1 0 0 1 -0 0 3
AlternateSubs2: "Stilistic set 01 subtable" Uacute.vn
AlternateSubs2: "Latin alternatives subtable" Uacute.vn
Substitution2: "Latin Vietnamese substitutions subtable" Uacute.vn
EndChar

StartChar: Udieresis
Encoding: 220 220 230
Width: 868
Flags: HW
TeX: 994 0
HStem: -11 76<329.742 553.335> 619 76<73 151 248 326 563 641 717 794> 744 133<274.004 370.346 497.107 593.893>
VStem: 151 97<144.178 619> 256 132<761.299 859.224> 479 133<761.776 859.338> 641 76<151.854 619>
AnchorPoint: "below" 439 0 basechar 0
AnchorPoint: "above" 434 867 basechar 0
LayerCount: 2
Fore
SplineSet
479 811 m 0
 479 849 511 877 545 877 c 0
 580 877 612 850 612 811 c 0
 612 778 586 744 546 744 c 0
 511 744 479 772 479 811 c 0
EndSplineSet
Refer: 21 729 S 1 0 0 1 147 182 2
Refer: 95 85 S 1 0 0 1 0 -0 3
EndChar

StartChar: Yacute
Encoding: 221 221 231
Width: 847
Flags: HW
TeX: 889 0
ItalicCorrection: 28
HStem: 0 75<298 376 471 548> 619 76<21 118 237 267 604 633 728 825> 745 21G<380.676 472.5>
VStem: 376 95<75 303.188>
DStem2: 237 619 118 619 0.602348 -0.798234<0 329.803> 436 356 483 294 0.601964 0.798523<0 328.598>
AnchorPoint: "below" 422 0 basechar 0
AnchorPoint: "above" 422 879 basechar 0
LayerCount: 2
Fore
SplineSet
362 816 m 1
 523 885 531 889 544 889 c 0
 572 889 588 864 588 841 c 0
 588 801 557 799 388 745 c 1
 362 816 l 1
EndSplineSet
Refer: 99 89 S 1 0 0 1 0 -0 3
AlternateSubs2: "Stilistic set 01 subtable" Yacute.vn
AlternateSubs2: "Latin alternatives subtable" Yacute.vn
Substitution2: "Latin Vietnamese substitutions subtable" Yacute.vn
EndChar

StartChar: Thorn
Encoding: 222 222 232
Width: 711
Flags: HW
TeX: 694 0
HStem: 0 75<75 153 245 323> 180 76<245 478.144> 504 76<245 483.412> 619 76<75 153 245 323>
VStem: 75 248<0 75 619 695> 153 92<75 180 256 504 580 619> 548 98<317.627 447.947>
LayerCount: 2
Fore
SplineSet
75 0 m 1
 75 75 l 1xfa
 153 75 l 1
 153 619 l 1xf6
 75 619 l 1
 75 695 l 1
 323 695 l 1
 323 619 l 1xfa
 245 619 l 1
 245 580 l 1
 404 580 l 2
 579 580 646 475 646 380 c 0
 646 300 602 180 391 180 c 2
 245 180 l 1
 245 75 l 1xf6
 323 75 l 1
 323 0 l 1
 75 0 l 1
245 256 m 1
 359 256 l 2
 398 256 447 257 491 284 c 0
 518 300 548 333 548 381 c 0xf6
 548 430 518 504 379 504 c 2
 245 504 l 1
 245 256 l 1
EndSplineSet
EndChar

StartChar: Germandbls
Encoding: 61699 61699 233
Width: 1278
Flags: HW
TeX: 694 0
HStem: -11 76<229.511 433.431 868.511 1072.13> 635 70<199.264 381.404 837.98 1019.97>
VStem: 63 72<146.809 230.911> 63 87<472.75 589.296> 487 87<115.659 244.899> 702 87<471.88 589.369> 702 72<146.809 230.911> 1126 87<115.646 244.326>
DStem2: 238 430 194 341 0.965751 -0.259469<-70.8274 267.179> 876 430 833 341 0.965468 -0.26052<-69.7687 267.491>
LayerCount: 2
Fore
SplineSet
702 13 m 2
 702 210 l 1
 703 230 712 231 724 231 c 2xcb
 747 231 l 2
 758 231 770 230 774 224 c 0xcb
 782 213 772 166 814 122 c 0
 859 76 933 65 986 65 c 0
 1098 65 1126 136 1126 182 c 0
 1126 235 1087 270 1054 286 c 0
 1013 305 884 321 833 341 c 0
 771 365 702 425 702 517 c 0
 702 618 777 705 925 705 c 0
 1035 705 1089 655 1109 637 c 1
 1145 708 1149 705 1161 705 c 2
 1162 705 l 2
 1179 705 1181 695 1181 681 c 2
 1181 485 l 1
 1180 464 1176 463 1139 463 c 2
 1132 463 l 2
 1122 463 1114 464 1109 470 c 0
 1101 481 1097 635 925 635 c 0
 824 635 789 576 789 530 c 0xcd
 789 474 839 441 876 430 c 0
 913 419 1027 399 1064 387 c 0
 1132 365 1213 299 1213 193 c 0
 1213 86 1141 -11 986 -11 c 0
 858 -11 796 36 772 55 c 1
 741 -4 737 -11 721 -11 c 0
 705 -11 702 -2 702 13 c 2
EndSplineSet
Refer: 93 83 S 1 0 0 1 0 0 2
EndChar

StartChar: aring
Encoding: 229 229 239
Width: 562
Flags: HW
TeX: 772 0
HStem: -6 76<167.151 302.233 463.531 556.463> 233 56<212.486 368> 405 75<184.345 333.402> 522 50<204.238 304.448> 722 50<204.229 304.762>
VStem: 46 93<97.3751 182.158> 82 103<356.66 402.602> 127 64<584.094 709.601> 318 64<584.204 709.906> 368 92<105.124 233 289 373.488>
LayerCount: 2
Fore
SplineSet
127 647 m 0
 127 722 178 772 255 772 c 0
 331 772 382 722 382 647 c 0
 382 571 331 522 254 522 c 0
 178 522 127 572 127 647 c 0
191 649 m 0
 191 617 194 572 254 572 c 0
 308 572 318 607 318 645 c 0
 318 677 315 722 255 722 c 0xf980
 204 722 191 691 191 649 c 0
EndSplineSet
Refer: 107 97 S 1 0 0 1 -0 -0 3
EndChar

StartChar: ae
Encoding: 230 230 240
Width: 831
Flags: HW
TeX: 472 0
HStem: -6 76<168.292 344.332 554.348 692.661> 210 65<202.271 369> 232 64<466 714> 405 75<184.67 334.841 523.628 669.167>
VStem: 49 93<94.0944 169.995> 82 103<356.66 402.556> 369 92<154.445 210>
AnchorPoint: "below" 424 0 basechar 0
AnchorPoint: "above" 410 480 basechar 0
LayerCount: 2
Fore
SplineSet
49 135 m 0
 49 247 220 270 369 275 c 1xda
 369 310 l 2
 369 334 367 366 329 388 c 0
 302 404 271 405 240 405 c 0
 218 405 199 404 185 403 c 1
 183 357 153 347 134 347 c 0
 106 347 82 368 82 399 c 0
 82 476 189 480 249 480 c 0
 316 480 379 473 430 412 c 1
 446 429 499 480 603 480 c 0
 759 480 798 357 798 262 c 0
 798 233 785 232 767 232 c 2
 461 232 l 1xb6
 468 131 532 76 645 76 c 0
 711 76 716 137 731 147 c 0
 739 152 750 151 759 151 c 2
 768 151 l 2
 789 151 796 143 796 132 c 0
 796 102 741 -5 616 -5 c 0
 505 -5 449 50 432 67 c 1
 403 34 348 -6 183 -6 c 0
 83 -6 49 82 49 135 c 0
142 137 m 0xda
 142 110 167 70 244 70 c 0
 289 70 349 80 368 114 c 0
 373 123 374 133 374 143 c 0
 374 159 371 188 369 210 c 1
 281 209 142 196 142 137 c 0xda
466 296 m 1
 714 296 l 1
 705 355 678 405 602 405 c 0xb2
 580 405 489 402 466 296 c 1
EndSplineSet
EndChar

StartChar: ccedilla
Encoding: 231 231 241
Width: 511
Flags: HW
TeX: 472 170
HStem: -219 76<145 323.6> -60 136<242.694 328.096> 400 81<203.74 366.62>
VStem: 38 98<151.427 335.206> 336 93<-126.946 -71.2221>
AnchorPoint: "above" 293 480 basechar 0
LayerCount: 2
Fore
SplineSet
38 236 m 0
 38 365 116 481 293 481 c 0
 361 481 465 477 465 400 c 0
 465 366 440 347 414 347 c 0
 399 347 368 354 363 398 c 1
 362 398 l 1
 342 399 322 400 302 400 c 0
 243 400 136 391 136 239 c 0
 136 109 237 76 315 76 c 0
 389 76 395 142 408 152 c 0
 413 156 420 156 426 156 c 2
 455 156 l 2
 466 156 477 155 477 142 c 0
 477 132 451 34 340 1 c 1
 378 -14 429 -41 429 -103 c 0
 429 -213 284 -219 145 -219 c 1
 145 -143 l 1
 156 -143 l 2
 232 -143 336 -142 336 -101 c 0
 336 -60 268 -60 241 -60 c 1
 241 -2 l 1
 51 31 38 186 38 236 c 0
EndSplineSet
EndChar

StartChar: edieresis
Encoding: 235 235 245
Width: 512
Flags: HW
TeX: 694 0
HStem: -5 81<207.751 375.5> 232 64<134 395> 405 75<190.028 346.738> 561 133<93.9533 191.861 318.5 414.893>
VStem: 77 133<578.757 676.338> 300 133<579.502 676.346>
AnchorPoint: "below" 285 0 basechar 0
AnchorPoint: "above" 271 674 basechar 0
LayerCount: 2
Fore
SplineSet
77 628 m 0
 77 664 106 694 143 694 c 0
 178 694 210 666 210 628 c 0
 210 592 181 561 143 561 c 0
 103 561 77 594 77 628 c 0
300 628 m 0
 300 663 327 694 366 694 c 0
 401 694 433 667 433 628 c 0
 433 591 403 561 367 561 c 0
 327 561 300 595 300 628 c 0
EndSplineSet
Refer: 111 101 S 1 0 0 1 0 0 3
EndChar

StartChar: idieresis
Encoding: 239 239 249
Width: 389
Flags: HW
TeX: 694 0
HStem: 0 75<80 155 245 312> 391 76<84 153.668> 458 20<84 245> 561 133<38.4131 135.996 263 359.346>
VStem: 21 133<579.004 675.625> 155 90<75 388.32> 245 132<578.406 676.701>
AnchorPoint: "above" 200 674 basechar 0
LayerCount: 2
Fore
SplineSet
21 627 m 0
 21 664 51 694 88 694 c 0
 123 694 154 667 154 628 c 0
 154 589 122 561 88 561 c 0
 48 561 21 593 21 627 c 0
245 628 m 0
 245 661 272 694 311 694 c 0
 346 694 377 667 377 628 c 0
 377 591 347 561 311 561 c 0x9e
 271 561 245 594 245 628 c 0
EndSplineSet
Refer: 35 305 S 1 0 0 1 33 0 2
Ligature2: "Latin ligatures excepting Turkic subtable" i uni0308
EndChar

StartChar: eth
Encoding: 240 240 250
Width: 575
Flags: HW
TeX: 694 0
HStem: -5 81<197.269 374.329> 405 75<195.338 374.506> 639 56<91.0663 209.689>
VStem: 31 98<145.638 338.223> 444 98<149.27 332.394>
LayerCount: 2
Fore
SplineSet
31 232 m 0
 31 378 130 480 286 480 c 0
 333 480 366 471 403 453 c 1
 372 507 314 567 296 567 c 0
 281 567 251 540 237 540 c 0
 224 540 201 585 201 594 c 0
 201 602 207 606 220 614 c 1
 184 628 144 639 97 639 c 0
 95 639 94 638 92 638 c 0
 83 638 71 639 71 649 c 0
 71 659 86 669 98 679 c 0
 111 690 118 695 136 695 c 0
 201 695 246 681 299 659 c 1
 335 682 352 692 362 692 c 0
 377 692 399 644 399 638 c 0
 399 630 392 624 374 615 c 1
 398 596 415 584 441 555 c 0
 538 447 542 330 542 296 c 0
 542 280 542 264 542 248 c 0
 542 45 399 -5 286 -5 c 0
 131 -5 31 90 31 232 c 0
129 244 m 0
 129 109 208 76 286 76 c 0
 412 76 444 161 444 237 c 0
 444 312 412 405 286 405 c 0
 207 405 129 373 129 244 c 0
EndSplineSet
EndChar

StartChar: ntilde
Encoding: 241 241 251
Width: 644
Flags: HW
TeX: 772 0
HStem: 0 75<46 121 213 288 365 440 532 607> 391 76<46 119.855> 402 76<280.913 416.248> 513 112<335.17 411.536> 582 112<241.948 317.83>
VStem: 121 92<75 352.622> 440 92<75 379.069>
LayerCount: 2
Fore
SplineSet
135 564 m 1
 207 642 252 694 287 694 c 0x8e
 327 694 328 625 366 625 c 0
 398 625 436 669 463 695 c 1
 518 643 l 1
 448 567 402 513 366 513 c 0x96
 326 513 325 582 287 582 c 0x8e
 255 582 217 539 190 513 c 1x96
 135 564 l 1
EndSplineSet
Refer: 120 110 S 1 0 0 1 -0 0 3
EndChar

StartChar: odieresis
Encoding: 246 246 256
Width: 575
Flags: HW
TeX: 694 0
HStem: -5 80<193.201 379.599> 405 75<192.284 381.431> 561 133<126.5 223 350.388 446.612>
VStem: 31 98<140.893 339.258> 108 133<579.139 676.346> 332 133<579.457 676.338> 444 98<140.681 339.044>
AnchorPoint: "below" 286 0 basechar 0
AnchorPoint: "above" 287 674 basechar 0
LayerCount: 2
Fore
SplineSet
108 628 m 0
 108 663 136 694 175 694 c 0
 215 694 241 662 241 628 c 0xe8
 241 590 210 561 175 561 c 0
 135 561 108 595 108 628 c 0
332 628 m 0
 332 666 362 694 398 694 c 0
 433 694 465 667 465 628 c 0
 465 592 435 561 399 561 c 0xe4
 359 561 332 594 332 628 c 0
EndSplineSet
Refer: 121 111 S 1 0 0 1 -0 0 3
EndChar

StartChar: oe
Encoding: 339 339 257
Width: 894
Flags: HW
TeX: 472 0
HStem: -5 75<191.944 364.399 618.669 756.612> 232 64<530 778> 405 75<187.139 368.378 586.909 732.035>
VStem: 31 92<142.294 338.588> 784 76<97.5156 150.465 296 345.877>
AnchorPoint: "below" 446 0 basechar 0
AnchorPoint: "above" 467 480 basechar 0
LayerCount: 2
Fore
SplineSet
31 239 m 0
 31 386 132 480 277 480 c 0
 404 480 457 414 477 391 c 1
 521 450 588 480 665 480 c 0
 822 480 861 358 861 262 c 0
 861 233 849 232 831 232 c 2
 524 232 l 1
 533 97 639 76 709 76 c 0
 750 76 772 101 784 130 c 1
 793 149 800 151 815 151 c 2
 828 151 l 2
 846 151 860 148 860 132 c 0
 860 101 805 -5 681 -5 c 0
 548 -5 490 72 478 87 c 1
 432 25 360 -5 277 -5 c 0
 129 -5 31 92 31 239 c 0
123 244 m 0
 123 109 198 70 277 70 c 0
 356 70 432 108 432 245 c 0
 432 373 354 405 278 405 c 0
 200 405 123 373 123 244 c 0
530 296 m 1
 778 296 l 1
 769 355 741 405 665 405 c 0
 643 405 553 402 530 296 c 1
EndSplineSet
EndChar

StartChar: oslash
Encoding: 248 248 258
Width: 575
Flags: HW
TeX: 569 97
HStem: -5 75<232.15 383.845> 405 75<191.824 342.495>
VStem: 35 88<134.597 332.138> 450 88<136.138 334.77>
DStem2: 47 -77 111 -117 0.528282 0.849069<0 141.509 226.262 560.528 639.399 784.564>
LayerCount: 2
Fore
SplineSet
35 232 m 0
 35 373 128 480 286 480 c 0
 324 480 355 475 384 465 c 1
 462 590 l 1
 526 549 l 1
 451 428 l 1
 504 387 538 318 538 232 c 0
 538 90 440 -5 286 -5 c 0
 250 -5 219 0 190 9 c 1
 111 -117 l 1
 47 -77 l 1
 122 43 l 1
 122 44 l 1
 95 65 35 118 35 232 c 0
123 233 m 0
 123 159 144 131 164 110 c 1
 343 399 l 1
 324 403 304 405 285 405 c 0
 204 405 123 371 123 233 c 0
231 75 m 1
 250 71 269 70 288 70 c 0
 418 70 450 148 450 231 c 0
 450 309 428 339 410 361 c 1
 409 361 l 1
 231 75 l 1
EndSplineSet
EndChar

StartChar: ucircumflex
Encoding: 251 251 261
Width: 644
Flags: HW
TeX: 772 0
HStem: -5 75<220.509 367.666 535.724 607> 391 76<46 119.759 365 438.858> 458 20<46 213 365 532>
VStem: 121 92<78.8605 388.237> 440 92<112.838 388.047>
DStem2: 326 778 326 691 0.798844 0.601539<-205.746 -52.3339> 327 778 327 691 0.800575 -0.599233<52.1332 206.328>
AnchorPoint: "below" 326 0 basechar 0
AnchorPoint: "above" 326 760 basechar 0
LayerCount: 2
Fore
SplineSet
160 653 m 1
 326 778 l 1
 327 778 l 1
 494 653 l 1
 448 594 l 1
 447 594 l 1
 327 691 l 1
 326 691 l 1x98
 207 594 l 1
 206 594 l 1
 160 653 l 1
EndSplineSet
Refer: 127 117 S 1 0 0 1 -0 0 3
EndChar

StartChar: udieresis
Encoding: 252 252 262
Width: 644
Flags: HW
TeX: 694 0
HStem: -5 75<220.509 367.666 535.724 607> 391 76<46 119.759 365 438.858> 458 20<46 213 365 532> 561 133<166.457 262.646 390.388 486.893>
VStem: 121 92<78.8605 388.237> 148 133<579.457 676.701> 372 133<578.776 676.338> 440 92<112.838 388.047>
AnchorPoint: "below" 326 0 basechar 0
AnchorPoint: "above" 326 676 basechar 0
LayerCount: 2
Fore
SplineSet
372 628 m 0
 372 666 402 694 438 694 c 0
 473 694 505 667 505 628 c 0
 505 589 473 561 439 561 c 0x92
 399 561 372 594 372 628 c 0
EndSplineSet
Refer: 56 46 S 1 0 0 1 56 561 2
Refer: 127 117 S 1 0 0 1 -0 -0 3
EndChar

StartChar: thorn
Encoding: 254 254 264
Width: 644
Flags: HW
TeX: 694 194
HStem: -195 76<42 117 209 284> -5 75<277.623 429.773> 397 81<279.95 436.281> 614 75<42 115.517> 680 20G<42 207>
VStem: 117 92<-119 55 126.186 355.234 425 610.679> 507 98<146.476 325.61>
LayerCount: 2
Fore
SplineSet
42 -119 m 1
 117 -119 l 1
 117 577 l 2
 117 610 105 614 48 614 c 2
 42 614 l 1
 42 689 l 1xf6
 207 700 l 1xee
 207 425 l 1
 283 469 374 478 430 478 c 0
 541 478 605 378 605 239 c 0
 605 66 499 -5 389 -5 c 0
 313 -5 254 22 209 55 c 1
 209 -119 l 1
 284 -119 l 1
 284 -195 l 1
 42 -195 l 1
 42 -119 l 1
209 176 m 2xe6
 209 134 267 70 345 70 c 0
 436 70 507 130 507 236 c 0
 507 335 447 397 355 397 c 0
 276 397 226 358 213 337 c 0
 209 331 209 323 209 316 c 2
 209 176 l 2xe6
EndSplineSet
EndChar

StartChar: germandbls
Encoding: 223 223 265
Width: 578
Flags: HW
TeX: 694 0
HStem: -5 75<42 117 361.46 440.999> 397 75<42 117> 625 75<220.288 359.882>
VStem: 42 165<0 75 397 472> 117 90<75 397 472 613.227> 270 84<74.6094 172.382 303.856 407.687> 377 72<478.297 607.487> 454 84<83.9766 185.671>
LayerCount: 2
Fore
SplineSet
42 0 m 1
 42 75 l 1xf7
 117 75 l 1
 117 397 l 1xef
 42 397 l 1
 42 472 l 1xf7
 117 472 l 1
 117 559 l 2
 117 643 159 700 289 700 c 0
 407 700 449 644 449 560 c 0
 449 472 430 426 397 414 c 0
 383 409 354 414 354 359 c 0
 354 286 391 305 440 287 c 0
 492 268 538 217 538 143 c 0
 538 45 483 -5 394 -5 c 0
 363 -5 346 2 322 20 c 1
 314 9 307 -5 289 -5 c 0
 271 -5 270 6 270 20 c 2
 270 151 l 1
 271 167 273 173 293 173 c 0xef
 299 173 305 173 311 173 c 0
 348 173 343 173 349 140 c 0
 356 95 364 70 395 70 c 0
 419 70 454 84 454 134 c 0
 454 165 437 190 412 199 c 0
 384 209 334 204 296 259 c 0
 278 284 270 314 270 346 c 0
 270 459 342 476 377 480 c 1
 369 566 380 583 361 604 c 0
 344 622 319 625 286 625 c 2
 283 625 l 1
 210 624 207 595 207 556 c 2xef
 207 0 l 1
 42 0 l 1
EndSplineSet
EndChar

StartChar: grave.uc
Encoding: 65542 -1 266
Width: 575
Flags: HW
TeX: 667 0
HStem: 523 71<298.451 323.563>
VStem: 121 226<583.285 600.456>
LayerCount: 2
Fore
SplineSet
121 619 m 0
 121 640 139 667 166 667 c 2
 168 667 l 2
 179 667 182 665 347 594 c 1
 321 523 l 1
 151 577 121 577 121 619 c 0
EndSplineSet
EndChar

StartChar: acute.uc
Encoding: 65543 -1 267
Width: 575
Flags: HW
TeX: 667 0
HStem: 523 144<395 423>
VStem: 226 226<582.895 603.281>
LayerCount: 2
Fore
SplineSet
226 594 m 1
 386 663 395 667 408 667 c 0
 435 667 452 642 452 619 c 0
 452 578 423 578 252 523 c 1
 226 594 l 1
EndSplineSet
EndChar

StartChar: tilde.uc
Encoding: 65544 -1 268
Width: 575
Flags: HW
TeX: 772 0
HStem: 604 110<313.377 415.741> 662 110<157.509 260.844>
LayerCount: 2
Fore
SplineSet
63 644 m 1
 110 721 134 772 190 772 c 0x40
 248 772 304 714 362 714 c 0x80
 407 714 432 752 447 772 c 1x40
 510 733 l 1
 463 656 439 604 383 604 c 0x80
 327 604 267 662 211 662 c 0x40
 166 662 142 624 127 604 c 1x80
 63 644 l 1
EndSplineSet
EndChar

StartChar: hungarumlaut.uc
Encoding: 65545 -1 270
Width: 575
Flags: HW
TeX: 667 0
ItalicCorrection: 5
HStem: 523 144<345.455 349.327 487 519>
LayerCount: 2
Fore
SplineSet
130 594 m 1
 292 664 298 667 312 667 c 0
 335 667 356 650 356 616 c 0
 356 614 355 611 355 609 c 1
 485 665 487 667 503 667 c 0
 531 667 547 640 547 619 c 0
 547 579 519 578 348 523 c 1
 328 578 l 1
 156 523 l 1
 130 594 l 1
EndSplineSet
EndChar

StartChar: ring.uc
Encoding: 65546 -1 271
Width: 868
Flags: HW
TeX: 772 0
HStem: 483 76<379.663 486.758> 697 75<379.146 485.897>
VStem: 305 64<569.888 687.291> 497 64<570.66 687.25>
LayerCount: 2
Fore
SplineSet
305 627 m 0
 305 733 374 772 433 772 c 0
 510 772 561 715 561 628 c 0
 561 523 493 483 433 483 c 0
 356 483 305 540 305 627 c 0
369 628 m 0
 369 585 381 559 431 559 c 0
 483 559 497 582 497 627 c 0
 497 671 485 697 434 697 c 0
 379 697 369 671 369 628 c 0
EndSplineSet
EndChar

StartChar: twelveudash
Encoding: 61700 61700 272
Width: 767
Flags: HW
TeX: 472 0
ItalicCorrection: 31
HStem: 254 76<0 766>
LayerCount: 2
Fore
SplineSet
0 254 m 1
 0 330 l 1
 766 330 l 1
 766 254 l 1
 0 254 l 1
EndSplineSet
EndChar

StartChar: threequartersemdash
Encoding: 63198 63198 273
Width: 862
Flags: HW
TeX: 472 0
ItalicCorrection: 31
HStem: 254 76<0 862>
LayerCount: 2
Fore
SplineSet
0 254 m 1
 0 330 l 1
 862 330 l 1
 862 254 l 1
 0 254 l 1
EndSplineSet
EndChar

StartChar: arrowleft
Encoding: 8592 8592 274
Width: 1150
Flags: HW
TeX: 398 -101
HStem: -0 21G<269 348> 220 60<223 1083.98>
VStem: 288 60<0 63.7754 433.655 500>
LayerCount: 2
Fore
SplineSet
63 250 m 1
 181 288 265 385 288 500 c 1
 348 500 l 1
 326 382 254 309 223 280 c 1
 1040 280 l 2
 1055 280 1085 280 1085 250 c 0
 1085 221 1058 220 1045 220 c 2
 223 220 l 1
 254 191 326 118 348 -0 c 1
 288 -0 l 1
 250 186 88 241 63 250 c 1
EndSplineSet
EndChar

StartChar: arrowright
Encoding: 8594 8594 275
Width: 1150
Flags: HW
TeX: 398 -101
HStem: -0 21G<800 871.5> 220 60<65.1426 926>
VStem: 800 60<0 66.3446 436.266 500>
LayerCount: 2
Fore
SplineSet
64 249 m 0
 64 278 90 280 103 280 c 2
 926 280 l 1
 895 309 822 382 800 500 c 1
 860 500 l 1
 898 314 1058 260 1085 250 c 1
 967 212 883 115 860 -0 c 1
 800 -0 l 1
 822 118 895 191 926 220 c 1
 108 220 l 2
 93 220 64 219 64 249 c 0
EndSplineSet
EndChar

StartChar: uni0361.alt
Encoding: 61701 61701 276
Width: 325
Flags: HW
TeX: 694 0
ItalicCorrection: 324
HStem: 591 79<204.356 534.4>
LayerCount: 2
Fore
SplineSet
125 576 m 0
 125 613 181 670 368 670 c 0
 559 670 614 614 614 576 c 0
 614 562 604 560 592 560 c 2
 564 560 l 2
 546 560 544 563 539 571 c 1
 509 585 454 591 368 591 c 2
 367 591 l 2
 254 591 215 578 199 571 c 1
 195 564 194 561 178 560 c 1
 147 560 l 2
 134 560 125 563 125 576 c 0
EndSplineSet
EndChar

StartChar: uni0361
Encoding: 865 865 277
Width: 0
Flags: HW
TeX: 916 0
ItalicCorrection: 356
HStem: 694 78<-112.344 121.847>
VStem: -272 76<548.112 621.83>
AnchorPoint: "affricate-above" 5 480 mark 0
LayerCount: 2
Fore
SplineSet
-272 567 m 0
 -272 652 -200 772 5 772 c 0
 211 772 282 650 282 568 c 0
 282 550 276 548 258 548 c 0
 248 548 238 548 228 548 c 0
 190 549 222 575 182 628 c 0
 162 653 115 694 6 694 c 0
 -102 694 -185 653 -196 570 c 0
 -199 549 -200 548 -227 548 c 2
 -250 548 l 2
 -263 548 -272 551 -272 567 c 0
EndSplineSet
EndChar

StartChar: uni2040.alt
Encoding: 61702 61702 278
Width: 581
Flags: HW
TeX: 694 0
ItalicCorrection: 324
HStem: 591 79<171.287 408.803>
LayerCount: 2
Fore
SplineSet
93 576 m 0
 93 613 142 670 293 670 c 0
 435 670 486 614 486 577 c 0
 486 559 473 560 460 560 c 0
 451 560 442 560 433 560 c 0
 395 560 438 591 289 591 c 2
 285 591 l 2
 144 591 184 561 144 560 c 1
 115 560 l 2
 101 560 93 562 93 576 c 0
EndSplineSet
EndChar

StartChar: uni2040
Encoding: 8256 8256 279
Width: 581
Flags: HW
TeX: 694 0
ItalicCorrection: 356
HStem: 694 78<179.475 399.107>
VStem: 28 76<548.166 624.833> 472 78<548.211 630.611>
LayerCount: 2
Fore
SplineSet
28 567 m 0
 28 609 58 772 289 772 c 0
 484 772 550 650 550 569 c 0
 550 551 545 548 527 548 c 0
 517 548 507 548 497 548 c 0
 471 549 477 559 472 584 c 0
 455 660 380 694 290 694 c 0
 183 694 114 649 104 570 c 0
 101 551 101 548 73 548 c 2
 50 548 l 2
 37 548 28 551 28 567 c 0
EndSplineSet
EndChar

StartChar: uni2422
Encoding: 9250 9250 280
Width: 644
Flags: HW
TeX: 694 0
HStem: -5 75<278.245 437.075> 402 76<279.61 445.142> 608 76<42 115.657> 675 20G<42 207 326.929 368.333>
VStem: 117 90<128.665 358.27 425 454> 117 75<0 55.125> 507 98<141.066 337.319>
DStem2: 44 493 90 433 0.793482 0.608593<0 31.073 205.412 389.407>
LayerCount: 2
Fore
SplineSet
42 608 m 1
 42 684 l 1xe6
 207 695 l 1
 207 618 l 1
 353 730 l 1
 399 670 l 1
 227 538 l 2
 210 525 208 522 207 506 c 1
 207 425 l 1xda
 281 467 358 478 420 478 c 0
 531 478 605 386 605 238 c 0
 605 89 520 -5 388 -5 c 0
 347 -5 273 3 200 63 c 1
 192 0 l 1
 117 0 l 1xd6
 117 454 l 1xda
 90 433 l 1
 44 493 l 1
 119 551 117 544 117 569 c 0
 117 601 111 608 53 608 c 2
 42 608 l 1
209 177 m 1
 210 134 266 70 346 70 c 0xc2
 427 70 507 104 507 237 c 0
 507 323 477 402 357 402 c 0
 293 402 209 369 209 318 c 2
 209 177 l 1
EndSplineSet
EndChar

StartChar: quotesingle
Encoding: 39 39 281
Width: 319
Flags: HW
TeX: 694 0
HStem: 399 304<120.188 198.034>
VStem: 107 103<402.945 694.178>
LayerCount: 2
Fore
SplineSet
107 648 m 0
 107 692 140 703 159 703 c 0
 178 703 210 692 210 648 c 0
 210 640 202 482 197 399 c 1
 121 399 l 1
 116 482 107 640 107 648 c 0
EndSplineSet
EndChar

StartChar: fraction
Encoding: 8260 8260 284
Width: 575
Flags: HW
TeX: 750 250
HStem: 729 20G<469.5 487.5>
DStem2: 75 -184 129 -211 0.381111 0.924529<-37.0366 1000.78>
LayerCount: 2
Fore
SplineSet
64 -220 m 0
 64 -210 71 -195 75 -184 c 2
 445 714 l 2
 451 728 459 749 480 749 c 0
 495 749 509 736 509 720 c 0
 509 711 504 699 500 689 c 2
 129 -211 l 2
 124 -224 116 -249 93 -249 c 0
 78 -249 64 -236 64 -220 c 0
EndSplineSet
EndChar

StartChar: zerooldstyle
Encoding: 63280 63280 285
Width: 575
Flags: HW
TeX: 472 0
HStem: -11 76<195.637 381.293> 408 75<190.818 382.147>
VStem: 44 98<119.796 358.134> 432 97<121.313 358.698>
LayerCount: 2
Fore
SplineSet
44 231 m 0
 44 374 93 483 286 483 c 0
 481 483 529 378 529 227 c 0
 529 36 422 -11 285 -11 c 0
 92 -11 44 95 44 231 c 0
142 238 m 2
 142 144 151 65 288 65 c 0
 385 65 432 101 432 225 c 2
 432 251 l 2
 432 339 419 408 291 408 c 0
 243 408 201 403 172 372 c 0
 141 338 142 287 142 244 c 2
 142 238 l 2
EndSplineSet
EndChar

StartChar: oneoldstyle
Encoding: 63281 63281 286
Width: 575
Flags: HW
TeX: 472 0
HStem: 0 75<111 255 347 490> 350 75<105 253.077> 452 20G<295.5 331>
VStem: 255 92<75 372>
LayerCount: 2
Fore
SplineSet
105 350 m 1
 105 425 l 1
 274 425 275 472 316 472 c 2
 320 472 l 2
 342 472 347 462 347 443 c 2
 347 75 l 1
 490 75 l 1
 490 0 l 1
 111 0 l 1
 111 75 l 1
 255 75 l 1
 255 372 l 1
 214 357 172 350 105 350 c 1
EndSplineSet
EndChar

StartChar: twooldstyle
Encoding: 63282 63282 287
Width: 575
Flags: HW
TeX: 472 0
HStem: 0 92<191 434.922> 408 75<153.331 367.166>
VStem: 63 97<323.121 391.533> 417 99<261.22 367.712> 441 75<103.68 144>
DStem2: 77 86 191 92 0.906122 0.423017<268.594 355.028>
LayerCount: 2
Fore
SplineSet
50 0 m 1xe8
 50 53 l 2
 50 73 56 75 77 86 c 0
 290 201 219 163 316 209 c 0
 350 225 417 253 417 317 c 0
 417 408 284 407 208 408 c 0
 175 408 161 398 152 392 c 1
 157 382 160 375 160 364 c 0
 160 336 138 315 112 315 c 0
 85 315 63 335 63 366 c 0
 63 417 106 483 271 483 c 0
 421 483 516 417 516 318 c 0xf0
 516 216 399 194 320 158 c 0
 307 152 294 145 191 92 c 1
 363 92 l 1
 406 93 l 2
 431 93 432 93 441 144 c 1
 516 144 l 1
 491 0 l 1
 50 0 l 1xe8
EndSplineSet
EndChar

StartChar: threeoldstyle
Encoding: 63283 63283 288
Width: 575
Flags: HW
TeX: 472 194
HStem: -205 70<168.532 370.945> 128 89<192.763 347.785> 419 64<183.67 367.699>
VStem: 47 108<-89.852 -5.2282> 79 93<353.699 401.537> 397 97<267.426 390.978> 426 100<-80.7198 75.1099>
LayerCount: 2
Fore
SplineSet
47 -52 m 0
 47 -7 82 5 101 5 c 0
 129 5 155 -15 155 -49 c 0
 155 -74 140 -87 137 -90 c 1
 146 -99 179 -135 282 -135 c 0
 397 -135 426 -64 426 -4 c 0
 426 64 394 128 275 128 c 2xf2
 227 128 l 2
 192 128 190 128 190 168 c 0
 190 193 192 196 196 199 c 0
 209 211 266 199 311 217 c 1
 349 231 397 272 397 334 c 0
 397 368 381 419 286 419 c 0
 217 419 190 402 172 390 c 1
 172 389 l 1
 181 377 185 368 185 353 c 0
 185 321 161 300 132 300 c 0
 103 300 79 321 79 355 c 0
 79 432 165 483 285 483 c 0
 443 483 494 400 494 333 c 0xec
 494 293 478 217 386 165 c 1
 492 129 526 63 526 -6 c 0
 526 -86 472 -205 284 -205 c 0
 148 -205 47 -144 47 -52 c 0
EndSplineSet
EndChar

StartChar: fouroldstyle
Encoding: 63284 63284 289
Width: 575
Flags: HW
TeX: 472 194
HStem: -195 76<226 337 427 539> 0 75<124 337 427 542> 452 20G<344 404.5>
VStem: 343 84<-119 0 75 401>
LayerCount: 2
Fore
SplineSet
31 0 m 1
 31 20 31 39 31 59 c 0
 31 77 37 83 43 91 c 2
 313 445 l 2
 330 467 332 472 356 472 c 2
 394 472 l 2
 415 472 427 471 427 443 c 2
 427 75 l 1
 542 75 l 1
 542 0 l 1
 427 0 l 1
 427 -119 l 1
 539 -119 l 1
 539 -195 l 1
 226 -195 l 1
 226 -119 l 1
 337 -119 l 1
 337 0 l 1
 31 0 l 1
124 75 m 1
 343 75 l 1
 343 401 l 1
 332 354 276 276 124 75 c 1
EndSplineSet
EndChar

StartChar: fiveoldstyle
Encoding: 63285 63285 290
Width: 575
Flags: HW
TeX: 472 194
HStem: -205 70<177.793 358.09> 153 76<210.277 373.199> 363 87<173.682 397.811> 401 80<379.338 471.719>
VStem: 57 88<-106.137 -48.0708> 96 76<190 369> 419 98<-74.3042 106.123>
LayerCount: 2
Fore
SplineSet
57 -49 m 0
 57 -13 82 6 109 6 c 0
 139 6 162 -17 162 -47 c 0
 162 -70 148 -83 145 -86 c 1
 145 -87 l 1
 159 -102 190 -135 267 -135 c 0
 342 -135 419 -106 419 12 c 0
 419 87 395 153 299 153 c 0
 196 153 179 96 160 87 c 0
 155 85 150 84 145 84 c 0xea
 139 84 133 84 127 84 c 0
 106 84 96 84 96 116 c 2
 96 451 l 2
 96 465 96 481 110 481 c 0xd6
 124 481 179 450 284 450 c 0xe6
 386 450 445 481 458 481 c 0
 471 481 472 471 472 460 c 0
 472 450 472 440 472 430 c 0
 472 412 469 410 447 401 c 0xd6
 401 383 329 363 250 363 c 0
 224 363 198 365 172 369 c 1
 172 190 l 1xe6
 210 215 250 229 302 229 c 0
 437 229 517 133 517 12 c 0
 517 -124 412 -205 268 -205 c 0
 145 -205 57 -135 57 -49 c 0
EndSplineSet
EndChar

StartChar: sevenoldstyle
Encoding: 63287 63287 292
Width: 575
Flags: HW
TeX: 472 194
HStem: 378 94<167.803 446>
VStem: 63 75<300 347.793> 92 75<473.353 498> 203 101<-195.884 20.3064>
DStem2: 338 248 401 218 0.63902 0.76919<-85.9367 169.009>
LayerCount: 2
Fore
SplineSet
63 300 m 1xd0
 92 498 l 1
 167 498 l 1
 171 474 179 472 216 472 c 2
 558 472 l 1xb0
 558 426 l 2
 558 406 551 399 539 385 c 0
 428 252 414 235 401 218 c 0
 290 66 312 -143 304 -170 c 0
 300 -184 283 -205 254 -205 c 0
 241 -205 203 -199 203 -146 c 0
 205 -22 238 127 338 248 c 2
 446 378 l 1
 279 378 l 1
 210 377 l 1
 153 376 l 1
 145 351 142 326 138 300 c 1
 63 300 l 1xd0
EndSplineSet
EndChar

StartChar: nineoldstyle
Encoding: 63289 63289 294
Width: 575
Flags: HW
TeX: 472 194
HStem: -205 70<169.76 324.278> 18 76<193.984 337.445> 419 64<204.224 361.279>
VStem: 47 98<144.808 358.832> 76 103<-120.44 -45.5929> 423 103<-6.32582 314.726>
LayerCount: 2
Fore
SplineSet
47 251 m 0xf4
 47 325 65 372 111 417 c 0
 161 466 215 483 289 483 c 0
 384 483 526 440 526 147 c 0
 526 -130 359 -205 243 -205 c 0
 103 -205 76 -136 76 -90 c 0
 76 -52 104 -36 128 -36 c 0
 156 -36 179 -57 179 -87 c 0xec
 179 -101 175 -109 168 -121 c 1
 180 -127 196 -135 237 -135 c 0
 264 -135 342 -129 388 -53 c 0
 415 -7 424 42 427 106 c 1
 374 46 308 18 234 18 c 0
 171 18 137 40 110 69 c 0
 62 120 47 174 47 251 c 0xf4
145 234 m 0xf4
 145 169 166 94 275 94 c 0
 366 94 423 160 423 235 c 0
 423 328 389 419 289 419 c 0
 240 419 206 407 179 376 c 0xec
 148 340 146 300 146 256 c 0
 146 250 145 242 145 234 c 0xf4
EndSplineSet
EndChar

StartChar: angleleft
Encoding: 9001 9001 295
Width: 447
Flags: HW
TeX: 750 250
HStem: 729 20G<342.5 360.5>
VStem: 128 254
DStem2: 132 269 196 265 0.383879 0.923384<-16.1472 511.102> 374 -193 138 217 0.383412 -0.923577<-501.483 27.5712>
LayerCount: 2
Fore
SplineSet
128 250 m 0
 128 257 130 263 132 269 c 2
 317 714 l 2
 323 728 332 749 353 749 c 0
 368 749 382 737 382 719 c 0
 382 710 378 702 375 694 c 2
 196 265 l 2
 190 250 192 246 196 236 c 2
 374 -193 l 2
 378 -202 382 -210 382 -220 c 0
 382 -234 370 -250 352 -250 c 0
 332 -250 324 -230 319 -219 c 2
 138 217 l 2
 135 224 128 238 128 250 c 0
EndSplineSet
EndChar

StartChar: minus
Encoding: 8722 8722 296
Width: 894
Flags: HW
TeX: 633 133
HStem: 212 76<67.4805 825.203>
LayerCount: 2
Fore
SplineSet
64 250 m 0
 64 265 71 288 113 288 c 2
 782 288 l 2
 824 288 829 260 829 250 c 0
 829 239 824 213 784 212 c 1
 110 212 l 2
 68 212 64 239 64 250 c 0
EndSplineSet
EndChar

StartChar: angleright
Encoding: 9002 9002 297
Width: 447
Flags: HW
TeX: 750 250
HStem: 729 20G<83 105>
VStem: 253 65<195.914 307.539>
DStem2: 133 702 91 647 0.385397 -0.922751<-42.6614 463.115> 249 235 314 231 0.384465 0.923139<-490.675 15.168>
LayerCount: 2
Fore
SplineSet
64 -220 m 0
 64 -209 71 -195 72 -192 c 2
 249 235 l 2
 251 240 253 245 253 250 c 0
 253 255 252 259 250 264 c 2
 91 647 l 2
 81 671 64 708 64 720 c 0
 64 733 73 749 93 749 c 0
 117 749 123 724 133 702 c 2
 308 283 l 2
 312 273 318 262 318 250 c 0
 318 243 316 237 314 231 c 2
 132 -206 l 2
 124 -226 116 -250 93 -250 c 0
 78 -250 64 -236 64 -220 c 0
EndSplineSet
EndChar

StartChar: uni2127
Encoding: 8487 8487 298
Width: 831
Flags: HW
TeX: 694 0
HStem: -11 76<277.816 550.481> 606 89<132.479 237 591 688.759>
VStem: 63 100<157.926 330.681> 665 100<157.563 329.674> 706 72<528 566.967>
LayerCount: 2
Fore
SplineSet
50 528 m 1
 80 695 l 1
 297 695 l 1
 317 694 324 688 324 667 c 0
 324 516 163 382 163 234 c 0
 163 166 208 65 414 65 c 0
 619 65 665 165 665 233 c 0xf0
 665 377 504 519 504 666 c 0
 504 687 511 695 531 695 c 2
 748 695 l 1
 778 528 l 1
 706 528 l 1xe8
 702 551 695 593 689 600 c 0
 684 605 670 606 649 606 c 2
 591 606 l 1
 640 470 765 376 765 232 c 0
 765 135 688 -11 416 -11 c 0
 137 -11 63 135 63 232 c 0
 63 376 187 469 237 606 c 1xf0
 186 606 l 2
 133 606 137 605 131 578 c 1
 122 528 l 1
 50 528 l 1
EndSplineSet
EndChar

StartChar: circle
Encoding: 9675 9675 299
Width: 1278
Flags: HW
TeX: 750 250
HStem: -261 61<463.8 812.731> 700 61<463.629 807.188>
VStem: 63 61<106.122 393.208> 1153 61<107.076 385.794>
LayerCount: 2
Fore
SplineSet
63 251 m 0
 63 544 277 761 641 761 c 0
 985 761 1214 557 1214 250 c 0
 1214 -44 1000 -261 636 -261 c 0
 286 -261 63 -51 63 251 c 0
124 250 m 0
 124 -20 321 -200 638 -200 c 0
 954 -200 1153 -20 1153 250 c 0
 1153 476 1001 700 638 700 c 0
 321 700 124 520 124 250 c 0
EndSplineSet
EndChar

StartChar: uni301A
Encoding: 12314 12314 301
Width: 463
Flags: HW
TeX: 750 250
HStem: -250 60<189 272 333 437> 690 60<189 272 333 437>
VStem: 129 60<-190 690> 272 61<-190 690>
LayerCount: 2
Fore
SplineSet
129 -250 m 1
 129 750 l 1
 437 750 l 1
 437 690 l 1
 333 690 l 1
 333 -190 l 1
 437 -190 l 1
 437 -250 l 1
 129 -250 l 1
189 -190 m 1
 272 -190 l 1
 272 690 l 1
 189 690 l 1
 189 -190 l 1
EndSplineSet
EndChar

StartChar: uni301B
Encoding: 12315 12315 302
Width: 463
Flags: HW
TeX: 750 250
HStem: -250 60<25 129 190 272> 690 60<25 129 190 272>
VStem: 129 61<-190 690> 272 61<-190 690>
LayerCount: 2
Fore
SplineSet
25 -190 m 1
 129 -190 l 1
 129 690 l 1
 25 690 l 1
 25 750 l 1
 333 750 l 1
 333 -250 l 1
 25 -250 l 1
 25 -190 l 1
190 -190 m 1
 272 -190 l 1
 272 690 l 1
 190 690 l 1
 190 -190 l 1
EndSplineSet
EndChar

StartChar: arrowup
Encoding: 8593 8593 303
Width: 575
Flags: HW
TeX: 694 194
HStem: 415 60<32 98.3875 477.436 542> 675 20G<265.5 291.5>
VStem: 257 60<-192.908 540>
LayerCount: 2
Fore
SplineSet
32 415 m 1
 32 475 l 1
 144 497 244 577 287 695 c 1
 296 674 354 512 542 475 c 1
 542 415 l 1
 446 432 373 482 317 540 c 1
 317 -113 l 2
 317 -123 318 -132 318 -142 c 0
 318 -165 318 -194 287 -194 c 0
 275 -194 257 -188 257 -154 c 2
 257 540 l 1
 201 482 128 432 32 415 c 1
EndSplineSet
EndChar

StartChar: arrowdown
Encoding: 8595 8595 304
Width: 575
Flags: HW
TeX: 694 194
HStem: 25 60<32 98.3875 475.409 542> 674 20G<281 302.5>
VStem: 257 60<-40 692.908>
LayerCount: 2
Fore
SplineSet
32 25 m 1
 32 85 l 1
 128 68 201 18 257 -40 c 1
 257 654 l 2
 257 688 275 694 287 694 c 0
 318 694 318 663 318 642 c 0
 318 632 317 623 317 613 c 2
 317 -40 l 1
 373 18 446 68 542 85 c 1
 542 25 l 1
 369 -9 307 -146 287 -195 c 1
 244 -77 144 3 32 25 c 1
EndSplineSet
EndChar

StartChar: uni22C6
Encoding: 8902 8902 306
Width: 575
Flags: HW
TeX: 486 -13
LayerCount: 2
Fore
SplineSet
10 310 m 0
 10 320 13 324 28 324 c 0
 53 324 112 310 244 283 c 1
 269 501 266 493 270 502 c 0
 273 509 279 515 287 515 c 0
 308 515 303 509 329 283 c 1
 522 322 534 326 544 326 c 0
 559 326 564 316 564 309 c 0
 564 293 569 300 356 203 c 1
 462 15 464 13 464 3 c 0
 464 -8 454 -13 448 -13 c 2
 447 -13 l 2
 436 -13 437 -11 287 153 c 1
 140 -8 140 -13 126 -13 c 0
 118 -13 110 -6 110 4 c 0
 110 15 115 21 218 203 c 1
 10 297 10 292 10 310 c 0
EndSplineSet
EndChar

StartChar: uni26AE
Encoding: 9902 9902 307
Width: 575
Flags: HW
TeX: 486 -13
HStem: 14 84<-96.9716 56.0056 518.855 670.913> 402 84<-95.1462 56.9259 517.459 671.87>
VStem: -233 84<153.215 344.729> 112 79<156.757 346.666> 247 82<-131.938 631.885> 385 78<157.536 343.595> 725 84<155.363 342.781>
LayerCount: 2
Fore
SplineSet
-233 250 m 0
 -233 397 -143 486 -20 486 c 0
 106 486 191 392 191 250 c 0
 191 104 103 14 -20 14 c 0
 -148 14 -233 109 -233 250 c 0
-149 251 m 0
 -149 124 -78 98 -20 98 c 0
 48 98 112 133 112 250 c 0
 112 367 49 402 -19 402 c 0
 -116 402 -149 332 -149 251 c 0
242 -104 m 0
 242 -61 247 110 247 328 c 0
 247 354 246 481 243 584 c 0
 243 591 242 598 242 604 c 0
 242 626 251 632 271 632 c 2
 303 632 l 2
 325 632 334 626 334 605 c 0
 334 598 329 439 329 303 c 0
 329 141 334 -103 334 -103 c 2
 334 -128 324 -132 305 -132 c 0
 294 -132 283 -132 272 -132 c 0
 251 -132 242 -127 242 -104 c 0
385 250 m 0
 385 398 475 486 596 486 c 0
 708 486 809 407 809 250 c 0
 809 91 707 14 595 14 c 0
 471 14 385 107 385 250 c 0
463 248 m 0
 463 135 527 98 595 98 c 0
 692 98 725 167 725 248 c 0
 725 376 653 402 595 402 c 0
 527 402 463 368 463 248 c 0
EndSplineSet
EndChar

StartChar: uni271D
Encoding: 10013 10013 308
Width: 575
Flags: HW
TeX: 616 22
HStem: 343 84<45.4947 245 328 527.585>
VStem: 240 92<-21.619 345 425 616.504>
LayerCount: 2
Fore
SplineSet
45 373 m 0
 45 382 45 391 45 400 c 0
 46 424 55 427 75 427 c 0
 88 427 127 425 205 425 c 2
 245 425 l 1
 241 591 l 2
 241 607 244 617 269 617 c 2
 296 617 l 2
 321 617 332 615 332 591 c 2
 327 425 l 1
 361 426 362 425 499 427 c 1
 500 427 l 2
 516 427 527 425 528 400 c 1
 528 372 l 2
 528 347 517 343 501 343 c 0
 477 343 331 345 328 345 c 1
 328 146 332 60 332 20 c 0
 332 -15 329 -22 304 -22 c 2
 270 -22 l 2
 249 -22 240 -16 240 5 c 0
 240 10 245 206 245 345 c 1
 239 345 84 343 73 343 c 0
 53 343 45 350 45 373 c 0
EndSplineSet
EndChar

StartChar: leaf
Encoding: 61704 61704 309
Width: 1150
Flags: HW
TeX: 694 0
HStem: -79 36<146.986 479.242> 155 37<353 850> 364 36<697 1023> 737 37<663.632 1008.22>
VStem: 269 37<206 511> 614 37<414 707>
DStem2: 23 35 42 4 0.855748 0.517392<0.22005 287.606 363.628 694.617 765.623 1267.9>
LayerCount: 2
Fore
SplineSet
-17 5 m 0
 -17 39 19 391 342 618 c 0
 477 713 648 774 835 774 c 0
 956 774 1060 748 1138 719 c 0
 1156 712 1167 707 1167 690 c 0
 1167 674 1158 622 1151 589 c 0
 1079 272 820 -11 446 -69 c 0
 404 -76 360 -79 316 -79 c 0
 194 -79 90 -54 12 -24 c 0
 -6 -17 -17 -12 -17 5 c 0
23 35 m 1
 269 184 l 1
 269 511 l 1
 121 374 43 185 23 35 c 1
42 4 m 1
 132 -27 218 -43 314 -43 c 0
 582 -43 767 83 850 155 c 1
 316 155 l 2
 293 155 291 155 278 147 c 0
 89 33 65 19 42 4 c 1
306 206 m 1
 587 375 l 2
 607 387 613 389 614 406 c 1
 614 707 l 1
 450 660 353 582 306 544 c 1
 306 206 l 1
353 192 m 1
 870 192 l 2
 894 192 893 194 933 238 c 0
 968 277 997 319 1023 364 c 1
 656 364 l 1
 637 362 l 1
 622 354 l 1
 353 192 l 1
651 414 m 1
 1108 691 l 1
 1027 719 938 737 835 737 c 0
 773 737 711 730 651 716 c 1
 651 414 l 1
697 400 m 1
 1030 400 l 1
 1045 401 1046 406 1054 422 c 0
 1097 510 1119 599 1127 660 c 1
 697 400 l 1
EndSplineSet
EndChar

StartChar: uni26AD
Encoding: 9901 9901 310
Width: 575
Flags: HW
TeX: 486 -13
HStem: 14 84<47.1471 223.89 352.177 528.422> 402 84<47.74 223.884 352.522 528.11>
VStem: -105 84<165.293 335.932> 184 79<164.13 336.274> 314 78<163.591 335.87> 597 84<164.492 335.131>
LayerCount: 2
Fore
SplineSet
-105 250 m 0
 -105 391 -7 486 145 486 c 0
 235 486 274 452 288 452 c 0
 302 452 341 486 431 486 c 2
 433 486 l 2
 585 486 681 387 681 250 c 0
 681 109 583 14 431 14 c 0
 341 14 301 48 288 48 c 0
 275 48 236 14 144 14 c 0
 -8 14 -105 113 -105 250 c 0
-21 251 m 0
 -21 178 12 98 145 98 c 0
 175 98 201 102 225 110 c 1
 208 139 184 180 184 250 c 0
 184 306 199 348 225 390 c 1
 210 395 185 402 146 402 c 0
 12 402 -21 323 -21 251 c 0
263 250 m 0
 263 206 274 182 288 158 c 1
 289 158 l 1
 294 166 314 195 314 250 c 0
 314 294 303 318 289 342 c 1
 288 342 l 1
 283 334 263 306 263 250 c 0
351 110 m 1
 374 102 399 98 431 98 c 0
 564 98 597 178 597 251 c 0
 597 323 564 402 430 402 c 0
 391 402 366 395 351 390 c 1
 368 361 392 320 392 250 c 0
 392 179 367 138 351 110 c 1
EndSplineSet
EndChar

StartChar: musicalnote
Encoding: 9834 9834 311
Width: 703
Flags: HW
TeX: 694 0
HStem: -36 311<160.499 355.825> 674 20G<417 427>
VStem: 391 60<236 460 559.295 692.733> 581 57<127.386 251.604>
LayerCount: 2
Fore
SplineSet
63 125 m 0
 63 215 150 275 257 275 c 0
 304 275 347 265 391 236 c 1
 391 655 l 2
 391 690 413 694 421 694 c 0
 433 694 445 686 449 674 c 0
 456 656 444 631 477 548 c 0
 526 427 638 302 638 162 c 0
 638 135 620 126 608 126 c 0
 595 126 586 134 581 144 c 0
 572 165 588 207 530 320 c 0
 515 348 498 376 451 460 c 1
 451 135 l 2
 451 -1 324 -36 257 -36 c 0
 157 -36 63 29 63 125 c 0
EndSplineSet
EndChar

StartChar: tildelow
Encoding: 61705 61705 312
Width: 703
Flags: HW
TeX: 134 0
HStem: 0 110<290.027 548.085> 25 110<152.492 409.926>
LayerCount: 2
Fore
SplineSet
95 40 m 1
 142 117 142 135 215 135 c 0x40
 293 135 386 110 464 110 c 0x80
 508 110 524 117 542 135 c 1x40
 605 95 l 1
 558 18 558 0 485 0 c 0x80
 409 0 312 25 236 25 c 0x40
 192 25 178 18 159 0 c 1x80
 95 40 l 1
EndSplineSet
EndChar

StartChar: breve.ts1
Encoding: 61707 61707 314
Width: 703
Flags: HW
TeX: 694 0
HStem: 519 81<220.981 480.457> 675 20G<90 166.5 535.5 612>
VStem: 90 75<647.215 695> 537 75<646.592 695>
LayerCount: 2
Fore
SplineSet
90 695 m 1
 165 695 l 1
 168 652 195 600 351 600 c 2
 353 600 l 2
 506 600 534 652 537 695 c 1
 612 695 l 1
 607 570 472 519 352 519 c 0
 226 519 94 572 90 695 c 1
EndSplineSet
EndChar

StartChar: caron.ts1
Encoding: 61708 61708 315
Width: 703
Flags: HW
TeX: 694 0
HStem: 564 165
LayerCount: 2
Fore
SplineSet
128 660 m 1
 158 729 l 1
 351 648 l 1
 543 729 l 1
 573 660 l 1
 357 564 355 564 350 564 c 0
 342 564 332 569 128 660 c 1
EndSplineSet
EndChar

StartChar: dblgrave.ts1
Encoding: 61710 61710 317
Width: 575
Flags: HW
TeX: 694 0
HStem: 534 163
LayerCount: 2
Fore
SplineSet
93 650 m 0
 93 675 115 697 140 697 c 0
 157 697 168 696 251 584 c 1
 194 534 l 1
 105 619 93 627 93 650 c 0
284 650 m 0
 284 675 307 697 332 697 c 0
 349 697 359 696 442 584 c 1
 386 534 l 1
 297 619 284 627 284 650 c 0
EndSplineSet
EndChar

StartChar: dagger
Encoding: 8224 8224 318
Width: 511
Flags: HW
TeX: 694 194
HStem: 426 92<69.841 227.167 281.968 439.009> 680 20G<248 262>
VStem: 209 92<-48.7977 441.649 500.306 692.955> 216 77<-204.914 55.5049>
LayerCount: 2
Fore
SplineSet
63 472 m 0
 63 488 73 518 113 518 c 0
 144 518 190 504 229 498 c 1
 225 540 209 605 209 646 c 0
 209 694 241 700 255 700 c 0
 269 700 301 692 301 647 c 0
 301 609 285 547 280 498 c 1
 322 505 363 518 394 518 c 0
 436 518 446 490 446 472 c 0
 446 456 436 426 396 426 c 0
 361 426 314 440 279 446 c 1
 289 353 301 335 301 261 c 2
 301 203 l 1xe0
 300 164 298 -127 293 -185 c 0
 292 -205 283 -206 264 -206 c 0
 258 -206 253 -205 247 -205 c 0
 245 -205 243 -206 241 -206 c 0
 213 -206 217 -192 216 -167 c 0
 208 55 209 129 208 203 c 1xd0
 208 259 l 2
 208 334 220 352 230 446 c 1
 194 440 150 426 116 426 c 0
 70 426 63 458 63 472 c 0
EndSplineSet
EndChar

StartChar: daggerdbl
Encoding: 8225 8225 319
Width: 511
Flags: HW
TeX: 694 194
HStem: -199 21G<249 263.5> -22 93<70.417 226.803 282.195 438.583> 429 92<70.1777 226.584 281.649 438.906> 680 20G<247 260>
VStem: 209 92<-192.242 -3.89672 52.759 242.079 257.615 447.153 502.577 692.897>
LayerCount: 2
Fore
SplineSet
63 25 m 0
 63 41 73 71 113 71 c 0
 146 71 182 58 229 50 c 1
 223 109 208 159 208 194 c 0
 208 238 236 249 254 249 c 0
 267 249 301 243 301 197 c 0
 301 153 285 94 280 50 c 1
 322 57 362 71 393 71 c 0
 435 71 446 43 446 25 c 0
 446 9 436 -21 396 -21 c 0
 363 -21 327 -9 280 -1 c 1
 286 -63 301 -112 301 -146 c 0
 301 -190 272 -199 255 -199 c 0
 243 -199 209 -195 209 -148 c 0
 209 -104 224 -45 229 -1 c 1
 182 -9 144 -22 115 -22 c 0
 74 -22 63 8 63 25 c 0
63 475 m 0
 63 488 70 521 115 521 c 1
 155 520 177 508 229 501 c 1
 226 534 209 608 209 649 c 0
 209 693 240 700 254 700 c 0
 266 700 301 694 301 647 c 0
 301 610 283 530 280 501 c 1
 315 506 360 521 394 521 c 0
 439 521 446 488 446 475 c 0
 446 459 437 429 396 429 c 0
 361 429 315 444 280 449 c 1
 284 410 300 345 300 304 c 0
 300 256 268 251 254 251 c 0
 240 251 209 258 209 301 c 0
 209 340 225 412 229 449 c 1
 194 444 149 429 114 429 c 0
 72 429 63 460 63 475 c 0
EndSplineSet
EndChar

StartChar: uni2016
Encoding: 8214 8214 320
Width: 575
Flags: HW
TeX: 750 250
HStem: 729 20G<200 231.5 351.5 370.5>
VStem: 186 60<-248.75 747.925> 326 61<-248.375 747.109>
LayerCount: 2
Fore
SplineSet
186 -208 m 2
 186 705 l 2
 186 713 184 749 216 749 c 0
 247 749 246 717 246 709 c 2
 246 -206 l 2
 246 -213 247 -220 245 -227 c 0
 241 -241 228 -250 217 -250 c 0
 185 -250 186 -216 186 -208 c 2
326 -208 m 2
 326 705 l 2
 326 712 326 720 328 727 c 0
 332 741 346 749 357 749 c 0
 384 749 387 726 387 709 c 2
 387 -206 l 2
 387 -213 387 -220 385 -227 c 0
 381 -241 368 -250 357 -250 c 0
 325 -250 326 -216 326 -208 c 2
EndSplineSet
EndChar

StartChar: perthousand
Encoding: 8240 8240 321
Width: 1342
Flags: HW
TeX: 750 55
HStem: -55 75<686.009 787.11 1070.42 1170.83> 271 76<685.241 787.522 1068.24 1170.67> 347 76<174.622 275.693> 575 71<421.554 620.711> 674 76<174.434 276.636>
VStem: 64 85<451.318 647.076> 311 72<460.766 606.94> 575 85<47.7603 243.64> 822 72<59.6381 231.981> 958 85<48.4915 244.016> 1205 72<58.1305 233.583>
DStem2: 186 20 221 -35 0.612219 0.790688<-50.9704 710.504 810.024 914.442>
LayerCount: 2
Fore
SplineSet
64 549 m 0
 64 682 139 750 226 750 c 0
 277 750 308 725 324 715 c 0
 375 682 455 646 542 646 c 0
 626 646 687 677 728 720 c 0
 735 728 748 749 768 749 c 0
 783 749 800 739 798 711 c 1
 801 707 804 704 804 699 c 0
 804 679 739 630 732 623 c 0
 728 618 724 613 720 608 c 2
 221 -35 l 2
 215 -42 205 -55 190 -55 c 0
 174 -55 160 -41 160 -25 c 0
 160 -11 176 7 186 20 c 2
 622 581 l 1
 597 577 573 575 548 575 c 0
 480 575 426 591 378 608 c 1
 381 589 383 569 383 548 c 0
 383 425 319 347 226 347 c 0
 137 347 64 418 64 549 c 0
149 544 m 0
 149 500 155 423 226 423 c 0
 260 423 311 451 311 549 c 0
 311 647 260 674 226 674 c 0
 156 674 149 603 149 544 c 0
575 146 m 0
 575 277 649 347 737 347 c 0
 807 347 894 296 894 146 c 0
 894 -5 805 -55 737 -55 c 0
 650 -55 575 12 575 146 c 0
660 141 m 0
 660 97 666 20 737 20 c 0
 771 20 822 48 822 146 c 0
 822 244 771 271 737 271 c 0
 667 271 660 200 660 141 c 0
958 146 m 0
 958 278 1032 347 1120 347 c 0
 1183 347 1276 304 1277 146 c 0
 1277 -7 1189 -55 1121 -55 c 0
 1035 -55 958 11 958 146 c 0
1043 142 m 0
 1043 104 1048 20 1121 20 c 0
 1155 20 1205 48 1205 146 c 0
 1205 244 1154 271 1120 271 c 0
 1050 271 1043 201 1043 142 c 0
EndSplineSet
EndChar

StartChar: bullet
Encoding: 8226 8226 322
Width: 575
Flags: HW
TeX: 472 -26
HStem: 26 448<185.402 387.598>
VStem: 63 447<148.903 350.29>
LayerCount: 2
Fore
SplineSet
63 250 m 0
 63 381 153 474 287 474 c 0
 420 474 510 384 510 249 c 0
 510 118 420 26 286 26 c 0
 153 26 63 115 63 250 c 0
EndSplineSet
EndChar

StartChar: uni2103
Encoding: 8451 8451 323
Width: 1086
Flags: HW
TeX: 694 0
HStem: -11 76<601.915 837.758> 439 61<76.2937 180.399> 630 75<601.057 827.007> 634 60<75.1743 180.337>
VStem: 0 61<515.018 618.829> 195 60<515.05 618.554> 319 101<232.065 461.735> 928 94<439.882 541.825> 945 77<159.364 247.863>
LayerCount: 2
Fore
SplineSet
0 567 m 0
 0 640 50 694 128 694 c 0
 205 694 255 641 255 567 c 0
 255 493 204 439 127 439 c 0
 50 439 0 493 0 567 c 0
61 567 m 0
 61 521 90 500 128 500 c 0
 170 500 195 524 195 567 c 0
 195 611 167 634 128 634 c 0xde
 82 634 61 605 61 567 c 0
319 348 m 0
 319 563 475 705 704 705 c 0
 805 705 874 670 933 620 c 1
 985 706 988 705 1003 705 c 0xee80
 1021 705 1022 694 1022 682 c 2xee80
 1022 458 l 2
 1022 438 1016 434 999 434 c 0
 998 434 996 435 995 435 c 2
 992 435 l 2
 924 435 961 435 928 507 c 0xef
 908 550 851 630 734 630 c 0
 565 630 420 548 420 348 c 0
 420 121 597 65 736 65 c 0
 842 65 935 125 945 221 c 0
 948 244 948 248 973 248 c 2
 996 248 l 2
 1016 248 1022 243 1022 227 c 0
 1022 131 921 -11 704 -11 c 0
 503 -11 319 106 319 348 c 0
EndSplineSet
EndChar

StartChar: dollaroldstyle
Encoding: 63268 63268 324
Width: 703
Flags: HW
TeX: 750 55
HStem: -5 75<318 383> 5 76<193.285 243> 335 101<193.13 243> 612 78<193.545 243 458 523.618> 730 20G<243 318 383 458>
VStem: 63 103<155.469 238.306> 63 83<474.858 569.322> 243 75<-55 -5 81 318 436 612 699 750> 383 75<-55 -5 84 285 404 616 700 750> 535 103<470.299 552.532> 555 83<131.676 239.448>
LayerCount: 2
Fore
SplineSet
63 192 m 0x7da0
 63 236 96 248 115 248 c 0
 142 248 166 229 166 197 c 0x7da0
 166 175 155 165 145 155 c 1
 163 116 192 94 243 81 c 1
 243 335 l 1
 114 371 63 441 63 511 c 0
 63 543 76 652 243 690 c 1
 243 750 l 1
 318 750 l 1
 318 699 l 1
 383 700 l 1
 383 750 l 1
 458 750 l 1
 458 691 l 1
 495 684 638 656 638 516 c 0
 638 472 605 461 586 461 c 0
 558 461 535 481 535 512 c 0x7bc0
 535 534 545 543 555 553 c 1
 537 589 510 605 458 616 c 1
 458 387 l 1
 525 368 638 312 638 198 c 0
 638 125 592 40 458 6 c 1
 458 -55 l 1
 383 -55 l 1
 383 -5 l 1
 372 -6 361 -5 350 -5 c 0
 339 -5 329 -6 318 -5 c 1xb9a0
 318 -55 l 1
 243 -55 l 1
 243 5 l 1
 75 42 63 151 63 192 c 0x7da0
146 521 m 0x3b80
 146 488 175 455 243 436 c 1
 243 612 l 1
 184 596 146 559 146 521 c 0x3b80
318 71 m 1
 328 70 339 70 349 70 c 0xb980
 360 70 372 71 383 71 c 1
 383 304 l 1
 318 318 l 1
 318 71 l 1
318 418 m 1
 383 404 l 1
 383 624 l 1
 318 624 l 1
 318 418 l 1
458 84 m 1
 547 114 555 167 555 187 c 0x39a0
 555 249 487 275 459 285 c 1
 458 253 l 1
 458 84 l 1
EndSplineSet
EndChar

StartChar: centoldstyle
Encoding: 63394 63394 325
Width: 575
Flags: HW
TeX: 569 97
HStem: -5 81<245.148 428.365> 400 81<215.252 341>
VStem: 38 98<157.486 325.826> 464 77<109.669 155.889>
DStem2: 55 -78 119 -117 0.514307 0.857606<0 150.294 242.139 557.028 680.833 777.215>
LayerCount: 2
Fore
SplineSet
38 236 m 0
 38 334 95 481 329 481 c 0
 349 481 369 480 389 480 c 1
 455 589 l 1
 519 550 l 1
 470 467 l 1
 514 452 530 426 530 399 c 0
 530 368 506 347 478 347 c 0
 433 347 427 391 426 395 c 1
 244 91 l 1
 273 82 305 76 346 76 c 0
 410 76 444 101 464 140 c 0
 472 155 474 156 493 156 c 2
 519 156 l 2
 530 156 541 155 541 143 c 0
 541 132 499 -5 316 -5 c 0
 269 -5 232 3 198 14 c 1
 119 -117 l 1
 55 -78 l 1
 130 49 l 1
 70 93 38 159 38 236 c 0
136 238 m 0
 136 173 172 137 179 129 c 1
 341 400 l 1
 333 400 l 2
 264 400 206 389 169 343 c 0
 143 311 136 269 136 238 c 0
EndSplineSet
EndChar

StartChar: colonmonetary
Encoding: 8353 8353 326
Width: 831
Flags: HW
TeX: 750 55
HStem: -10 79<328.976 413 489 583.148> 625 79<328.589 413 489 575.099> 730 20G<413 489>
VStem: 63 100<231.05 462.757> 413 76<-55 -8.22662 69 625 702.224 750> 688 78<435.098 517.141> 695 70<169.167 247.785>
LayerCount: 2
Fore
SplineSet
63 347 m 0
 63 547 197 689 413 704 c 1
 413 750 l 1
 489 750 l 1
 489 703 l 1
 567 695 625 665 677 620 c 1
 729 705 733 705 747 705 c 0
 762 705 766 696 766 685 c 2
 766 461 l 2xfc
 766 437 763 435 737 435 c 2
 714 435 l 2
 700 435 692 436 688 456 c 0xfc
 674 531 616 621 489 630 c 1
 489 65 l 1
 557 69 615 92 654 139 c 0
 697 191 683 232 695 243 c 0
 700 247 703 248 735 248 c 2
 741 248 l 2
 757 248 765 246 765 224 c 0xfa
 765 150 694 10 489 -9 c 1
 489 -55 l 1
 413 -55 l 1
 413 -10 l 1
 197 5 63 146 63 347 c 0
163 347 m 0xf8
 163 180 265 87 413 69 c 1
 413 625 l 1
 264 607 163 514 163 347 c 0xf8
EndSplineSet
EndChar

StartChar: uni20A9
Encoding: 8361 8361 327
Width: 1167
Flags: HW
TeX: 694 0
ItalicCorrection: 15
HStem: 0 21G<330 374.5 785 832> 175 75<36.8576 228 347 384 483 683 800 837 937 1128.62> 411 75<36.4805 144 266 465 560 597 720 918 1021 1128.47> 619 76<23 97 193 248 476 539 645 701 928 992 1068 1142>
DStem2: 193 619 97 619 0.336552 -0.941665<0 108.75 220.435 359.254 469.928 538.473> 384 175 456 175 0.325149 0.945663<-67.2148 0 103.114 249.513> 645 619 576 545 0.335729 -0.941959<46.5397 109.166 221.107 256.884 257.556 360.34 470.268 470.268> 837 175 909 175 0.336438 0.941705<-67.1732 0 104.272 249.494 354.775 470.265>
LayerCount: 2
Fore
SplineSet
23 619 m 1
 23 695 l 1
 248 695 l 1
 248 619 l 1
 193 619 l 1
 239 486 l 1
 492 486 l 1
 539 619 l 1
 476 619 l 1
 476 695 l 1
 701 695 l 1
 701 619 l 1
 645 619 l 1
 693 486 l 1
 945 486 l 1
 992 619 l 1
 928 619 l 1
 928 695 l 1
 1142 695 l 1
 1142 619 l 1
 1068 619 l 1
 1021 486 l 1
 1086 486 l 2
 1128 486 1132 459 1132 449 c 0
 1132 439 1128 411 1085 411 c 2
 994 411 l 1
 937 250 l 1
 1079 250 l 2
 1087 250 1095 251 1103 249 c 0
 1118 246 1132 232 1132 213 c 0
 1132 200 1127 175 1086 175 c 2
 909 175 l 1
 900 147 894 133 859 34 c 0
 850 8 845 1 819 0 c 1
 802 0 l 2
 768 0 767 9 751 54 c 0
 737 94 722 135 709 175 c 1
 456 175 l 1
 405 29 l 2
 396 4 386 0 363 0 c 2
 346 0 l 1
 314 1 314 11 295 65 c 0
 282 101 268 138 256 175 c 1
 79 175 l 2
 37 175 33 201 33 212 c 0
 33 228 44 245 63 249 c 0
 71 251 78 250 86 250 c 2
 228 250 l 1
 171 411 l 1
 80 411 l 2
 38 411 33 438 33 449 c 0
 33 459 37 486 79 486 c 2
 144 486 l 1
 97 619 l 1
 23 619 l 1
266 411 m 1
 322 250 l 1
 409 250 l 1
 465 411 l 1
 266 411 l 1
347 175 m 1
 354 153 361 131 366 109 c 1
 371 131 377 153 384 175 c 1
 347 175 l 1
483 250 m 1
 683 250 l 1
 649 347 l 1
 647 347 l 1
 624 411 l 1
 537 411 l 1
 536 410 l 1
 483 250 l 1
560 486 m 1
 597 486 l 1
 576 545 l 1
 560 486 l 1
720 411 m 1
 775 250 l 1
 863 250 l 1
 918 411 l 1
 720 411 l 1
800 175 m 1
 819 109 l 1
 823 131 831 153 837 175 c 1
 800 175 l 1
EndSplineSet
EndChar

StartChar: uni20A6
Encoding: 8358 8358 328
Width: 921
Flags: HW
TeX: 694 0
HStem: 0 75<92 170 245 322> 175 75<-8.15039 170 245 493 665 677 752 930.001> 411 75<-8.05997 170 245 312 483 677 752 930.15> 619 76<92 170 599 677 752 829>
VStem: 170 75<75 175 250 411 486 573> 677 75<159 175 250 411 486 619>
DStem2: 282 672 245 573 0.610084 -0.792337<55.8682 165.677 329.427 463.094 627.454 647.452>
LayerCount: 2
Fore
SplineSet
-12 212 m 0
 -12 230 2 247 21 249 c 0
 28 250 35 250 42 250 c 2
 170 250 l 1
 170 411 l 1
 42 411 l 2
 35 411 28 411 21 412 c 0
 2 414 -12 431 -12 449 c 0
 -12 464 -1 483 22 486 c 1
 170 486 l 1
 170 619 l 1
 92 619 l 1
 92 695 l 1
 245 695 l 2
 264 695 267 691 282 672 c 2
 424 486 l 1
 677 486 l 1
 677 619 l 1
 599 619 l 1
 599 695 l 1
 829 695 l 1
 829 619 l 1
 752 619 l 1
 752 486 l 1
 886 486 l 2
 929 486 934 461 934 449 c 0
 934 431 920 414 901 412 c 0
 894 411 887 411 880 411 c 2
 752 411 l 1
 752 250 l 1
 880 250 l 2
 887 250 894 250 901 249 c 0
 920 247 934 230 934 212 c 0
 934 190 915 177 900 175 c 1
 752 175 l 1
 752 26 l 1
 751 4 742 0 723 0 c 2
 707 0 l 2
 680 0 692 -7 552 175 c 1
 245 175 l 1
 245 75 l 1
 322 75 l 1
 322 0 l 1
 92 0 l 1
 92 75 l 1
 170 75 l 1
 170 175 l 1
 42 175 l 2
 40 175 38 174 36 174 c 0
 -7 174 -12 200 -12 212 c 0
245 250 m 1
 493 250 l 1
 370 411 l 1
 245 411 l 1
 245 250 l 1
245 486 m 1
 312 486 l 1
 245 573 l 1
 245 486 l 1
483 411 m 1
 493 396 504 382 592 268 c 0
 606 250 608 250 631 250 c 2
 677 250 l 1
 677 411 l 1
 483 411 l 1
665 175 m 1
 677 159 l 1
 677 175 l 1
 665 175 l 1
EndSplineSet
EndChar

StartChar: uni20B2
Encoding: 8370 8370 329
Width: 899
Flags: HW
TeX: 750 55
HStem: -10 79<328.976 413 489 649.739> 215 75<524 668 766 846> 625 79<328.589 413 489 575.099> 730 20G<413 489>
VStem: 63 100<231.05 462.757> 413 76<-55 -10 69 625 702.224 750> 668 98<86.5497 215> 688 78<435.066 517.141>
LayerCount: 2
Fore
SplineSet
63 347 m 0
 63 547 197 689 413 704 c 1
 413 750 l 1
 489 750 l 1
 489 703 l 1
 567 695 625 665 677 620 c 1
 729 705 733 705 747 705 c 0
 762 705 766 696 766 685 c 2
 766 461 l 2xfd
 766 436 763 435 737 435 c 2
 714 435 l 2
 700 435 692 436 688 456 c 0xfd
 674 531 616 621 489 630 c 1
 489 65 l 1
 628 66 668 78 668 134 c 2
 668 215 l 1
 524 215 l 1
 524 290 l 1
 846 290 l 1
 846 215 l 1
 766 215 l 1xfe
 766 32 l 2
 766 10 763 2 754 2 c 0
 742 2 724 20 705 40 c 1
 674 15 621 -9 489 -10 c 1
 489 -55 l 1
 413 -55 l 1
 413 -10 l 1
 197 5 63 146 63 347 c 0
163 347 m 0xfc
 163 180 265 87 413 69 c 1
 413 625 l 1
 264 607 163 514 163 347 c 0xfc
EndSplineSet
EndChar

StartChar: peso
Encoding: 61711 61711 330
Width: 791
Flags: HW
TeX: 694 0
HStem: 0 75<91 169 267 344> 175 75<-8.15039 169 267 520.071> 272 75<267 555.896> 619 76<91 169 264 558.425>
VStem: 169 98<75 175 250 272 347 619> 627 100<409.114 557.028>
LayerCount: 2
Fore
SplineSet
-12 212 m 0
 -12 231 2 246 20 249 c 0
 27 250 35 250 42 250 c 2
 169 250 l 1
 169 619 l 1
 91 619 l 1
 91 695 l 1
 441 695 l 2
 499 695 569 691 632 652 c 0
 719 599 727 517 727 483 c 0
 727 399 675 272 444 272 c 2
 267 272 l 1
 267 250 l 1
 467 250 l 2
 477 250 487 251 496 248 c 0
 512 243 524 229 524 212 c 0
 524 195 512 180 496 176 c 0
 487 173 477 175 467 175 c 2
 267 175 l 1
 267 75 l 1
 344 75 l 1
 344 0 l 1
 91 0 l 1
 91 75 l 1
 169 75 l 1
 169 175 l 1
 42 175 l 2
 40 175 38 174 36 174 c 0
 -7 174 -12 200 -12 212 c 0
264 347 m 1
 418 347 l 2
 489 347 565 352 604 406 c 0
 620 428 627 456 627 483 c 0
 627 616 490 619 427 619 c 2
 264 619 l 1
 264 347 l 1
EndSplineSet
EndChar

StartChar: lira
Encoding: 8356 8356 331
Width: 735
Flags: HW
TeX: 694 0
HStem: -5 144<98.0104 267.06> -5 76<428.019 605.857> 175 75<157.376 273 365 511.531> 364 75<157.48 273 365 511.531> 651 76<405.157 540.96>
VStem: 273 92<151 175 250 364 439 606.379> 567 102<479.167 562.715> 630 71<95.0699 149.801>
LayerCount: 2
Fore
SplineSet
63 61 m 0
 63 124 141 139 203 139 c 0xbd
 225 139 248 137 268 134 c 1
 271 151 l 1
 273 175 l 1
 212 175 l 2
 208 175 204 174 200 174 c 0
 159 174 154 202 154 212 c 0
 154 222 157 250 200 250 c 2
 273 250 l 1
 273 364 l 1
 200 364 l 2
 159 364 154 391 154 401 c 0
 154 411 158 439 200 439 c 2
 273 439 l 1
 273 511 l 2
 273 683 393 727 476 727 c 0
 602 727 669 612 669 525 c 0
 669 480 637 470 618 470 c 0
 591 470 567 490 567 521 c 0
 567 546 581 557 588 563 c 1
 564 627 520 651 476 651 c 0
 363 651 365 549 365 510 c 2
 365 439 l 1
 469 439 l 2
 510 439 515 412 515 402 c 0
 515 390 510 364 467 364 c 2
 365 364 l 1
 365 250 l 1
 469 250 l 2
 510 250 515 223 515 213 c 0
 515 201 510 174 467 174 c 0
 463 174 459 175 455 175 c 2
 365 175 l 1
 364 152 361 131 355 113 c 1
 388 104 489 71 550 71 c 0x7e
 626 71 622 136 630 145 c 0
 633 148 636 150 659 150 c 2
 665 150 l 2
 691 150 701 150 701 131 c 0
 701 75 641 -5 524 -5 c 0x7d
 448 -5 344 30 306 41 c 1
 262 5 212 -5 161 -5 c 0
 101 -5 63 21 63 61 c 0
EndSplineSet
EndChar

StartChar: uni211E
Encoding: 8478 8478 332
Width: 839
Flags: HW
TeX: 694 0
HStem: -11 76<669.091 754.314> 0 75<74 152 247 286> 310 75<247 498.436> 619 76<74 152 247 527.081>
VStem: 152 95<75 310 385 619> 594 100<440.432 563.302> 768 66<74.0917 117.723>
DStem2: 481 97 527 37 0.792998 0.609224<0 47.7259 213.085 397.151>
LayerCount: 2
Fore
SplineSet
74 0 m 1
 74 75 l 1
 152 75 l 1x7e
 152 619 l 1
 74 619 l 1
 74 695 l 1
 377 695 l 2
 456 695 583 686 653 607 c 0
 673 584 694 549 694 502 c 0
 694 438 654 376 572 341 c 1
 572 340 l 1
 636 300 646 250 649 225 c 1
 796 339 l 1
 842 279 l 1
 653 134 653 138 653 122 c 0
 653 99 676 65 719 65 c 0xbe
 762 65 755 101 768 113 c 0
 773 117 780 118 788 118 c 0
 794 118 800 118 806 118 c 0
 820 118 834 115 834 94 c 0
 834 61 804 -11 721 -11 c 0xbe
 698 -11 605 -9 565 66 c 1
 527 37 l 1
 481 97 l 1
 551 150 l 1
 551 199 l 2
 551 227 553 277 463 301 c 0
 435 308 406 310 374 310 c 2
 247 310 l 1
 247 75 l 1
 286 75 l 1
 286 0 l 1
 74 0 l 1
247 385 m 1x3e
 375 385 l 2
 477 385 551 399 582 455 c 0
 590 470 594 486 594 502 c 0
 594 543 570 575 536 593 c 0
 489 618 433 619 381 619 c 2
 247 619 l 1
 247 385 l 1x3e
EndSplineSet
EndChar

StartChar: uni203D
Encoding: 8253 8253 333
Width: 543
Flags: HW
TeX: 694 0
HStem: 0 133<221.776 318.996> 685 20G<258.5 284.5>
VStem: 63 103<459.433 532.487> 204 133<17.7761 114.996 622.338 688.187> 217 97<213.91 328.576> 380 98<465.811 539.226>
LayerCount: 2
Fore
SplineSet
63 503 m 0
 63 577 136 615 205 626 c 1
 205 629 204 633 204 637 c 0
 204 691 247 705 270 705 c 0
 299 705 337 686 337 639 c 2
 337 626 l 1xf4
 338 625 478 613 478 501 c 0
 478 431 419 403 401 392 c 0
 306 337 315 317 314 299 c 0xec
 308 217 314 213 274 213 c 2
 260 213 l 2
 216 213 217 215 217 253 c 0xec
 217 308 225 299 225 330 c 0
 225 344 212 522 210 552 c 1
 176 546 169 542 155 533 c 1
 162 522 166 514 166 501 c 0
 166 470 141 450 115 450 c 0
 87 450 63 470 63 503 c 0
204 67 m 0
 204 101 232 133 271 133 c 0
 306 133 337 106 337 67 c 0xf4
 337 28 305 0 271 0 c 0
 231 0 204 33 204 67 c 0
324 446 m 1
 352 462 380 472 380 502 c 0xe4
 380 542 337 549 331 550 c 1
 324 446 l 1
EndSplineSet
EndChar

StartChar: uni2E18
Encoding: 11800 11800 334
Width: 543
Flags: HW
TeX: 500 194
HStem: 367 133<222.5 318.996>
VStem: 63 98<-43.8169 36.8005> 204 133<-187.75 -124.827 385.004 481.543> 217 93<172.095 286.616> 376 102<-34.4404 41.222>
LayerCount: 2
Fore
SplineSet
63 -1 m 0
 63 125 217 106 217 251 c 2
 217 261 l 2
 217 286 221 287 257 287 c 2
 272 287 l 2
 307 287 308 285 310 257 c 0xd8
 327 10 329 -21 332 -52 c 1
 355 -49 367 -46 387 -35 c 1
 380 -23 376 -15 376 -1 c 0
 376 30 400 50 427 50 c 0
 453 50 478 32 478 -2 c 0
 478 -26 471 -101 337 -124 c 1
 337 -139 l 2
 337 -181 303 -205 270 -205 c 0
 242 -205 202 -189 204 -128 c 1xe8
 90 -114 63 -52 63 -1 c 0
161 -3 m 0
 161 -46 195 -50 210 -53 c 1
 218 66 l 1
 185 37 161 32 161 -3 c 0
204 433 m 0
 204 467 232 500 271 500 c 0
 306 500 337 472 337 433 c 0
 337 395 305 367 271 367 c 0xe8
 231 367 204 399 204 433 c 0
EndSplineSet
EndChar

StartChar: dong
Encoding: 8363 8363 335
Width: 644
Flags: HW
TeX: 750 0
HStem: -60 60<58.1058 611.828> 50 76<199.483 355.38 528.928 601> 458 75<204.194 374.211> 561 75<193 437 526 583> 664 75<362 435.454> 730 20G<362 526>
VStem: 38 98<192.165 389.06> 434 92<185.512 416.735 482 561>
LayerCount: 2
Fore
SplineSet
38 291 m 0
 38 422 103 533 241 533 c 0
 308 533 380 517 437 482 c 1
 437 561 l 1
 193 561 l 1
 193 636 l 1
 437 636 l 1
 432 660 423 664 368 664 c 2
 362 664 l 1
 362 739 l 1xfb
 526 750 l 1xf7
 526 636 l 1
 583 636 l 1
 583 561 l 1
 526 561 l 1
 526 168 l 2
 526 135 537 131 591 131 c 2
 601 131 l 1
 601 55 l 1
 434 50 l 1
 434 115 l 1
 384 79 322 50 238 50 c 0
 151 50 39 106 38 291 c 0
57 -30 m 0
 57 -1 84 0 98 0 c 2
 574 0 l 2
 609 0 613 -22 613 -30 c 0
 613 -40 608 -61 572 -61 c 0
 568 -61 565 -60 561 -60 c 2
 96 -60 l 2
 90 -60 57 -61 57 -30 c 0
136 291 m 0
 136 159 210 126 284 126 c 0
 368 126 434 190 434 236 c 2
 434 374 l 2
 434 393 430 398 420 409 c 0
 410 420 371 458 298 458 c 0xf3
 216 458 136 424 136 291 c 0
EndSplineSet
EndChar

StartChar: trademark
Encoding: 8482 8482 336
Width: 767
Flags: HW
TeX: 750 0
ItalicCorrection: 524
HStem: 675 75<4.5476 154 230 378.572>
VStem: 154 76<368.538 675> 409 76<369.077 596> 665 75<368.589 595>
LayerCount: 2
Fore
SplineSet
1 713 m 0
 1 725 8 748 40 750 c 1
 336 750 l 2
 377 750 382 723 382 713 c 0
 382 703 378 676 337 675 c 1
 230 675 l 1
 230 412 l 2
 230 372 207 365 191 365 c 0
 180 365 154 370 154 411 c 2
 154 675 l 1
 46 675 l 1
 5 676 1 702 1 713 c 0
409 410 m 1
 409 713 l 2
 409 756 435 760 447 760 c 0
 473 760 475 750 575 596 c 1
 583 610 593 624 663 732 c 0
 670 742 681 760 703 760 c 0
 718 760 740 753 740 712 c 2
 740 410 l 1
 741 376 718 365 703 365 c 0
 693 365 665 369 665 411 c 2
 665 595 l 1
 607 505 601 490 575 490 c 0
 549 490 544 506 485 596 c 1
 485 410 l 1
 484 370 457 365 446 365 c 0
 435 365 410 370 409 410 c 1
EndSplineSet
EndChar

StartChar: uni2031
Encoding: 8241 8241 337
Width: 1766
Flags: HW
TeX: 750 55
HStem: -55 75<685.481 786.109 1089.28 1190.16 1493.98 1594.09> 271 76<684.622 786.05 1088.82 1190.3 1492.49 1594.67> 347 76<173.694 274.955> 575 71<421.61 621.436> 674 76<173.815 275.906>
VStem: 63 85<450.816 646.726> 311 72<460.337 606.94> 574 85<47.5993 243.693> 822 71<57.3821 233.586> 978 85<47.8142 243.562> 1226 72<57.3821 233.586> 1382 85<47.2066 243.673> 1629 72<57.593 233.583>
DStem2: 188 22 220 -35 0.611899 0.790936<-53.9019 707.697 805.489 807.051>
LayerCount: 2
Fore
SplineSet
978 147 m 0
 978 277 1052 347 1140 347 c 0
 1225 347 1298 280 1298 146 c 0
 1298 10 1223 -55 1141 -55 c 0
 1064 -55 978 0 978 147 c 0
1063 141 m 0
 1063 78 1078 20 1140 20 c 0
 1174 20 1226 46 1226 146 c 0
 1226 244 1174 271 1140 271 c 0
 1069 271 1063 198 1063 141 c 0
1382 147 m 0
 1382 277 1455 347 1544 347 c 0
 1607 347 1700 304 1701 146 c 0
 1701 11 1628 -55 1545 -55 c 0
 1470 -55 1382 -2 1382 147 c 0
1467 141 m 0
 1467 83 1480 20 1544 20 c 0
 1578 20 1629 46 1629 146 c 0
 1629 244 1578 271 1544 271 c 0
 1476 271 1467 206 1467 141 c 0
EndSplineSet
Refer: 47 37 S 1 0 0 1 0 0 2
EndChar

StartChar: uni2029
Encoding: 8233 8233 338
Width: 543
Flags: HW
TeX: 694 194
HStem: -195 61<260.328 354 414 507.854> 634 61<414 507.28>
VStem: 63 351<368.47 559.434> 354 60<-134 221.424>
LayerCount: 2
Fore
SplineSet
63 459 m 0xe0
 63 551 120 695 282 695 c 2
 470 695 l 2
 504 695 509 675 509 665 c 0
 509 654 502 643 492 638 c 0
 483 634 473 634 463 634 c 2
 414 634 l 1
 414 -134 l 1xd0
 470 -134 l 2
 504 -134 509 -152 509 -164 c 0
 509 -176 504 -195 469 -195 c 2
 299 -195 l 2
 264 -195 259 -176 259 -164 c 0
 259 -159 261 -145 275 -138 c 0
 284 -133 295 -134 305 -134 c 2
 354 -134 l 1
 354 220 l 1xd0
 194 233 63 316 63 459 c 0xe0
EndSplineSet
EndChar

